  0
SECTION
  2
HEADER
  9
$ACADVER
  1
AC1014
  9
$HANDSEED
  5
FFFF
  9
$MEASUREMENT
 70
     1
  0
ENDSEC
  0
SECTION
  2
TABLES
  0
TABLE
  2
VPORT
  5
8
330
0
100
AcDbSymbolTable
 70
     4
  0
VPORT
  5
2E
330
8
100
AcDbSymbolTableRecord
100
AcDbViewportTableRecord
  2
*ACTIVE
 70
     0
 10
0.0
 20
0.0
 11
1.0
 21
1.0
 12
210.0
 22
148.5
 13
0.0
 23
0.0
 14
10.0
 24
10.0
 15
10.0
 25
10.0
 16
0.0
 26
0.0
 36
1.0
 17
0.0
 27
0.0
 37
0.0
 40
341.0
 41
1.24
 42
50.0
 43
0.0
 44
0.0
 50
0.0
 51
0.0
 71
     0
 72
   100
 73
     1
 74
     3
 75
     0
 76
     0
 77
     0
 78
     0
  0
ENDTAB
  0
TABLE
  2
LTYPE
  5
5
330
0
100
AcDbSymbolTable
 70
     1
  0
LTYPE
  5
14
330
5
100
AcDbSymbolTableRecord
100
AcDbLinetypeTableRecord
  2
BYBLOCK
 70
     0
  3

 72
    65
 73
     0
 40
0.0
  0
LTYPE
  5
15
330
5
100
AcDbSymbolTableRecord
100
AcDbLinetypeTableRecord
  2
BYLAYER
 70
     0
  3

 72
    65
 73
     0
 40
0.0
  0
LTYPE
  5
16
330
5
100
AcDbSymbolTableRecord
100
AcDbLinetypeTableRecord
  2
CONTINUOUS
 70
     0
  3
Solid line
 72
    65
 73
     0
 40
0.0
  0
ENDTAB
  0
TABLE
  2
LAYER
  5
2
100
AcDbSymbolTable
 70
2
  0
LAYER
  5
50
100
AcDbSymbolTableRecord
100
AcDbLayerTableRecord
  2
0
 70
0
  6
CONTINUOUS
  0
LAYER
  5
51
100
AcDbSymbolTableRecord
100
AcDbLayerTableRecord
  2
Calque_1
 70
0
  6
CONTINUOUS
  0
ENDTAB
  0
TABLE
  2
STYLE
  5
3
330
0
100
AcDbSymbolTable
 70
     1
  0
STYLE
  5
11
330
3
100
AcDbSymbolTableRecord
100
AcDbTextStyleTableRecord
  2
STANDARD
 70
     0
 40
0.0
 41
1.0
 50
0.0
 71
     0
 42
2.5
  3
txt
  4

  0
ENDTAB
  0
TABLE
  2
VIEW
  5
6
330
0
100
AcDbSymbolTable
 70
     0
  0
ENDTAB
  0
TABLE
  2
UCS
  5
7
330
0
100
AcDbSymbolTable
 70
     0
  0
ENDTAB
  0
TABLE
  2
APPID
  5
9
330
0
100
AcDbSymbolTable
 70
     2
  0
APPID
  5
12
330
9
100
AcDbSymbolTableRecord
100
AcDbRegAppTableRecord
  2
ACAD
 70
     0
  0
ENDTAB
  0
TABLE
  2
DIMSTYLE
  5
A
330
0
100
AcDbSymbolTable
 70
     1
  0
DIMSTYLE
105
27
330
A
100
AcDbSymbolTableRecord
100
AcDbDimStyleTableRecord
  2
ISO-25
 70
     0
  3

  4

  5

  6

  7

 40
1.0
 41
2.5
 42
0.625
 43
3.75
 44
1.25
 45
0.0
 46
0.0
 47
0.0
 48
0.0
140
2.5
141
2.5
142
0.0
143
0.03937007874016
144
1.0
145
0.0
146
1.0
147
0.625
 71
     0
 72
     0
 73
     0
 74
     0
 75
     0
 76
     0
 77
     1
 78
     8
170
     0
171
     3
172
     1
173
     0
174
     0
175
     0
176
     0
177
     0
178
     0
270
     2
271
     2
272
     2
273
     2
274
     3
340
11
275
     0
280
     0
281
     0
282
     0
283
     0
284
     8
285
     0
286
     0
287
     3
288
     0
  0
ENDTAB
  0
TABLE
  2
BLOCK_RECORD
  5
1
330
0
100
AcDbSymbolTable
 70
     1
  0
BLOCK_RECORD
  5
1F
330
1
100
AcDbSymbolTableRecord
100
AcDbBlockTableRecord
  2
*MODEL_SPACE
  0
BLOCK_RECORD
  5
1B
330
1
100
AcDbSymbolTableRecord
100
AcDbBlockTableRecord
  2
*PAPER_SPACE
  0
ENDTAB
  0
ENDSEC
  0
SECTION
  2
BLOCKS
  0
BLOCK
  5
20
330
1F
100
AcDbEntity
  8
0
100
AcDbBlockBegin
  2
*MODEL_SPACE
 70
     0
 10
0.0
 20
0.0
 30
0.0
  3
*MODEL_SPACE
  1

  0
ENDBLK
  5
21
330
1F
100
AcDbEntity
  8
0
100
AcDbBlockEnd
  0
BLOCK
  5
1C
330
1B
100
AcDbEntity
 67
     1
  8
0
100
AcDbBlockBegin
  2
*PAPER_SPACE
  1

  0
ENDBLK
  5
1D
330
1B
100
AcDbEntity
 67
     1
  8
0
100
AcDbBlockEnd
  0
ENDSEC
  0
SECTION
  2
ENTITIES
  0
LINE
  5
100
100
AcDbEntity
  8
Calque_1
 62
7
100
AcDbLine
 10
186.880627
 20
330.097066
 30
0.0
 11
186.880627
 21
326.487388
 31
0.0
  0
LINE
  5
101
100
AcDbEntity
  8
Calque_1
 62
7
100
AcDbLine
 10
186.880627
 20
326.487388
 30
0.0
 11
160.983967
 21
326.487388
 31
0.0
  0
LINE
  5
102
100
AcDbEntity
  8
Calque_1
 62
7
100
AcDbLine
 10
160.983967
 20
326.487388
 30
0.0
 11
160.983967
 21
297.128712
 31
0.0
  0
LINE
  5
103
100
AcDbEntity
  8
Calque_1
 62
7
100
AcDbLine
 10
160.983967
 20
297.128712
 30
0.0
 11
188.978396
 21
297.128712
 31
0.0
  0
LINE
  5
104
100
AcDbEntity
  8
Calque_1
 62
7
100
AcDbLine
 10
188.978396
 20
297.128712
 30
0.0
 11
188.978396
 21
293.519033
 31
0.0
  0
LINE
  5
105
100
AcDbEntity
  8
Calque_1
 62
7
100
AcDbLine
 10
188.978396
 20
293.519033
 30
0.0
 11
157.728793
 21
293.519033
 31
0.0
  0
LINE
  5
106
100
AcDbEntity
  8
Calque_1
 62
7
100
AcDbLine
 10
157.728793
 20
293.519033
 30
0.0
 11
157.728793
 21
353.399506
 31
0.0
  0
LINE
  5
107
100
AcDbEntity
  8
Calque_1
 62
7
100
AcDbLine
 10
157.728793
 20
353.399506
 30
0.0
 11
189.123069
 21
353.399506
 31
0.0
  0
LINE
  5
108
100
AcDbEntity
  8
Calque_1
 62
7
100
AcDbLine
 10
189.123069
 20
353.399506
 30
0.0
 11
189.123069
 21
349.789827
 31
0.0
  0
LINE
  5
109
100
AcDbEntity
  8
Calque_1
 62
7
100
AcDbLine
 10
189.123069
 20
349.789827
 30
0.0
 11
160.983967
 21
349.789827
 31
0.0
  0
LINE
  5
10a
100
AcDbEntity
  8
Calque_1
 62
7
100
AcDbLine
 10
160.983967
 20
349.789827
 30
0.0
 11
160.983967
 21
330.097066
 31
0.0
  0
LINE
  5
10b
100
AcDbEntity
  8
Calque_1
 62
7
100
AcDbLine
 10
160.983967
 20
330.097066
 30
0.0
 11
186.880627
 21
330.097066
 31
0.0
  0
LINE
  5
10c
100
AcDbEntity
  8
Calque_1
 62
7
100
AcDbLine
 10
186.880627
 20
330.097066
 30
0.0
 11
186.880627
 21
330.097066
 31
0.0
  0
LINE
  5
10d
100
AcDbEntity
  8
Calque_1
 62
7
100
AcDbLine
 10
226.521326
 20
330.097066
 30
0.0
 11
226.521326
 21
326.487388
 31
0.0
  0
LINE
  5
10e
100
AcDbEntity
  8
Calque_1
 62
7
100
AcDbLine
 10
226.521326
 20
326.487388
 30
0.0
 11
200.624663
 21
326.487388
 31
0.0
  0
LINE
  5
10f
100
AcDbEntity
  8
Calque_1
 62
7
100
AcDbLine
 10
200.624663
 20
326.487388
 30
0.0
 11
200.624663
 21
297.128712
 31
0.0
  0
LINE
  5
110
100
AcDbEntity
  8
Calque_1
 62
7
100
AcDbLine
 10
200.624663
 20
297.128712
 30
0.0
 11
228.619095
 21
297.128712
 31
0.0
  0
LINE
  5
111
100
AcDbEntity
  8
Calque_1
 62
7
100
AcDbLine
 10
228.619095
 20
297.128712
 30
0.0
 11
228.619095
 21
293.519033
 31
0.0
  0
LINE
  5
112
100
AcDbEntity
  8
Calque_1
 62
7
100
AcDbLine
 10
228.619095
 20
293.519033
 30
0.0
 11
197.369492
 21
293.519033
 31
0.0
  0
LINE
  5
113
100
AcDbEntity
  8
Calque_1
 62
7
100
AcDbLine
 10
197.369492
 20
293.519033
 30
0.0
 11
197.369492
 21
353.399506
 31
0.0
  0
LINE
  5
114
100
AcDbEntity
  8
Calque_1
 62
7
100
AcDbLine
 10
197.369492
 20
353.399506
 30
0.0
 11
228.763768
 21
353.399506
 31
0.0
  0
LINE
  5
115
100
AcDbEntity
  8
Calque_1
 62
7
100
AcDbLine
 10
228.763768
 20
353.399506
 30
0.0
 11
228.763768
 21
349.789827
 31
0.0
  0
LINE
  5
116
100
AcDbEntity
  8
Calque_1
 62
7
100
AcDbLine
 10
228.763768
 20
349.789827
 30
0.0
 11
200.624663
 21
349.789827
 31
0.0
  0
LINE
  5
117
100
AcDbEntity
  8
Calque_1
 62
7
100
AcDbLine
 10
200.624663
 20
349.789827
 30
0.0
 11
200.624663
 21
330.097066
 31
0.0
  0
LINE
  5
118
100
AcDbEntity
  8
Calque_1
 62
7
100
AcDbLine
 10
200.624663
 20
330.097066
 30
0.0
 11
226.521326
 21
330.097066
 31
0.0
  0
LINE
  5
119
100
AcDbEntity
  8
Calque_1
 62
7
100
AcDbLine
 10
226.521326
 20
330.097066
 30
0.0
 11
226.521326
 21
330.097066
 31
0.0
  0
LINE
  5
11a
100
AcDbEntity
  8
Calque_1
 62
7
100
AcDbLine
 10
265.836524
 20
342.811121
 30
0.0
 11
262.762165
 21
341.648027
 31
0.0
  0
SPLINE
  5
11b
100
AcDbEntity
  8
Calque_1
 62
7
100
AcDbSpline
 70
8
 71
3
 72
8
 73
4
 74
0
 40
0
 40
0
 40
0
 40
0
 40
1
 40
1
 40
1
 40
1
 10
262.762165
 20
341.648027
 30
0.0
 10
261.918264
 20
344.509026
 30
0.0
 10
260.519740
 20
346.674828
 30
0.0
 10
258.566621
 20
348.145431
 30
0.0
  0
SPLINE
  5
11c
100
AcDbEntity
  8
Calque_1
 62
7
100
AcDbSpline
 70
8
 71
3
 72
8
 73
4
 74
0
 40
0
 40
0
 40
0
 40
0
 40
1
 40
1
 40
1
 40
1
 10
258.566621
 20
348.145431
 30
0.0
 10
256.637632
 20
349.616035
 30
0.0
 10
254.527823
 20
350.351337
 30
0.0
 10
252.237138
 20
350.351337
 30
0.0
  0
SPLINE
  5
11d
100
AcDbEntity
  8
Calque_1
 62
7
100
AcDbSpline
 70
8
 71
3
 72
8
 73
4
 74
0
 40
0
 40
0
 40
0
 40
0
 40
1
 40
1
 40
1
 40
1
 10
252.237138
 20
350.351337
 30
0.0
 10
249.464220
 20
350.351337
 30
0.0
 10
247.197663
 20
349.362007
 30
0.0
 10
245.437465
 20
347.383375
 30
0.0
  0
SPLINE
  5
11e
100
AcDbEntity
  8
Calque_1
 62
7
100
AcDbSpline
 70
8
 71
3
 72
8
 73
4
 74
0
 40
0
 40
0
 40
0
 40
0
 40
1
 40
1
 40
1
 40
1
 10
245.437465
 20
347.383375
 30
0.0
 10
243.701375
 20
345.404743
 30
0.0
 10
242.833330
 20
342.984942
 30
0.0
 10
242.833330
 20
340.123942
 30
0.0
  0
SPLINE
  5
11f
100
AcDbEntity
  8
Calque_1
 62
7
100
AcDbSpline
 70
8
 71
3
 72
8
 73
4
 74
0
 40
0
 40
0
 40
0
 40
0
 40
1
 40
1
 40
1
 40
1
 10
242.833330
 20
340.123942
 30
0.0
 10
242.833330
 20
338.653338
 30
0.0
 10
243.134735
 20
337.316424
 30
0.0
 10
243.737542
 20
336.113197
 30
0.0
  0
SPLINE
  5
120
100
AcDbEntity
  8
Calque_1
 62
7
100
AcDbSpline
 70
8
 71
3
 72
8
 73
4
 74
0
 40
0
 40
0
 40
0
 40
0
 40
1
 40
1
 40
1
 40
1
 10
243.737542
 20
336.113197
 30
0.0
 10
244.340349
 20
334.909971
 30
0.0
 10
245.148114
 20
333.880537
 30
0.0
 10
246.160835
 20
333.024896
 30
0.0
  0
SPLINE
  5
121
100
AcDbEntity
  8
Calque_1
 62
7
100
AcDbSpline
 70
8
 71
3
 72
8
 73
4
 74
0
 40
0
 40
0
 40
0
 40
0
 40
1
 40
1
 40
1
 40
1
 10
246.160835
 20
333.024896
 30
0.0
 10
247.173550
 20
332.169283
 30
0.0
 10
248.330929
 20
331.367123
 30
0.0
 10
249.633018
 20
330.618444
 30
0.0
  0
SPLINE
  5
122
100
AcDbEntity
  8
Calque_1
 62
7
100
AcDbSpline
 70
8
 71
3
 72
8
 73
4
 74
0
 40
0
 40
0
 40
0
 40
0
 40
1
 40
1
 40
1
 40
1
 10
249.633018
 20
330.618444
 30
0.0
 10
250.959180
 20
329.896519
 30
0.0
 10
252.345653
 20
329.201321
 30
0.0
 10
253.792380
 20
328.532878
 30
0.0
  0
SPLINE
  5
123
100
AcDbEntity
  8
Calque_1
 62
7
100
AcDbSpline
 70
8
 71
3
 72
8
 73
4
 74
0
 40
0
 40
0
 40
0
 40
0
 40
1
 40
1
 40
1
 40
1
 10
253.792380
 20
328.532878
 30
0.0
 10
255.263238
 20
327.864406
 30
0.0
 10
256.722045
 20
327.155831
 30
0.0
 10
258.168772
 20
326.407180
 30
0.0
  0
SPLINE
  5
124
100
AcDbEntity
  8
Calque_1
 62
7
100
AcDbSpline
 70
8
 71
3
 72
8
 73
4
 74
0
 40
0
 40
0
 40
0
 40
0
 40
1
 40
1
 40
1
 40
1
 10
258.168772
 20
326.407180
 30
0.0
 10
259.639630
 20
325.685227
 30
0.0
 10
261.026103
 20
324.842990
 30
0.0
 10
262.328163
 20
323.880387
 30
0.0
  0
SPLINE
  5
125
100
AcDbEntity
  8
Calque_1
 62
7
100
AcDbSpline
 70
8
 71
3
 72
8
 73
4
 74
0
 40
0
 40
0
 40
0
 40
0
 40
1
 40
1
 40
1
 40
1
 10
262.328163
 20
323.880387
 30
0.0
 10
263.654326
 20
322.917811
 30
0.0
 10
264.823798
 20
321.848274
 30
0.0
 10
265.836524
 20
320.671802
 30
0.0
  0
SPLINE
  5
126
100
AcDbEntity
  8
Calque_1
 62
7
100
AcDbSpline
 70
8
 71
3
 72
8
 73
4
 74
0
 40
0
 40
0
 40
0
 40
0
 40
1
 40
1
 40
1
 40
1
 10
265.836524
 20
320.671802
 30
0.0
 10
266.849222
 20
319.495302
 30
0.0
 10
267.656999
 20
318.051453
 30
0.0
 10
268.259797
 20
316.340199
 30
0.0
  0
SPLINE
  5
127
100
AcDbEntity
  8
Calque_1
 62
7
100
AcDbSpline
 70
8
 71
3
 72
8
 73
4
 74
0
 40
0
 40
0
 40
0
 40
0
 40
1
 40
1
 40
1
 40
1
 10
268.259797
 20
316.340199
 30
0.0
 10
268.862596
 20
314.628945
 30
0.0
 10
269.164009
 20
312.730520
 30
0.0
 10
269.164009
 20
310.644926
 30
0.0
  0
SPLINE
  5
128
100
AcDbEntity
  8
Calque_1
 62
7
100
AcDbSpline
 70
8
 71
3
 72
8
 73
4
 74
0
 40
0
 40
0
 40
0
 40
0
 40
1
 40
1
 40
1
 40
1
 10
269.164009
 20
310.644926
 30
0.0
 10
269.164009
 20
307.168936
 30
0.0
 10
268.356261
 20
304.053937
 30
0.0
 10
266.740708
 20
301.299899
 30
0.0
  0
SPLINE
  5
129
100
AcDbEntity
  8
Calque_1
 62
7
100
AcDbSpline
 70
8
 71
3
 72
8
 73
4
 74
0
 40
0
 40
0
 40
0
 40
0
 40
1
 40
1
 40
1
 40
1
 10
266.740708
 20
301.299899
 30
0.0
 10
265.125183
 20
298.545834
 30
0.0
 10
263.027425
 20
296.446891
 30
0.0
 10
260.447406
 20
295.003014
 30
0.0
  0
SPLINE
  5
12a
100
AcDbEntity
  8
Calque_1
 62
7
100
AcDbSpline
 70
8
 71
3
 72
8
 73
4
 74
0
 40
0
 40
0
 40
0
 40
0
 40
1
 40
1
 40
1
 40
1
 10
260.447406
 20
295.003014
 30
0.0
 10
257.867387
 20
293.559137
 30
0.0
 10
255.082390
 20
292.837212
 30
0.0
 10
252.092471
 20
292.837212
 30
0.0
  0
SPLINE
  5
12b
100
AcDbEntity
  8
Calque_1
 62
7
100
AcDbSpline
 70
8
 71
3
 72
8
 73
4
 74
0
 40
0
 40
0
 40
0
 40
0
 40
1
 40
1
 40
1
 40
1
 10
252.092471
 20
292.837212
 30
0.0
 10
250.139381
 20
292.837212
 30
0.0
 10
248.270646
 20
293.184797
 30
0.0
 10
246.486350
 20
293.879995
 30
0.0
  0
SPLINE
  5
12c
100
AcDbEntity
  8
Calque_1
 62
7
100
AcDbSpline
 70
8
 71
3
 72
8
 73
4
 74
0
 40
0
 40
0
 40
0
 40
0
 40
1
 40
1
 40
1
 40
1
 10
246.486350
 20
293.879995
 30
0.0
 10
244.702034
 20
294.575193
 30
0.0
 10
243.038277
 20
295.604627
 30
0.0
 10
241.495089
 20
296.968296
 30
0.0
  0
SPLINE
  5
12d
100
AcDbEntity
  8
Calque_1
 62
7
100
AcDbSpline
 70
8
 71
3
 72
8
 73
4
 74
0
 40
0
 40
0
 40
0
 40
0
 40
1
 40
1
 40
1
 40
1
 10
241.495089
 20
296.968296
 30
0.0
 10
239.951898
 20
298.358664
 30
0.0
 10
238.637775
 20
300.203607
 30
0.0
 10
237.552721
 20
302.503097
 30
0.0
  0
SPLINE
  5
12e
100
AcDbEntity
  8
Calque_1
 62
7
100
AcDbSpline
 70
8
 71
3
 72
8
 73
4
 74
0
 40
0
 40
0
 40
0
 40
0
 40
1
 40
1
 40
1
 40
1
 10
237.552721
 20
302.503097
 30
0.0
 10
236.467667
 20
304.802616
 30
0.0
 10
235.756354
 20
307.436342
 30
0.0
 10
235.418777
 20
310.404275
 30
0.0
  0
LINE
  5
12f
100
AcDbEntity
  8
Calque_1
 62
7
100
AcDbLine
 10
235.418777
 20
310.404275
 30
0.0
 11
238.637781
 21
310.845473
 31
0.0
  0
SPLINE
  5
130
100
AcDbEntity
  8
Calque_1
 62
7
100
AcDbSpline
 70
8
 71
3
 72
8
 73
4
 74
0
 40
0
 40
0
 40
0
 40
0
 40
1
 40
1
 40
1
 40
1
 10
238.637781
 20
310.845473
 30
0.0
 10
239.240588
 20
306.032569
 30
0.0
 10
240.783779
 20
302.436267
 30
0.0
 10
243.267354
 20
300.056569
 30
0.0
  0
SPLINE
  5
131
100
AcDbEntity
  8
Calque_1
 62
7
100
AcDbSpline
 70
8
 71
3
 72
8
 73
4
 74
0
 40
0
 40
0
 40
0
 40
0
 40
1
 40
1
 40
1
 40
1
 10
243.267354
 20
300.056569
 30
0.0
 10
245.775037
 20
297.703598
 30
0.0
 10
248.716755
 20
296.527098
 30
0.0
 10
252.092471
 20
296.527098
 30
0.0
  0
SPLINE
  5
132
100
AcDbEntity
  8
Calque_1
 62
7
100
AcDbSpline
 70
8
 71
3
 72
8
 73
4
 74
0
 40
0
 40
0
 40
0
 40
0
 40
1
 40
1
 40
1
 40
1
 10
252.092471
 20
296.527098
 30
0.0
 10
254.479592
 20
296.527098
 30
0.0
 10
256.709994
 20
297.075230
 30
0.0
 10
258.783650
 20
298.171494
 30
0.0
  0
SPLINE
  5
133
100
AcDbEntity
  8
Calque_1
 62
7
100
AcDbSpline
 70
8
 71
3
 72
8
 73
4
 74
0
 40
0
 40
0
 40
0
 40
0
 40
1
 40
1
 40
1
 40
1
 10
258.783650
 20
298.171494
 30
0.0
 10
260.857306
 20
299.294513
 30
0.0
 10
262.557215
 20
300.952286
 30
0.0
 10
263.883405
 20
303.144843
 30
0.0
  0
SPLINE
  5
134
100
AcDbEntity
  8
Calque_1
 62
7
100
AcDbSpline
 70
8
 71
3
 72
8
 73
4
 74
0
 40
0
 40
0
 40
0
 40
0
 40
1
 40
1
 40
1
 40
1
 10
263.883405
 20
303.144843
 30
0.0
 10
265.233698
 20
305.364125
 30
0.0
 10
265.908830
 20
307.904266
 30
0.0
 10
265.908830
 20
310.765266
 30
0.0
  0
SPLINE
  5
135
100
AcDbEntity
  8
Calque_1
 62
7
100
AcDbSpline
 70
8
 71
3
 72
8
 73
4
 74
0
 40
0
 40
0
 40
0
 40
0
 40
1
 40
1
 40
1
 40
1
 10
265.908830
 20
310.765266
 30
0.0
 10
265.908830
 20
312.556728
 30
0.0
 10
265.607444
 20
314.174397
 30
0.0
 10
265.004618
 20
315.618246
 30
0.0
  0
SPLINE
  5
136
100
AcDbEntity
  8
Calque_1
 62
7
100
AcDbSpline
 70
8
 71
3
 72
8
 73
4
 74
0
 40
0
 40
0
 40
0
 40
0
 40
1
 40
1
 40
1
 40
1
 10
265.004618
 20
315.618246
 30
0.0
 10
264.401819
 20
317.062123
 30
0.0
 10
263.594071
 20
318.278727
 30
0.0
 10
262.581345
 20
319.268057
 30
0.0
  0
SPLINE
  5
137
100
AcDbEntity
  8
Calque_1
 62
7
100
AcDbSpline
 70
8
 71
3
 72
8
 73
4
 74
0
 40
0
 40
0
 40
0
 40
0
 40
1
 40
1
 40
1
 40
1
 10
262.581345
 20
319.268057
 30
0.0
 10
261.568619
 20
320.257359
 30
0.0
 10
260.399174
 20
321.166453
 30
0.0
 10
259.072984
 20
321.995340
 30
0.0
  0
SPLINE
  5
138
100
AcDbEntity
  8
Calque_1
 62
7
100
AcDbSpline
 70
8
 71
3
 72
8
 73
4
 74
0
 40
0
 40
0
 40
0
 40
0
 40
1
 40
1
 40
1
 40
1
 10
259.072984
 20
321.995340
 30
0.0
 10
257.770924
 20
322.824226
 30
0.0
 10
256.384450
 20
323.572905
 30
0.0
 10
254.913621
 20
324.241377
 30
0.0
  0
SPLINE
  5
139
100
AcDbEntity
  8
Calque_1
 62
7
100
AcDbSpline
 70
8
 71
3
 72
8
 73
4
 74
0
 40
0
 40
0
 40
0
 40
0
 40
1
 40
1
 40
1
 40
1
 10
254.913621
 20
324.241377
 30
0.0
 10
253.466865
 20
324.936575
 30
0.0
 10
252.008087
 20
325.631774
 30
0.0
 10
250.537229
 20
326.326972
 30
0.0
  0
SPLINE
  5
13a
100
AcDbEntity
  8
Calque_1
 62
7
100
AcDbSpline
 70
8
 71
3
 72
8
 73
4
 74
0
 40
0
 40
0
 40
0
 40
0
 40
1
 40
1
 40
1
 40
1
 10
250.537229
 20
326.326972
 30
0.0
 10
249.090474
 20
327.022142
 30
0.0
 10
247.704020
 20
327.797576
 30
0.0
 10
246.377841
 20
328.653189
 30
0.0
  0
SPLINE
  5
13b
100
AcDbEntity
  8
Calque_1
 62
7
100
AcDbSpline
 70
8
 71
3
 72
8
 73
4
 74
0
 40
0
 40
0
 40
0
 40
0
 40
1
 40
1
 40
1
 40
1
 10
246.377841
 20
328.653189
 30
0.0
 10
245.075778
 20
329.508830
 30
0.0
 10
243.918384
 20
330.444651
 30
0.0
 10
242.905664
 20
331.460708
 30
0.0
  0
SPLINE
  5
13c
100
AcDbEntity
  8
Calque_1
 62
7
100
AcDbSpline
 70
8
 71
3
 72
8
 73
4
 74
0
 40
0
 40
0
 40
0
 40
0
 40
1
 40
1
 40
1
 40
1
 10
242.905664
 20
331.460708
 30
0.0
 10
241.892946
 20
332.476764
 30
0.0
 10
241.085184
 20
333.720094
 30
0.0
 10
240.482371
 20
335.190726
 30
0.0
  0
SPLINE
  5
13d
100
AcDbEntity
  8
Calque_1
 62
7
100
AcDbSpline
 70
8
 71
3
 72
8
 73
4
 74
0
 40
0
 40
0
 40
0
 40
0
 40
1
 40
1
 40
1
 40
1
 10
240.482371
 20
335.190726
 30
0.0
 10
239.879561
 20
336.688056
 30
0.0
 10
239.578159
 20
338.359206
 30
0.0
 10
239.578159
 20
340.204150
 30
0.0
  0
SPLINE
  5
13e
100
AcDbEntity
  8
Calque_1
 62
7
100
AcDbSpline
 70
8
 71
3
 72
8
 73
4
 74
0
 40
0
 40
0
 40
0
 40
0
 40
1
 40
1
 40
1
 40
1
 10
239.578159
 20
340.204150
 30
0.0
 10
239.578159
 20
344.054451
 30
0.0
 10
240.759666
 20
347.329894
 30
0.0
 10
243.122679
 20
350.030478
 30
0.0
  0
SPLINE
  5
13f
100
AcDbEntity
  8
Calque_1
 62
7
100
AcDbSpline
 70
8
 71
3
 72
8
 73
4
 74
0
 40
0
 40
0
 40
0
 40
0
 40
1
 40
1
 40
1
 40
1
 10
243.122679
 20
350.030478
 30
0.0
 10
245.485686
 20
352.757789
 30
0.0
 10
248.523828
 20
354.121459
 30
0.0
 10
252.237138
 20
354.121459
 30
0.0
  0
SPLINE
  5
140
100
AcDbEntity
  8
Calque_1
 62
7
100
AcDbSpline
 70
8
 71
3
 72
8
 73
4
 74
0
 40
0
 40
0
 40
0
 40
0
 40
1
 40
1
 40
1
 40
1
 10
252.237138
 20
354.121459
 30
0.0
 10
255.130622
 20
354.121459
 30
0.0
 10
257.843257
 20
353.118751
 30
0.0
 10
260.375073
 20
351.113393
 30
0.0
  0
SPLINE
  5
141
100
AcDbEntity
  8
Calque_1
 62
7
100
AcDbSpline
 70
8
 71
3
 72
8
 73
4
 74
0
 40
0
 40
0
 40
0
 40
0
 40
1
 40
1
 40
1
 40
1
 10
260.375073
 20
351.113393
 30
0.0
 10
262.930962
 20
349.134761
 30
0.0
 10
264.751436
 20
346.367318
 30
0.0
 10
265.836524
 20
342.811121
 30
0.0
  0
LINE
  5
142
100
AcDbEntity
  8
Calque_1
 62
7
100
AcDbLine
 10
265.836524
 20
342.811121
 30
0.0
 11
265.836524
 21
342.811121
 31
0.0
  0
LINE
  5
143
100
AcDbEntity
  8
Calque_1
 62
7
100
AcDbLine
 10
286.669565
 20
315.698482
 30
0.0
 11
308.443009
 21
315.698482
 31
0.0
  0
LINE
  5
144
100
AcDbEntity
  8
Calque_1
 62
7
100
AcDbLine
 10
308.443009
 20
315.698482
 30
0.0
 11
297.520134
 21
344.776404
 31
0.0
  0
LINE
  5
145
100
AcDbEntity
  8
Calque_1
 62
7
100
AcDbLine
 10
297.520134
 20
344.776404
 30
0.0
 11
286.669565
 21
315.698482
 31
0.0
  0
LINE
  5
146
100
AcDbEntity
  8
Calque_1
 62
7
100
AcDbLine
 10
286.669565
 20
315.698482
 30
0.0
 11
286.669565
 21
315.698482
 31
0.0
  0
LINE
  5
147
100
AcDbEntity
  8
Calque_1
 62
7
100
AcDbLine
 10
309.745070
 20
312.088803
 30
0.0
 11
285.114323
 21
312.088803
 31
0.0
  0
LINE
  5
148
100
AcDbEntity
  8
Calque_1
 62
7
100
AcDbLine
 10
285.114323
 20
312.088803
 30
0.0
 11
278.242308
 21
293.519033
 31
0.0
  0
LINE
  5
149
100
AcDbEntity
  8
Calque_1
 62
7
100
AcDbLine
 10
278.242308
 20
293.519033
 30
0.0
 11
274.770128
 21
293.519033
 31
0.0
  0
LINE
  5
14a
100
AcDbEntity
  8
Calque_1
 62
7
100
AcDbLine
 10
274.770128
 20
293.519033
 30
0.0
 11
297.411620
 21
354.121459
 31
0.0
  0
LINE
  5
14b
100
AcDbEntity
  8
Calque_1
 62
7
100
AcDbLine
 10
297.411620
 20
354.121459
 30
0.0
 11
320.125457
 21
293.519033
 31
0.0
  0
LINE
  5
14c
100
AcDbEntity
  8
Calque_1
 62
7
100
AcDbLine
 10
320.125457
 20
293.519033
 30
0.0
 11
316.653277
 21
293.519033
 31
0.0
  0
LINE
  5
14d
100
AcDbEntity
  8
Calque_1
 62
7
100
AcDbLine
 10
316.653277
 20
293.519033
 30
0.0
 11
309.745070
 21
312.088803
 31
0.0
  0
LINE
  5
14e
100
AcDbEntity
  8
Calque_1
 62
7
100
AcDbLine
 10
309.745070
 20
312.088803
 30
0.0
 11
309.745070
 21
312.088803
 31
0.0
  0
LINE
  5
14f
100
AcDbEntity
  8
Calque_1
 62
7
100
AcDbLine
 10
330.686664
 20
297.128712
 30
0.0
 11
346.383779
 21
297.128712
 31
0.0
  0
SPLINE
  5
150
100
AcDbEntity
  8
Calque_1
 62
7
100
AcDbSpline
 70
8
 71
3
 72
8
 73
4
 74
0
 40
0
 40
0
 40
0
 40
0
 40
1
 40
1
 40
1
 40
1
 10
346.383779
 20
297.128712
 30
0.0
 10
350.362322
 20
297.128712
 30
0.0
 10
353.713937
 20
298.492353
 30
0.0
 10
356.438652
 20
301.219664
 30
0.0
  0
SPLINE
  5
151
100
AcDbEntity
  8
Calque_1
 62
7
100
AcDbSpline
 70
8
 71
3
 72
8
 73
4
 74
0
 40
0
 40
0
 40
0
 40
0
 40
1
 40
1
 40
1
 40
1
 10
356.438652
 20
301.219664
 30
0.0
 10
359.163338
 20
303.973729
 30
0.0
 10
360.525681
 20
307.262521
 30
0.0
 10
360.525681
 20
311.086124
 30
0.0
  0
SPLINE
  5
152
100
AcDbEntity
  8
Calque_1
 62
7
100
AcDbSpline
 70
8
 71
3
 72
8
 73
4
 74
0
 40
0
 40
0
 40
0
 40
0
 40
1
 40
1
 40
1
 40
1
 10
360.525681
 20
311.086124
 30
0.0
 10
360.525681
 20
314.909699
 30
0.0
 10
359.163338
 20
318.185142
 30
0.0
 10
356.438652
 20
320.912453
 30
0.0
  0
SPLINE
  5
153
100
AcDbEntity
  8
Calque_1
 62
7
100
AcDbSpline
 70
8
 71
3
 72
8
 73
4
 74
0
 40
0
 40
0
 40
0
 40
0
 40
1
 40
1
 40
1
 40
1
 10
356.438652
 20
320.912453
 30
0.0
 10
353.713937
 20
323.666490
 30
0.0
 10
350.362322
 20
325.043509
 30
0.0
 10
346.383779
 20
325.043509
 30
0.0
  0
LINE
  5
154
100
AcDbEntity
  8
Calque_1
 62
7
100
AcDbLine
 10
346.383779
 20
325.043509
 30
0.0
 11
330.686664
 21
325.043509
 31
0.0
  0
LINE
  5
155
100
AcDbEntity
  8
Calque_1
 62
7
100
AcDbLine
 10
330.686664
 20
325.043509
 30
0.0
 11
330.686664
 21
297.128712
 31
0.0
  0
LINE
  5
156
100
AcDbEntity
  8
Calque_1
 62
7
100
AcDbLine
 10
330.686664
 20
297.128712
 30
0.0
 11
330.686664
 21
297.128712
 31
0.0
  0
SPLINE
  5
157
100
AcDbEntity
  8
Calque_1
 62
7
100
AcDbSpline
 70
8
 71
3
 72
8
 73
4
 74
0
 40
0
 40
0
 40
0
 40
0
 40
1
 40
1
 40
1
 40
1
 10
356.402471
 20
339.121235
 30
0.0
 10
356.402471
 20
342.008989
 30
0.0
 10
355.365643
 20
344.509026
 30
0.0
 10
353.291987
 20
346.621347
 30
0.0
  0
SPLINE
  5
158
100
AcDbEntity
  8
Calque_1
 62
7
100
AcDbSpline
 70
8
 71
3
 72
8
 73
4
 74
0
 40
0
 40
0
 40
0
 40
0
 40
1
 40
1
 40
1
 40
1
 10
353.291987
 20
346.621347
 30
0.0
 10
351.242432
 20
348.733667
 30
0.0
 10
348.710645
 20
349.789827
 30
0.0
 10
345.696596
 20
349.789827
 30
0.0
  0
LINE
  5
159
100
AcDbEntity
  8
Calque_1
 62
7
100
AcDbLine
 10
345.696596
 20
349.789827
 30
0.0
 11
330.686664
 21
349.789827
 31
0.0
  0
LINE
  5
15a
100
AcDbEntity
  8
Calque_1
 62
7
100
AcDbLine
 10
330.686664
 20
349.789827
 30
0.0
 11
330.686664
 21
328.613085
 31
0.0
  0
LINE
  5
15b
100
AcDbEntity
  8
Calque_1
 62
7
100
AcDbLine
 10
330.686664
 20
328.613085
 30
0.0
 11
345.696596
 21
328.613085
 31
0.0
  0
SPLINE
  5
15c
100
AcDbEntity
  8
Calque_1
 62
7
100
AcDbSpline
 70
8
 71
3
 72
8
 73
4
 74
0
 40
0
 40
0
 40
0
 40
0
 40
1
 40
1
 40
1
 40
1
 10
345.696596
 20
328.613085
 30
0.0
 10
348.734747
 20
328.613085
 30
0.0
 10
351.278585
 20
329.629142
 30
0.0
 10
353.328139
 20
331.661255
 30
0.0
  0
SPLINE
  5
15d
100
AcDbEntity
  8
Calque_1
 62
7
100
AcDbSpline
 70
8
 71
3
 72
8
 73
4
 74
0
 40
0
 40
0
 40
0
 40
0
 40
1
 40
1
 40
1
 40
1
 10
353.328139
 20
331.661255
 30
0.0
 10
355.377694
 20
333.720094
 30
0.0
 10
356.402471
 20
336.206754
 30
0.0
 10
356.402471
 20
339.121235
 30
0.0
  0
LINE
  5
15e
100
AcDbEntity
  8
Calque_1
 62
7
100
AcDbLine
 10
356.402471
 20
339.121235
 30
0.0
 11
356.402471
 21
339.121235
 31
0.0
  0
LINE
  5
15f
100
AcDbEntity
  8
Calque_1
 62
7
100
AcDbLine
 10
327.431485
 20
353.399506
 30
0.0
 11
345.985931
 21
353.399506
 31
0.0
  0
SPLINE
  5
160
100
AcDbEntity
  8
Calque_1
 62
7
100
AcDbSpline
 70
8
 71
3
 72
8
 73
4
 74
0
 40
0
 40
0
 40
0
 40
0
 40
1
 40
1
 40
1
 40
1
 10
345.985931
 20
353.399506
 30
0.0
 10
349.747473
 20
353.399506
 30
0.0
 10
352.990573
 20
351.982384
 30
0.0
 10
355.715260
 20
349.148110
 30
0.0
  0
SPLINE
  5
161
100
AcDbEntity
  8
Calque_1
 62
7
100
AcDbSpline
 70
8
 71
3
 72
8
 73
4
 74
0
 40
0
 40
0
 40
0
 40
0
 40
1
 40
1
 40
1
 40
1
 10
355.715260
 20
349.148110
 30
0.0
 10
358.439974
 20
346.340592
 30
0.0
 10
359.802317
 20
342.971564
 30
0.0
 10
359.802317
 20
339.041027
 30
0.0
  0
SPLINE
  5
162
100
AcDbEntity
  8
Calque_1
 62
7
100
AcDbSpline
 70
8
 71
3
 72
8
 73
4
 74
0
 40
0
 40
0
 40
0
 40
0
 40
1
 40
1
 40
1
 40
1
 10
359.802317
 20
339.041027
 30
0.0
 10
359.802317
 20
336.581094
 30
0.0
 10
359.211570
 20
334.308358
 30
0.0
 10
358.030046
 20
332.222764
 30
0.0
  0
SPLINE
  5
163
100
AcDbEntity
  8
Calque_1
 62
7
100
AcDbSpline
 70
8
 71
3
 72
8
 73
4
 74
0
 40
0
 40
0
 40
0
 40
0
 40
1
 40
1
 40
1
 40
1
 10
358.030046
 20
332.222764
 30
0.0
 10
356.872653
 20
330.137170
 30
0.0
 10
355.305360
 20
328.452642
 30
0.0
 10
353.328139
 20
327.169208
 30
0.0
  0
SPLINE
  5
164
100
AcDbEntity
  8
Calque_1
 62
7
100
AcDbSpline
 70
8
 71
3
 72
8
 73
4
 74
0
 40
0
 40
0
 40
0
 40
0
 40
1
 40
1
 40
1
 40
1
 10
353.328139
 20
327.169208
 30
0.0
 10
356.462753
 20
325.832293
 30
0.0
 10
358.982490
 20
323.719971
 30
0.0
 10
360.887377
 20
320.832217
 30
0.0
  0
SPLINE
  5
165
100
AcDbEntity
  8
Calque_1
 62
7
100
AcDbSpline
 70
8
 71
3
 72
8
 73
4
 74
0
 40
0
 40
0
 40
0
 40
0
 40
1
 40
1
 40
1
 40
1
 10
360.887377
 20
320.832217
 30
0.0
 10
362.816366
 20
317.944491
 30
0.0
 10
363.780860
 20
314.695775
 30
0.0
 10
363.780860
 20
311.086124
 30
0.0
  0
SPLINE
  5
166
100
AcDbEntity
  8
Calque_1
 62
7
100
AcDbSpline
 70
8
 71
3
 72
8
 73
4
 74
0
 40
0
 40
0
 40
0
 40
0
 40
1
 40
1
 40
1
 40
1
 10
363.780860
 20
311.086124
 30
0.0
 10
363.780860
 20
307.904266
 30
0.0
 10
362.997186
 20
304.963031
 30
0.0
 10
361.429893
 20
302.262475
 30
0.0
  0
SPLINE
  5
167
100
AcDbEntity
  8
Calque_1
 62
7
100
AcDbSpline
 70
8
 71
3
 72
8
 73
4
 74
0
 40
0
 40
0
 40
0
 40
0
 40
1
 40
1
 40
1
 40
1
 10
361.429893
 20
302.262475
 30
0.0
 10
359.862600
 20
299.561890
 30
0.0
 10
357.740712
 20
297.422815
 30
0.0
 10
355.064229
 20
295.845278
 30
0.0
  0
SPLINE
  5
168
100
AcDbEntity
  8
Calque_1
 62
7
100
AcDbSpline
 70
8
 71
3
 72
8
 73
4
 74
0
 40
0
 40
0
 40
0
 40
0
 40
1
 40
1
 40
1
 40
1
 10
355.064229
 20
295.845278
 30
0.0
 10
352.411877
 20
294.294438
 30
0.0
 10
349.518393
 20
293.519033
 30
0.0
 10
346.383779
 20
293.519033
 30
0.0
  0
LINE
  5
169
100
AcDbEntity
  8
Calque_1
 62
7
100
AcDbLine
 10
346.383779
 20
293.519033
 30
0.0
 11
327.431485
 21
293.519033
 31
0.0
  0
LINE
  5
16a
100
AcDbEntity
  8
Calque_1
 62
7
100
AcDbLine
 10
327.431485
 20
293.519033
 30
0.0
 11
327.431485
 21
353.399506
 31
0.0
  0
LINE
  5
16b
100
AcDbEntity
  8
Calque_1
 62
7
100
AcDbLine
 10
327.431485
 20
353.399506
 30
0.0
 11
327.431485
 21
353.399506
 31
0.0
  0
SPLINE
  5
16c
100
AcDbEntity
  8
Calque_1
 62
7
100
AcDbSpline
 70
8
 71
3
 72
8
 73
4
 74
0
 40
0
 40
0
 40
0
 40
0
 40
1
 40
1
 40
1
 40
1
 10
391.341271
 20
334.829735
 30
0.0
 10
393.873059
 20
334.829735
 30
0.0
 10
396.296360
 20
334.281603
 30
0.0
 10
398.611118
 20
333.185339
 30
0.0
  0
SPLINE
  5
16d
100
AcDbEntity
  8
Calque_1
 62
7
100
AcDbSpline
 70
8
 71
3
 72
8
 73
4
 74
0
 40
0
 40
0
 40
0
 40
0
 40
1
 40
1
 40
1
 40
1
 10
398.611118
 20
333.185339
 30
0.0
 10
400.925905
 20
332.089075
 30
0.0
 10
402.927256
 20
330.605094
 30
0.0
 10
404.615114
 20
328.733397
 30
0.0
  0
SPLINE
  5
16e
100
AcDbEntity
  8
Calque_1
 62
7
100
AcDbSpline
 70
8
 71
3
 72
8
 73
4
 74
0
 40
0
 40
0
 40
0
 40
0
 40
1
 40
1
 40
1
 40
1
 10
404.615114
 20
328.733397
 30
0.0
 10
406.302972
 20
326.861727
 30
0.0
 10
407.641213
 20
324.629066
 30
0.0
 10
408.629810
 20
322.035443
 30
0.0
  0
SPLINE
  5
16f
100
AcDbEntity
  8
Calque_1
 62
7
100
AcDbSpline
 70
8
 71
3
 72
8
 73
4
 74
0
 40
0
 40
0
 40
0
 40
0
 40
1
 40
1
 40
1
 40
1
 10
408.629810
 20
322.035443
 30
0.0
 10
409.618434
 20
319.441849
 30
0.0
 10
410.112718
 20
316.727888
 30
0.0
 10
410.112718
 20
313.893643
 30
0.0
  0
SPLINE
  5
170
100
AcDbEntity
  8
Calque_1
 62
7
100
AcDbSpline
 70
8
 71
3
 72
8
 73
4
 74
0
 40
0
 40
0
 40
0
 40
0
 40
1
 40
1
 40
1
 40
1
 10
410.112718
 20
313.893643
 30
0.0
 10
410.112718
 20
311.032643
 30
0.0
 10
409.618434
 20
308.305332
 30
0.0
 10
408.629810
 20
305.711710
 30
0.0
  0
SPLINE
  5
171
100
AcDbEntity
  8
Calque_1
 62
7
100
AcDbSpline
 70
8
 71
3
 72
8
 73
4
 74
0
 40
0
 40
0
 40
0
 40
0
 40
1
 40
1
 40
1
 40
1
 10
408.629810
 20
305.711710
 30
0.0
 10
407.641213
 20
303.118088
 30
0.0
 10
406.302972
 20
300.885456
 30
0.0
 10
404.615114
 20
299.013758
 30
0.0
  0
SPLINE
  5
172
100
AcDbEntity
  8
Calque_1
 62
7
100
AcDbSpline
 70
8
 71
3
 72
8
 73
4
 74
0
 40
0
 40
0
 40
0
 40
0
 40
1
 40
1
 40
1
 40
1
 10
404.615114
 20
299.013758
 30
0.0
 10
402.927256
 20
297.168815
 30
0.0
 10
400.925905
 20
295.684834
 30
0.0
 10
398.611118
 20
294.561844
 30
0.0
  0
SPLINE
  5
173
100
AcDbEntity
  8
Calque_1
 62
7
100
AcDbSpline
 70
8
 71
3
 72
8
 73
4
 74
0
 40
0
 40
0
 40
0
 40
0
 40
1
 40
1
 40
1
 40
1
 10
398.611118
 20
294.561844
 30
0.0
 10
396.296360
 20
293.465552
 30
0.0
 10
393.873059
 20
292.917420
 30
0.0
 10
391.341271
 20
292.917420
 30
0.0
  0
SPLINE
  5
174
100
AcDbEntity
  8
Calque_1
 62
7
100
AcDbSpline
 70
8
 71
3
 72
8
 73
4
 74
0
 40
0
 40
0
 40
0
 40
0
 40
1
 40
1
 40
1
 40
1
 10
391.341271
 20
292.917420
 30
0.0
 10
386.157103
 20
292.917420
 30
0.0
 10
381.732480
 20
294.962910
 30
0.0
 10
378.067401
 20
299.053862
 30
0.0
  0
SPLINE
  5
175
100
AcDbEntity
  8
Calque_1
 62
7
100
AcDbSpline
 70
8
 71
3
 72
8
 73
4
 74
0
 40
0
 40
0
 40
0
 40
0
 40
1
 40
1
 40
1
 40
1
 10
378.067401
 20
299.053862
 30
0.0
 10
374.402322
 20
303.144843
 30
0.0
 10
372.569796
 20
308.091408
 30
0.0
 10
372.569796
 20
313.893643
 30
0.0
  0
SPLINE
  5
176
100
AcDbEntity
  8
Calque_1
 62
7
100
AcDbSpline
 70
8
 71
3
 72
8
 73
4
 74
0
 40
0
 40
0
 40
0
 40
0
 40
1
 40
1
 40
1
 40
1
 10
372.569796
 20
313.893643
 30
0.0
 10
372.569796
 20
317.690491
 30
0.0
 10
373.401675
 20
321.193208
 30
0.0
 10
375.065431
 20
324.401792
 30
0.0
  0
SPLINE
  5
177
100
AcDbEntity
  8
Calque_1
 62
7
100
AcDbSpline
 70
8
 71
3
 72
8
 73
4
 74
0
 40
0
 40
0
 40
0
 40
0
 40
1
 40
1
 40
1
 40
1
 10
375.065431
 20
324.401792
 30
0.0
 10
376.753289
 20
327.637133
 30
0.0
 10
379.031895
 20
330.177274
 30
0.0
 10
381.901277
 20
332.022217
 30
0.0
  0
SPLINE
  5
178
100
AcDbEntity
  8
Calque_1
 62
7
100
AcDbSpline
 70
8
 71
3
 72
8
 73
4
 74
0
 40
0
 40
0
 40
0
 40
0
 40
1
 40
1
 40
1
 40
1
 10
381.901277
 20
332.022217
 30
0.0
 10
384.794760
 20
333.893915
 30
0.0
 10
387.941425
 20
334.829735
 30
0.0
 10
391.341271
 20
334.829735
 30
0.0
  0
LINE
  5
179
100
AcDbEntity
  8
Calque_1
 62
7
100
AcDbLine
 10
391.341271
 20
334.829735
 30
0.0
 11
391.341271
 21
334.829735
 31
0.0
  0
SPLINE
  5
17a
100
AcDbEntity
  8
Calque_1
 62
7
100
AcDbSpline
 70
8
 71
3
 72
8
 73
4
 74
0
 40
0
 40
0
 40
0
 40
0
 40
1
 40
1
 40
1
 40
1
 10
375.788795
 20
313.893643
 30
0.0
 10
375.788795
 20
309.107464
 30
0.0
 10
377.307884
 20
305.003135
 30
0.0
 10
380.346035
 20
301.580626
 30
0.0
  0
SPLINE
  5
17b
100
AcDbEntity
  8
Calque_1
 62
7
100
AcDbSpline
 70
8
 71
3
 72
8
 73
4
 74
0
 40
0
 40
0
 40
0
 40
0
 40
1
 40
1
 40
1
 40
1
 10
380.346035
 20
301.580626
 30
0.0
 10
383.408287
 20
298.184872
 30
0.0
 10
387.097496
 20
296.486995
 30
0.0
 10
391.413605
 20
296.486995
 30
0.0
  0
SPLINE
  5
17c
100
AcDbEntity
  8
Calque_1
 62
7
100
AcDbSpline
 70
8
 71
3
 72
8
 73
4
 74
0
 40
0
 40
0
 40
0
 40
0
 40
1
 40
1
 40
1
 40
1
 10
391.413605
 20
296.486995
 30
0.0
 10
395.729714
 20
296.486995
 30
0.0
 10
399.406844
 20
298.184872
 30
0.0
 10
402.444994
 20
301.580626
 30
0.0
  0
SPLINE
  5
17d
100
AcDbEntity
  8
Calque_1
 62
7
100
AcDbSpline
 70
8
 71
3
 72
8
 73
4
 74
0
 40
0
 40
0
 40
0
 40
0
 40
1
 40
1
 40
1
 40
1
 10
402.444994
 20
301.580626
 30
0.0
 10
405.507275
 20
305.003135
 30
0.0
 10
407.038415
 20
309.107464
 30
0.0
 10
407.038415
 20
313.893643
 30
0.0
  0
SPLINE
  5
17e
100
AcDbEntity
  8
Calque_1
 62
7
100
AcDbSpline
 70
8
 71
3
 72
8
 73
4
 74
0
 40
0
 40
0
 40
0
 40
0
 40
1
 40
1
 40
1
 40
1
 10
407.038415
 20
313.893643
 30
0.0
 10
407.038415
 20
318.653067
 30
0.0
 10
405.507275
 20
322.730641
 30
0.0
 10
402.444994
 20
326.126425
 30
0.0
  0
SPLINE
  5
17f
100
AcDbEntity
  8
Calque_1
 62
7
100
AcDbSpline
 70
8
 71
3
 72
8
 73
4
 74
0
 40
0
 40
0
 40
0
 40
0
 40
1
 40
1
 40
1
 40
1
 10
402.444994
 20
326.126425
 30
0.0
 10
399.406844
 20
329.522180
 30
0.0
 10
395.729714
 20
331.220057
 30
0.0
 10
391.413605
 20
331.220057
 30
0.0
  0
SPLINE
  5
180
100
AcDbEntity
  8
Calque_1
 62
7
100
AcDbSpline
 70
8
 71
3
 72
8
 73
4
 74
0
 40
0
 40
0
 40
0
 40
0
 40
1
 40
1
 40
1
 40
1
 10
391.413605
 20
331.220057
 30
0.0
 10
387.097496
 20
331.220057
 30
0.0
 10
383.408287
 20
329.522180
 30
0.0
 10
380.346035
 20
326.126425
 30
0.0
  0
SPLINE
  5
181
100
AcDbEntity
  8
Calque_1
 62
7
100
AcDbSpline
 70
8
 71
3
 72
8
 73
4
 74
0
 40
0
 40
0
 40
0
 40
0
 40
1
 40
1
 40
1
 40
1
 10
380.346035
 20
326.126425
 30
0.0
 10
377.307884
 20
322.730641
 30
0.0
 10
375.788795
 20
318.653067
 30
0.0
 10
375.788795
 20
313.893643
 30
0.0
  0
LINE
  5
182
100
AcDbEntity
  8
Calque_1
 62
7
100
AcDbLine
 10
375.788795
 20
313.893643
 30
0.0
 11
375.788795
 21
313.893643
 31
0.0
  0
LINE
  5
183
100
AcDbEntity
  8
Calque_1
 62
7
100
AcDbLine
 10
447.800307
 20
293.519033
 30
0.0
 11
444.328155
 21
293.519033
 31
0.0
  0
SPLINE
  5
184
100
AcDbEntity
  8
Calque_1
 62
7
100
AcDbSpline
 70
8
 71
3
 72
8
 73
4
 74
0
 40
0
 40
0
 40
0
 40
0
 40
1
 40
1
 40
1
 40
1
 10
444.328155
 20
293.519033
 30
0.0
 10
443.894125
 20
295.043118
 30
0.0
 10
443.677125
 20
296.834580
 30
0.0
 10
443.677125
 20
298.893447
 30
0.0
  0
LINE
  5
185
100
AcDbEntity
  8
Calque_1
 62
7
100
AcDbLine
 10
443.677125
 20
298.893447
 30
0.0
 11
443.677125
 21
302.061928
 31
0.0
  0
SPLINE
  5
186
100
AcDbEntity
  8
Calque_1
 62
7
100
AcDbSpline
 70
8
 71
3
 72
8
 73
4
 74
0
 40
0
 40
0
 40
0
 40
0
 40
1
 40
1
 40
1
 40
1
 10
443.677125
 20
302.061928
 30
0.0
 10
441.941035
 20
299.388098
 30
0.0
 10
439.855300
 20
297.182193
 30
0.0
 10
437.419948
 20
295.444184
 30
0.0
  0
SPLINE
  5
187
100
AcDbEntity
  8
Calque_1
 62
7
100
AcDbSpline
 70
8
 71
3
 72
8
 73
4
 74
0
 40
0
 40
0
 40
0
 40
0
 40
1
 40
1
 40
1
 40
1
 10
437.419948
 20
295.444184
 30
0.0
 10
435.008726
 20
293.706203
 30
0.0
 10
432.452808
 20
292.837212
 30
0.0
 10
429.752224
 20
292.837212
 30
0.0
  0
SPLINE
  5
188
100
AcDbEntity
  8
Calque_1
 62
7
100
AcDbSpline
 70
8
 71
3
 72
8
 73
4
 74
0
 40
0
 40
0
 40
0
 40
0
 40
1
 40
1
 40
1
 40
1
 10
429.752224
 20
292.837212
 30
0.0
 10
427.799133
 20
292.837212
 30
0.0
 10
426.050992
 20
293.171448
 30
0.0
 10
424.507801
 20
293.839891
 30
0.0
  0
SPLINE
  5
189
100
AcDbEntity
  8
Calque_1
 62
7
100
AcDbSpline
 70
8
 71
3
 72
8
 73
4
 74
0
 40
0
 40
0
 40
0
 40
0
 40
1
 40
1
 40
1
 40
1
 10
424.507801
 20
293.839891
 30
0.0
 10
422.988712
 20
294.535089
 30
0.0
 10
421.783087
 20
295.444184
 30
0.0
 10
420.890954
 20
296.567202
 30
0.0
  0
SPLINE
  5
18a
100
AcDbEntity
  8
Calque_1
 62
7
100
AcDbSpline
 70
8
 71
3
 72
8
 73
4
 74
0
 40
0
 40
0
 40
0
 40
0
 40
1
 40
1
 40
1
 40
1
 10
420.890954
 20
296.567202
 30
0.0
 10
419.998793
 20
297.690221
 30
0.0
 10
419.323633
 20
298.880070
 30
0.0
 10
418.865502
 20
300.136777
 30
0.0
  0
SPLINE
  5
18b
100
AcDbEntity
  8
Calque_1
 62
7
100
AcDbSpline
 70
8
 71
3
 72
8
 73
4
 74
0
 40
0
 40
0
 40
0
 40
0
 40
1
 40
1
 40
1
 40
1
 10
418.865502
 20
300.136777
 30
0.0
 10
418.407370
 20
301.420211
 30
0.0
 10
418.178319
 20
302.717022
 30
0.0
 10
418.178319
 20
304.027210
 30
0.0
  0
SPLINE
  5
18c
100
AcDbEntity
  8
Calque_1
 62
7
100
AcDbSpline
 70
8
 71
3
 72
8
 73
4
 74
0
 40
0
 40
0
 40
0
 40
0
 40
1
 40
1
 40
1
 40
1
 10
418.178319
 20
304.027210
 30
0.0
 10
418.178319
 20
305.390852
 30
0.0
 10
418.359138
 20
306.647559
 30
0.0
 10
418.720834
 20
307.797304
 30
0.0
  0
SPLINE
  5
18d
100
AcDbEntity
  8
Calque_1
 62
7
100
AcDbSpline
 70
8
 71
3
 72
8
 73
4
 74
0
 40
0
 40
0
 40
0
 40
0
 40
1
 40
1
 40
1
 40
1
 10
418.720834
 20
307.797304
 30
0.0
 10
419.106632
 20
308.947049
 30
0.0
 10
419.588865
 20
309.923002
 30
0.0
 10
420.167562
 20
310.725134
 30
0.0
  0
SPLINE
  5
18e
100
AcDbEntity
  8
Calque_1
 62
7
100
AcDbSpline
 70
8
 71
3
 72
8
 73
4
 74
0
 40
0
 40
0
 40
0
 40
0
 40
1
 40
1
 40
1
 40
1
 10
420.167562
 20
310.725134
 30
0.0
 10
420.770389
 20
311.554021
 30
0.0
 10
421.554035
 20
312.289322
 30
0.0
 10
422.518530
 20
312.931067
 30
0.0
  0
SPLINE
  5
18f
100
AcDbEntity
  8
Calque_1
 62
7
100
AcDbSpline
 70
8
 71
3
 72
8
 73
4
 74
0
 40
0
 40
0
 40
0
 40
0
 40
1
 40
1
 40
1
 40
1
 10
422.518530
 20
312.931067
 30
0.0
 10
423.507126
 20
313.599511
 30
0.0
 10
424.447518
 20
314.134265
 30
0.0
 10
425.339679
 20
314.535360
 30
0.0
  0
SPLINE
  5
190
100
AcDbEntity
  8
Calque_1
 62
7
100
AcDbSpline
 70
8
 71
3
 72
8
 73
4
 74
0
 40
0
 40
0
 40
0
 40
0
 40
1
 40
1
 40
1
 40
1
 10
425.339679
 20
314.535360
 30
0.0
 10
426.255942
 20
314.963180
 30
0.0
 10
427.389234
 20
315.324143
 30
0.0
 10
428.739526
 20
315.618246
 30
0.0
  0
SPLINE
  5
191
100
AcDbEntity
  8
Calque_1
 62
7
100
AcDbSpline
 70
8
 71
3
 72
8
 73
4
 74
0
 40
0
 40
0
 40
0
 40
0
 40
1
 40
1
 40
1
 40
1
 10
428.739526
 20
315.618246
 30
0.0
 10
430.089818
 20
315.939133
 30
0.0
 10
431.259262
 20
316.166407
 30
0.0
 10
432.247858
 20
316.300095
 30
0.0
  0
SPLINE
  5
192
100
AcDbEntity
  8
Calque_1
 62
7
100
AcDbSpline
 70
8
 71
3
 72
8
 73
4
 74
0
 40
0
 40
0
 40
0
 40
0
 40
1
 40
1
 40
1
 40
1
 10
432.247858
 20
316.300095
 30
0.0
 10
433.236455
 20
316.460510
 30
0.0
 10
434.466182
 20
316.580850
 30
0.0
 10
435.937039
 20
316.661057
 30
0.0
  0
SPLINE
  5
193
100
AcDbEntity
  8
Calque_1
 62
7
100
AcDbSpline
 70
8
 71
3
 72
8
 73
4
 74
0
 40
0
 40
0
 40
0
 40
0
 40
1
 40
1
 40
1
 40
1
 10
435.937039
 20
316.661057
 30
0.0
 10
437.407897
 20
316.741265
 30
0.0
 10
438.565290
 20
316.781369
 30
0.0
 10
439.409219
 20
316.781369
 30
0.0
  0
SPLINE
  5
194
100
AcDbEntity
  8
Calque_1
 62
7
100
AcDbSpline
 70
8
 71
3
 72
8
 73
4
 74
0
 40
0
 40
0
 40
0
 40
0
 40
1
 40
1
 40
1
 40
1
 10
439.409219
 20
316.781369
 30
0.0
 10
440.277278
 20
316.808180
 30
0.0
 10
441.374389
 20
316.821529
 30
0.0
 10
442.700551
 20
316.821529
 30
0.0
  0
LINE
  5
195
100
AcDbEntity
  8
Calque_1
 62
7
100
AcDbLine
 10
442.700551
 20
316.821529
 30
0.0
 11
443.677125
 21
316.821529
 31
0.0
  0
SPLINE
  5
196
100
AcDbEntity
  8
Calque_1
 62
7
100
AcDbSpline
 70
8
 71
3
 72
8
 73
4
 74
0
 40
0
 40
0
 40
0
 40
0
 40
1
 40
1
 40
1
 40
1
 10
443.677125
 20
316.821529
 30
0.0
 10
443.556559
 20
321.233340
 30
0.0
 10
442.375036
 20
324.749433
 30
0.0
 10
440.132583
 20
327.369784
 30
0.0
  0
SPLINE
  5
197
100
AcDbEntity
  8
Calque_1
 62
7
100
AcDbSpline
 70
8
 71
3
 72
8
 73
4
 74
0
 40
0
 40
0
 40
0
 40
0
 40
1
 40
1
 40
1
 40
1
 10
440.132583
 20
327.369784
 30
0.0
 10
437.914260
 20
329.990160
 30
0.0
 10
435.346292
 20
331.300321
 30
0.0
 10
432.428706
 20
331.300321
 30
0.0
  0
SPLINE
  5
198
100
AcDbEntity
  8
Calque_1
 62
7
100
AcDbSpline
 70
8
 71
3
 72
8
 73
4
 74
0
 40
0
 40
0
 40
0
 40
0
 40
1
 40
1
 40
1
 40
1
 10
432.428706
 20
331.300321
 30
0.0
 10
430.716718
 20
331.300321
 30
0.0
 10
429.040911
 20
330.805670
 30
0.0
 10
427.401284
 20
329.816340
 30
0.0
  0
SPLINE
  5
199
100
AcDbEntity
  8
Calque_1
 62
7
100
AcDbSpline
 70
8
 71
3
 72
8
 73
4
 74
0
 40
0
 40
0
 40
0
 40
0
 40
1
 40
1
 40
1
 40
1
 10
427.401284
 20
329.816340
 30
0.0
 10
425.785760
 20
328.827038
 30
0.0
 10
424.375185
 20
327.383161
 30
0.0
 10
423.169560
 20
325.484737
 30
0.0
  0
LINE
  5
19a
100
AcDbEntity
  8
Calque_1
 62
7
100
AcDbLine
 10
423.169560
 20
325.484737
 30
0.0
 11
420.601592
 21
327.369784
 31
0.0
  0
SPLINE
  5
19b
100
AcDbEntity
  8
Calque_1
 62
7
100
AcDbSpline
 70
8
 71
3
 72
8
 73
4
 74
0
 40
0
 40
0
 40
0
 40
0
 40
1
 40
1
 40
1
 40
1
 10
420.601592
 20
327.369784
 30
0.0
 10
422.072449
 20
329.883198
 30
0.0
 10
423.844720
 20
331.768245
 30
0.0
 10
425.918376
 20
333.024952
 30
0.0
  0
SPLINE
  5
19c
100
AcDbEntity
  8
Calque_1
 62
7
100
AcDbSpline
 70
8
 71
3
 72
8
 73
4
 74
0
 40
0
 40
0
 40
0
 40
0
 40
1
 40
1
 40
1
 40
1
 10
425.918376
 20
333.024952
 30
0.0
 10
427.992032
 20
334.281660
 30
0.0
 10
430.162152
 20
334.909999
 30
0.0
 10
432.428706
 20
334.909999
 30
0.0
  0
SPLINE
  5
19d
100
AcDbEntity
  8
Calque_1
 62
7
100
AcDbSpline
 70
8
 71
3
 72
8
 73
4
 74
0
 40
0
 40
0
 40
0
 40
0
 40
1
 40
1
 40
1
 40
1
 10
432.428706
 20
334.909999
 30
0.0
 10
434.261232
 20
334.909999
 30
0.0
 10
436.021452
 20
334.495556
 30
0.0
 10
437.709310
 20
333.666669
 30
0.0
  0
SPLINE
  5
19e
100
AcDbEntity
  8
Calque_1
 62
7
100
AcDbSpline
 70
8
 71
3
 72
8
 73
4
 74
0
 40
0
 40
0
 40
0
 40
0
 40
1
 40
1
 40
1
 40
1
 10
437.709310
 20
333.666669
 30
0.0
 10
439.421270
 20
332.864509
 30
0.0
 10
440.952410
 20
331.714764
 30
0.0
 10
442.302702
 20
330.217434
 30
0.0
  0
SPLINE
  5
19f
100
AcDbEntity
  8
Calque_1
 62
7
100
AcDbSpline
 70
8
 71
3
 72
8
 73
4
 74
0
 40
0
 40
0
 40
0
 40
0
 40
1
 40
1
 40
1
 40
1
 10
442.302702
 20
330.217434
 30
0.0
 10
443.652995
 20
328.746830
 30
0.0
 10
444.738054
 20
326.848406
 30
0.0
 10
445.557882
 20
324.522160
 30
0.0
  0
SPLINE
  5
1a0
100
AcDbEntity
  8
Calque_1
 62
7
100
AcDbSpline
 70
8
 71
3
 72
8
 73
4
 74
0
 40
0
 40
0
 40
0
 40
0
 40
1
 40
1
 40
1
 40
1
 10
445.557882
 20
324.522160
 30
0.0
 10
446.401811
 20
322.195915
 30
0.0
 10
446.847891
 20
319.629047
 30
0.0
 10
446.896123
 20
316.821529
 30
0.0
  0
LINE
  5
1a1
100
AcDbEntity
  8
Calque_1
 62
7
100
AcDbLine
 10
446.896123
 20
316.821529
 30
0.0
 11
446.896123
 21
298.893475
 31
0.0
  0
SPLINE
  5
1a2
100
AcDbEntity
  8
Calque_1
 62
7
100
AcDbSpline
 70
8
 71
3
 72
8
 73
4
 74
0
 40
0
 40
0
 40
0
 40
0
 40
1
 40
1
 40
1
 40
1
 10
446.896123
 20
298.893475
 30
0.0
 10
446.896123
 20
296.567259
 30
0.0
 10
447.197508
 20
294.775768
 30
0.0
 10
447.800307
 20
293.519089
 30
0.0
  0
LINE
  5
1a3
100
AcDbEntity
  8
Calque_1
 62
7
100
AcDbLine
 10
447.800307
 20
293.519089
 30
0.0
 11
447.800307
 21
293.519033
 31
0.0
  0
SPLINE
  5
1a4
100
AcDbEntity
  8
Calque_1
 62
7
100
AcDbSpline
 70
8
 71
3
 72
8
 73
4
 74
0
 40
0
 40
0
 40
0
 40
0
 40
1
 40
1
 40
1
 40
1
 10
429.752224
 20
296.406787
 30
0.0
 10
432.525142
 20
296.406787
 30
0.0
 10
435.213675
 20
297.436193
 30
0.0
 10
437.817796
 20
299.495060
 30
0.0
  0
SPLINE
  5
1a5
100
AcDbEntity
  8
Calque_1
 62
7
100
AcDbSpline
 70
8
 71
3
 72
8
 73
4
 74
0
 40
0
 40
0
 40
0
 40
0
 40
1
 40
1
 40
1
 40
1
 10
437.817796
 20
299.495060
 30
0.0
 10
440.421945
 20
301.553899
 30
0.0
 10
442.375036
 20
303.906871
 30
0.0
 10
443.677125
 20
306.553974
 30
0.0
  0
LINE
  5
1a6
100
AcDbEntity
  8
Calque_1
 62
7
100
AcDbLine
 10
443.677125
 20
306.553974
 30
0.0
 11
443.677125
 21
314.254605
 31
0.0
  0
SPLINE
  5
1a7
100
AcDbEntity
  8
Calque_1
 62
7
100
AcDbSpline
 70
8
 71
3
 72
8
 73
4
 74
0
 40
0
 40
0
 40
0
 40
0
 40
1
 40
1
 40
1
 40
1
 10
443.677125
 20
314.254605
 30
0.0
 10
442.543833
 20
314.227794
 30
0.0
 10
441.591390
 20
314.201096
 30
0.0
 10
440.819794
 20
314.174397
 30
0.0
  0
SPLINE
  5
1a8
100
AcDbEntity
  8
Calque_1
 62
7
100
AcDbSpline
 70
8
 71
3
 72
8
 73
4
 74
0
 40
0
 40
0
 40
0
 40
0
 40
1
 40
1
 40
1
 40
1
 10
440.819794
 20
314.174397
 30
0.0
 10
440.072300
 20
314.147586
 30
0.0
 10
439.035472
 20
314.080813
 30
0.0
 10
437.709310
 20
313.973879
 30
0.0
  0
SPLINE
  5
1a9
100
AcDbEntity
  8
Calque_1
 62
7
100
AcDbSpline
 70
8
 71
3
 72
8
 73
4
 74
0
 40
0
 40
0
 40
0
 40
0
 40
1
 40
1
 40
1
 40
1
 10
437.709310
 20
313.973879
 30
0.0
 10
436.407250
 20
313.893671
 30
0.0
 10
435.298060
 20
313.786709
 30
0.0
 10
434.381797
 20
313.653020
 30
0.0
  0
SPLINE
  5
1aa
100
AcDbEntity
  8
Calque_1
 62
7
100
AcDbSpline
 70
8
 71
3
 72
8
 73
4
 74
0
 40
0
 40
0
 40
0
 40
0
 40
1
 40
1
 40
1
 40
1
 10
434.381797
 20
313.653020
 30
0.0
 10
433.465534
 20
313.546058
 30
0.0
 10
432.392526
 20
313.358888
 30
0.0
 10
431.162799
 20
313.091511
 30
0.0
  0
SPLINE
  5
1ab
100
AcDbEntity
  8
Calque_1
 62
7
100
AcDbSpline
 70
8
 71
3
 72
8
 73
4
 74
0
 40
0
 40
0
 40
0
 40
0
 40
1
 40
1
 40
1
 40
1
 10
431.162799
 20
313.091511
 30
0.0
 10
429.957174
 20
312.824133
 30
0.0
 10
428.932425
 20
312.516624
 30
0.0
 10
428.088467
 20
312.169039
 30
0.0
  0
SPLINE
  5
1ac
100
AcDbEntity
  8
Calque_1
 62
7
100
AcDbSpline
 70
8
 71
3
 72
8
 73
4
 74
0
 40
0
 40
0
 40
0
 40
0
 40
1
 40
1
 40
1
 40
1
 10
428.088467
 20
312.169039
 30
0.0
 10
427.244538
 20
311.848181
 30
0.0
 10
426.364456
 20
311.420360
 30
0.0
 10
425.448166
 20
310.885605
 30
0.0
  0
SPLINE
  5
1ad
100
AcDbEntity
  8
Calque_1
 62
7
100
AcDbSpline
 70
8
 71
3
 72
8
 73
4
 74
0
 40
0
 40
0
 40
0
 40
0
 40
1
 40
1
 40
1
 40
1
 10
425.448166
 20
310.885605
 30
0.0
 10
424.556033
 20
310.377577
 30
0.0
 10
423.832641
 20
309.802691
 30
0.0
 10
423.278074
 20
309.160974
 30
0.0
  0
SPLINE
  5
1ae
100
AcDbEntity
  8
Calque_1
 62
7
100
AcDbSpline
 70
8
 71
3
 72
8
 73
4
 74
0
 40
0
 40
0
 40
0
 40
0
 40
1
 40
1
 40
1
 40
1
 10
423.278074
 20
309.160974
 30
0.0
 10
422.723479
 20
308.545983
 30
0.0
 10
422.265348
 20
307.797332
 30
0.0
 10
421.903652
 20
306.914965
 30
0.0
  0
SPLINE
  5
1af
100
AcDbEntity
  8
Calque_1
 62
7
100
AcDbSpline
 70
8
 71
3
 72
8
 73
4
 74
0
 40
0
 40
0
 40
0
 40
0
 40
1
 40
1
 40
1
 40
1
 10
421.903652
 20
306.914965
 30
0.0
 10
421.566086
 20
306.032597
 30
0.0
 10
421.397317
 20
305.070021
 30
0.0
 10
421.397317
 20
304.027210
 30
0.0
  0
SPLINE
  5
1b0
100
AcDbEntity
  8
Calque_1
 62
7
100
AcDbSpline
 70
8
 71
3
 72
8
 73
4
 74
0
 40
0
 40
0
 40
0
 40
0
 40
1
 40
1
 40
1
 40
1
 10
421.397317
 20
304.027210
 30
0.0
 10
421.397317
 20
302.102060
 30
0.0
 10
422.120681
 20
300.350701
 30
0.0
 10
423.567408
 20
298.773136
 30
0.0
  0
SPLINE
  5
1b1
100
AcDbEntity
  8
Calque_1
 62
7
100
AcDbSpline
 70
8
 71
3
 72
8
 73
4
 74
0
 40
0
 40
0
 40
0
 40
0
 40
1
 40
1
 40
1
 40
1
 10
423.567408
 20
298.773136
 30
0.0
 10
425.014164
 20
297.195570
 30
0.0
 10
427.075769
 20
296.406787
 30
0.0
 10
429.752224
 20
296.406787
 30
0.0
  0
LINE
  5
1b2
100
AcDbEntity
  8
Calque_1
 62
7
100
AcDbLine
 10
429.752224
 20
296.406787
 30
0.0
 11
429.752224
 21
296.406787
 31
0.0
  0
LINE
  5
1b3
100
AcDbEntity
  8
Calque_1
 62
7
100
AcDbLine
 10
458.036027
 20
334.188018
 30
0.0
 11
461.508179
 21
334.188018
 31
0.0
  0
SPLINE
  5
1b4
100
AcDbEntity
  8
Calque_1
 62
7
100
AcDbSpline
 70
8
 71
3
 72
8
 73
4
 74
0
 40
0
 40
0
 40
0
 40
0
 40
1
 40
1
 40
1
 40
1
 10
461.508179
 20
334.188018
 30
0.0
 10
461.966338
 20
332.423283
 30
0.0
 10
462.195390
 20
330.631821
 30
0.0
 10
462.195390
 20
328.813632
 30
0.0
  0
LINE
  5
1b5
100
AcDbEntity
  8
Calque_1
 62
7
100
AcDbLine
 10
462.195390
 20
328.813632
 30
0.0
 11
462.195390
 21
323.760075
 31
0.0
  0
SPLINE
  5
1b6
100
AcDbEntity
  8
Calque_1
 62
7
100
AcDbSpline
 70
8
 71
3
 72
8
 73
4
 74
0
 40
0
 40
0
 40
0
 40
0
 40
1
 40
1
 40
1
 40
1
 10
462.195390
 20
323.760075
 30
0.0
 10
462.749985
 20
325.818944
 30
0.0
 10
464.039994
 20
327.957991
 30
0.0
 10
466.065418
 20
330.177274
 30
0.0
  0
SPLINE
  5
1b7
100
AcDbEntity
  8
Calque_1
 62
7
100
AcDbSpline
 70
8
 71
3
 72
8
 73
4
 74
0
 40
0
 40
0
 40
0
 40
0
 40
1
 40
1
 40
1
 40
1
 10
466.065418
 20
330.177274
 30
0.0
 10
468.090871
 20
332.396556
 30
0.0
 10
470.128346
 20
333.947368
 30
0.0
 10
472.177900
 20
334.829735
 30
0.0
  0
LINE
  5
1b8
100
AcDbEntity
  8
Calque_1
 62
7
100
AcDbLine
 10
472.177900
 20
334.829735
 30
0.0
 11
475.794747
 21
331.982113
 31
0.0
  0
SPLINE
  5
1b9
100
AcDbEntity
  8
Calque_1
 62
7
100
AcDbSpline
 70
8
 71
3
 72
8
 73
4
 74
0
 40
0
 40
0
 40
0
 40
0
 40
1
 40
1
 40
1
 40
1
 10
475.794747
 20
331.982113
 30
0.0
 10
473.672860
 20
331.982113
 30
0.0
 10
471.551000
 20
331.153226
 30
0.0
 10
469.429112
 20
329.495453
 30
0.0
  0
SPLINE
  5
1ba
100
AcDbEntity
  8
Calque_1
 62
7
100
AcDbSpline
 70
8
 71
3
 72
8
 73
4
 74
0
 40
0
 40
0
 40
0
 40
0
 40
1
 40
1
 40
1
 40
1
 10
469.429112
 20
329.495453
 30
0.0
 10
467.331326
 20
327.837680
 30
0.0
 10
465.595236
 20
325.631774
 30
0.0
 10
464.220842
 20
322.877707
 30
0.0
  0
SPLINE
  5
1bb
100
AcDbEntity
  8
Calque_1
 62
7
100
AcDbSpline
 70
8
 71
3
 72
8
 73
4
 74
0
 40
0
 40
0
 40
0
 40
0
 40
1
 40
1
 40
1
 40
1
 10
464.220842
 20
322.877707
 30
0.0
 10
462.870550
 20
320.150397
 30
0.0
 10
462.195390
 20
317.329501
 30
0.0
 10
462.195390
 20
314.415020
 30
0.0
  0
LINE
  5
1bc
100
AcDbEntity
  8
Calque_1
 62
7
100
AcDbLine
 10
462.195390
 20
314.415020
 30
0.0
 11
462.195390
 21
293.519033
 31
0.0
  0
LINE
  5
1bd
100
AcDbEntity
  8
Calque_1
 62
7
100
AcDbLine
 10
462.195390
 20
293.519033
 30
0.0
 11
458.940210
 21
293.519033
 31
0.0
  0
LINE
  5
1be
100
AcDbEntity
  8
Calque_1
 62
7
100
AcDbLine
 10
458.940210
 20
293.519033
 30
0.0
 11
458.940210
 21
328.813632
 31
0.0
  0
SPLINE
  5
1bf
100
AcDbEntity
  8
Calque_1
 62
7
100
AcDbSpline
 70
8
 71
3
 72
8
 73
4
 74
0
 40
0
 40
0
 40
0
 40
0
 40
1
 40
1
 40
1
 40
1
 10
458.940210
 20
328.813632
 30
0.0
 10
458.940210
 20
331.113123
 30
0.0
 10
458.638825
 20
332.904585
 30
0.0
 10
458.036027
 20
334.188018
 30
0.0
  0
LINE
  5
1c0
100
AcDbEntity
  8
Calque_1
 62
7
100
AcDbLine
 10
458.036027
 20
334.188018
 30
0.0
 11
458.036027
 21
334.188018
 31
0.0
  0
LINE
  5
1c1
100
AcDbEntity
  8
Calque_1
 62
7
100
AcDbLine
 10
515.146121
 20
293.519033
 30
0.0
 11
511.673941
 21
293.519033
 31
0.0
  0
SPLINE
  5
1c2
100
AcDbEntity
  8
Calque_1
 62
7
100
AcDbSpline
 70
8
 71
3
 72
8
 73
4
 74
0
 40
0
 40
0
 40
0
 40
0
 40
1
 40
1
 40
1
 40
1
 10
511.673941
 20
293.519033
 30
0.0
 10
511.264013
 20
295.096599
 30
0.0
 10
511.059063
 20
296.888061
 30
0.0
 10
511.059063
 20
298.893447
 30
0.0
  0
LINE
  5
1c3
100
AcDbEntity
  8
Calque_1
 62
7
100
AcDbLine
 10
511.059063
 20
298.893447
 30
0.0
 11
511.059063
 21
303.946975
 31
0.0
  0
SPLINE
  5
1c4
100
AcDbEntity
  8
Calque_1
 62
7
100
AcDbSpline
 70
8
 71
3
 72
8
 73
4
 74
0
 40
0
 40
0
 40
0
 40
0
 40
1
 40
1
 40
1
 40
1
 10
511.059063
 20
303.946975
 30
0.0
 10
510.142800
 20
301.166183
 30
0.0
 10
508.322326
 20
298.626042
 30
0.0
 10
505.597612
 20
296.326551
 30
0.0
  0
SPLINE
  5
1c5
100
AcDbEntity
  8
Calque_1
 62
7
100
AcDbSpline
 70
8
 71
3
 72
8
 73
4
 74
0
 40
0
 40
0
 40
0
 40
0
 40
1
 40
1
 40
1
 40
1
 10
505.597612
 20
296.326551
 30
0.0
 10
502.897027
 20
294.053787
 30
0.0
 10
500.184392
 20
292.917420
 30
0.0
 10
497.459706
 20
292.917420
 30
0.0
  0
SPLINE
  5
1c6
100
AcDbEntity
  8
Calque_1
 62
7
100
AcDbSpline
 70
8
 71
3
 72
8
 73
4
 74
0
 40
0
 40
0
 40
0
 40
0
 40
1
 40
1
 40
1
 40
1
 10
497.459706
 20
292.917420
 30
0.0
 10
494.397425
 20
292.917420
 30
0.0
 10
491.576275
 20
293.866618
 30
0.0
 10
488.996256
 20
295.765042
 30
0.0
  0
SPLINE
  5
1c7
100
AcDbEntity
  8
Calque_1
 62
7
100
AcDbSpline
 70
8
 71
3
 72
8
 73
4
 74
0
 40
0
 40
0
 40
0
 40
0
 40
1
 40
1
 40
1
 40
1
 10
488.996256
 20
295.765042
 30
0.0
 10
486.440367
 20
297.663466
 30
0.0
 10
484.426966
 20
300.216985
 30
0.0
 10
482.956108
 20
303.425597
 30
0.0
  0
SPLINE
  5
1c8
100
AcDbEntity
  8
Calque_1
 62
7
100
AcDbSpline
 70
8
 71
3
 72
8
 73
4
 74
0
 40
0
 40
0
 40
0
 40
0
 40
1
 40
1
 40
1
 40
1
 10
482.956108
 20
303.425597
 30
0.0
 10
481.509380
 20
306.660908
 30
0.0
 10
480.786017
 20
310.150275
 30
0.0
 10
480.786017
 20
313.893643
 30
0.0
  0
SPLINE
  5
1c9
100
AcDbEntity
  8
Calque_1
 62
7
100
AcDbSpline
 70
8
 71
3
 72
8
 73
4
 74
0
 40
0
 40
0
 40
0
 40
0
 40
1
 40
1
 40
1
 40
1
 10
480.786017
 20
313.893643
 30
0.0
 10
480.786017
 20
317.637010
 30
0.0
 10
481.509380
 20
321.099623
 30
0.0
 10
482.956108
 20
324.281481
 30
0.0
  0
SPLINE
  5
1ca
100
AcDbEntity
  8
Calque_1
 62
7
100
AcDbSpline
 70
8
 71
3
 72
8
 73
4
 74
0
 40
0
 40
0
 40
0
 40
0
 40
1
 40
1
 40
1
 40
1
 10
482.956108
 20
324.281481
 30
0.0
 10
484.426966
 20
327.490067
 30
0.0
 10
486.440367
 20
330.043585
 30
0.0
 10
488.996256
 20
331.942009
 30
0.0
  0
SPLINE
  5
1cb
100
AcDbEntity
  8
Calque_1
 62
7
100
AcDbSpline
 70
8
 71
3
 72
8
 73
4
 74
0
 40
0
 40
0
 40
0
 40
0
 40
1
 40
1
 40
1
 40
1
 10
488.996256
 20
331.942009
 30
0.0
 10
491.576275
 20
333.867160
 30
0.0
 10
494.397425
 20
334.829735
 30
0.0
 10
497.459706
 20
334.829735
 30
0.0
  0
SPLINE
  5
1cc
100
AcDbEntity
  8
Calque_1
 62
7
100
AcDbSpline
 70
8
 71
3
 72
8
 73
4
 74
0
 40
0
 40
0
 40
0
 40
0
 40
1
 40
1
 40
1
 40
1
 10
497.459706
 20
334.829735
 30
0.0
 10
500.232624
 20
334.829735
 30
0.0
 10
502.969361
 20
333.706745
 30
0.0
 10
505.669945
 20
331.460708
 30
0.0
  0
SPLINE
  5
1cd
100
AcDbEntity
  8
Calque_1
 62
7
100
AcDbSpline
 70
8
 71
3
 72
8
 73
4
 74
0
 40
0
 40
0
 40
0
 40
0
 40
1
 40
1
 40
1
 40
1
 10
505.669945
 20
331.460708
 30
0.0
 10
508.370530
 20
329.241425
 30
0.0
 10
510.166902
 20
326.674557
 30
0.0
 10
511.059063
 20
323.760075
 30
0.0
  0
LINE
  5
1ce
100
AcDbEntity
  8
Calque_1
 62
7
100
AcDbLine
 10
511.059063
 20
323.760075
 30
0.0
 11
511.059063
 21
353.399506
 31
0.0
  0
LINE
  5
1cf
100
AcDbEntity
  8
Calque_1
 62
7
100
AcDbLine
 10
511.059063
 20
353.399506
 30
0.0
 11
514.278062
 21
353.399506
 31
0.0
  0
LINE
  5
1d0
100
AcDbEntity
  8
Calque_1
 62
7
100
AcDbLine
 10
514.278062
 20
353.399506
 30
0.0
 11
514.278062
 21
298.893447
 31
0.0
  0
SPLINE
  5
1d1
100
AcDbEntity
  8
Calque_1
 62
7
100
AcDbSpline
 70
8
 71
3
 72
8
 73
4
 74
0
 40
0
 40
0
 40
0
 40
0
 40
1
 40
1
 40
1
 40
1
 10
514.278062
 20
298.893447
 30
0.0
 10
514.278062
 20
296.593957
 30
0.0
 10
514.567424
 20
294.802467
 30
0.0
 10
515.146121
 20
293.519033
 30
0.0
  0
LINE
  5
1d2
100
AcDbEntity
  8
Calque_1
 62
7
100
AcDbLine
 10
515.146121
 20
293.519033
 30
0.0
 11
515.146121
 21
293.519033
 31
0.0
  0
SPLINE
  5
1d3
100
AcDbEntity
  8
Calque_1
 62
7
100
AcDbSpline
 70
8
 71
3
 72
8
 73
4
 74
0
 40
0
 40
0
 40
0
 40
0
 40
1
 40
1
 40
1
 40
1
 10
507.008186
 20
301.580626
 30
0.0
 10
509.708771
 20
304.976408
 30
0.0
 10
511.059063
 20
309.080738
 30
0.0
 10
511.059063
 20
313.893643
 30
0.0
  0
SPLINE
  5
1d4
100
AcDbEntity
  8
Calque_1
 62
7
100
AcDbSpline
 70
8
 71
3
 72
8
 73
4
 74
0
 40
0
 40
0
 40
0
 40
0
 40
1
 40
1
 40
1
 40
1
 10
511.059063
 20
313.893643
 30
0.0
 10
511.059063
 20
318.706519
 30
0.0
 10
509.720822
 20
322.797500
 30
0.0
 10
507.044367
 20
326.166529
 30
0.0
  0
SPLINE
  5
1d5
100
AcDbEntity
  8
Calque_1
 62
7
100
AcDbSpline
 70
8
 71
3
 72
8
 73
4
 74
0
 40
0
 40
0
 40
0
 40
0
 40
1
 40
1
 40
1
 40
1
 10
507.044367
 20
326.166529
 30
0.0
 10
504.367885
 20
329.535557
 30
0.0
 10
501.173016
 20
331.220057
 30
0.0
 10
497.459706
 20
331.220057
 30
0.0
  0
SPLINE
  5
1d6
100
AcDbEntity
  8
Calque_1
 62
7
100
AcDbSpline
 70
8
 71
3
 72
8
 73
4
 74
0
 40
0
 40
0
 40
0
 40
0
 40
1
 40
1
 40
1
 40
1
 10
497.459706
 20
331.220057
 30
0.0
 10
493.770525
 20
331.220057
 30
0.0
 10
490.575628
 20
329.535557
 30
0.0
 10
487.875044
 20
326.166529
 30
0.0
  0
SPLINE
  5
1d7
100
AcDbEntity
  8
Calque_1
 62
7
100
AcDbSpline
 70
8
 71
3
 72
8
 73
4
 74
0
 40
0
 40
0
 40
0
 40
0
 40
1
 40
1
 40
1
 40
1
 10
487.875044
 20
326.166529
 30
0.0
 10
485.174459
 20
322.797500
 30
0.0
 10
483.824167
 20
318.706519
 30
0.0
 10
483.824167
 20
313.893643
 30
0.0
  0
SPLINE
  5
1d8
100
AcDbEntity
  8
Calque_1
 62
7
100
AcDbSpline
 70
8
 71
3
 72
8
 73
4
 74
0
 40
0
 40
0
 40
0
 40
0
 40
1
 40
1
 40
1
 40
1
 10
483.824167
 20
313.893643
 30
0.0
 10
483.824167
 20
309.107464
 30
0.0
 10
485.174459
 20
305.003135
 30
0.0
 10
487.875044
 20
301.580626
 30
0.0
  0
SPLINE
  5
1d9
100
AcDbEntity
  8
Calque_1
 62
7
100
AcDbSpline
 70
8
 71
3
 72
8
 73
4
 74
0
 40
0
 40
0
 40
0
 40
0
 40
1
 40
1
 40
1
 40
1
 10
487.875044
 20
301.580626
 30
0.0
 10
490.575628
 20
298.184872
 30
0.0
 10
493.770525
 20
296.486995
 30
0.0
 10
497.459706
 20
296.486995
 30
0.0
  0
SPLINE
  5
1da
100
AcDbEntity
  8
Calque_1
 62
7
100
AcDbSpline
 70
8
 71
3
 72
8
 73
4
 74
0
 40
0
 40
0
 40
0
 40
0
 40
1
 40
1
 40
1
 40
1
 10
497.459706
 20
296.486995
 30
0.0
 10
501.148886
 20
296.486995
 30
0.0
 10
504.331732
 20
298.184872
 30
0.0
 10
507.008186
 20
301.580626
 30
0.0
  0
LINE
  5
1db
100
AcDbEntity
  8
Calque_1
 62
7
100
AcDbLine
 10
507.008186
 20
301.580626
 30
0.0
 11
507.008186
 21
301.580626
 31
0.0
  0
LINE
  5
1dc
100
AcDbEntity
  8
Calque_1
 62
7
100
AcDbLine
 10
736.933897
 20
353.528510
 30
0.0
 11
723.363100
 21
360.071606
 31
0.0
  0
LINE
  5
1dd
100
AcDbEntity
  8
Calque_1
 62
7
100
AcDbLine
 10
723.363100
 20
360.071606
 30
0.0
 11
723.363100
 21
356.274984
 31
0.0
  0
LINE
  5
1de
100
AcDbEntity
  8
Calque_1
 62
7
100
AcDbLine
 10
723.363100
 20
356.274984
 30
0.0
 11
716.739232
 21
353.811240
 31
0.0
  0
LINE
  5
1df
100
AcDbEntity
  8
Calque_1
 62
7
100
AcDbLine
 10
716.739232
 20
353.811240
 30
0.0
 11
723.322686
 21
350.983994
 31
0.0
  0
LINE
  5
1e0
100
AcDbEntity
  8
Calque_1
 62
7
100
AcDbLine
 10
723.322686
 20
350.983994
 30
0.0
 11
723.322686
 21
347.631674
 31
0.0
  0
LINE
  5
1e1
100
AcDbEntity
  8
Calque_1
 62
7
100
AcDbLine
 10
723.322686
 20
347.631674
 30
0.0
 11
736.933897
 21
353.528510
 31
0.0
  0
SPLINE
  5
1e2
100
AcDbEntity
  8
Calque_1
 62
7
100
AcDbSpline
 70
8
 71
3
 72
8
 73
4
 74
0
 40
0
 40
0
 40
0
 40
0
 40
1
 40
1
 40
1
 40
1
 10
737.963811
 20
347.486273
 30
0.0
 10
736.859644
 20
347.486301
 30
0.0
 10
735.964548
 20
348.381397
 30
0.0
 10
735.964548
 20
349.485535
 30
0.0
  0
SPLINE
  5
1e3
100
AcDbEntity
  8
Calque_1
 62
7
100
AcDbSpline
 70
8
 71
3
 72
8
 73
4
 74
0
 40
0
 40
0
 40
0
 40
0
 40
1
 40
1
 40
1
 40
1
 10
735.964548
 20
349.485535
 30
0.0
 10
735.964548
 20
350.589702
 30
0.0
 10
736.859644
 20
351.484826
 30
0.0
 10
737.963811
 20
351.484826
 30
0.0
  0
SPLINE
  5
1e4
100
AcDbEntity
  8
Calque_1
 62
7
100
AcDbSpline
 70
8
 71
3
 72
8
 73
4
 74
0
 40
0
 40
0
 40
0
 40
0
 40
1
 40
1
 40
1
 40
1
 10
737.963811
 20
351.484826
 30
0.0
 10
738.494050
 20
351.484826
 30
0.0
 10
739.002586
 20
351.274175
 30
0.0
 10
739.377518
 20
350.899243
 30
0.0
  0
SPLINE
  5
1e5
100
AcDbEntity
  8
Calque_1
 62
7
100
AcDbSpline
 70
8
 71
3
 72
8
 73
4
 74
0
 40
0
 40
0
 40
0
 40
0
 40
1
 40
1
 40
1
 40
1
 10
739.377518
 20
350.899243
 30
0.0
 10
739.752450
 20
350.524311
 30
0.0
 10
739.963073
 20
350.015774
 30
0.0
 10
739.963073
 20
349.485535
 30
0.0
  0
SPLINE
  5
1e6
100
AcDbEntity
  8
Calque_1
 62
7
100
AcDbSpline
 70
8
 71
3
 72
8
 73
4
 74
0
 40
0
 40
0
 40
0
 40
0
 40
1
 40
1
 40
1
 40
1
 10
739.963073
 20
349.485535
 30
0.0
 10
739.963073
 20
348.381369
 30
0.0
 10
739.067977
 20
347.486273
 30
0.0
 10
737.963811
 20
347.486273
 30
0.0
  0
LINE
  5
1e7
100
AcDbEntity
  8
Calque_1
 62
7
100
AcDbLine
 10
737.963811
 20
347.486273
 30
0.0
 11
737.963811
 21
347.486273
 31
0.0
  0
SPLINE
  5
1e8
100
AcDbEntity
  8
Calque_1
 62
7
100
AcDbSpline
 70
8
 71
3
 72
8
 73
4
 74
0
 40
0
 40
0
 40
0
 40
0
 40
1
 40
1
 40
1
 40
1
 10
737.963811
 20
355.628751
 30
0.0
 10
736.859644
 20
355.628779
 30
0.0
 10
735.964548
 20
356.523875
 30
0.0
 10
735.964548
 20
357.628042
 30
0.0
  0
SPLINE
  5
1e9
100
AcDbEntity
  8
Calque_1
 62
7
100
AcDbSpline
 70
8
 71
3
 72
8
 73
4
 74
0
 40
0
 40
0
 40
0
 40
0
 40
1
 40
1
 40
1
 40
1
 10
735.964548
 20
357.628042
 30
0.0
 10
735.964548
 20
358.732208
 30
0.0
 10
736.859644
 20
359.627304
 30
0.0
 10
737.963811
 20
359.627304
 30
0.0
  0
SPLINE
  5
1ea
100
AcDbEntity
  8
Calque_1
 62
7
100
AcDbSpline
 70
8
 71
3
 72
8
 73
4
 74
0
 40
0
 40
0
 40
0
 40
0
 40
1
 40
1
 40
1
 40
1
 10
737.963811
 20
359.627304
 30
0.0
 10
739.067977
 20
359.627304
 30
0.0
 10
739.963073
 20
358.732208
 30
0.0
 10
739.963073
 20
357.628042
 30
0.0
  0
SPLINE
  5
1eb
100
AcDbEntity
  8
Calque_1
 62
7
100
AcDbSpline
 70
8
 71
3
 72
8
 73
4
 74
0
 40
0
 40
0
 40
0
 40
0
 40
1
 40
1
 40
1
 40
1
 10
739.963073
 20
357.628042
 30
0.0
 10
739.963073
 20
357.097802
 30
0.0
 10
739.752450
 20
356.589266
 30
0.0
 10
739.377518
 20
356.214334
 30
0.0
  0
SPLINE
  5
1ec
100
AcDbEntity
  8
Calque_1
 62
7
100
AcDbSpline
 70
8
 71
3
 72
8
 73
4
 74
0
 40
0
 40
0
 40
0
 40
0
 40
1
 40
1
 40
1
 40
1
 10
739.377518
 20
356.214334
 30
0.0
 10
739.002586
 20
355.839402
 30
0.0
 10
738.494050
 20
355.628751
 30
0.0
 10
737.963811
 20
355.628751
 30
0.0
  0
LINE
  5
1ed
100
AcDbEntity
  8
Calque_1
 62
7
100
AcDbLine
 10
737.963811
 20
355.628751
 30
0.0
 11
737.963811
 21
355.628751
 31
0.0
  0
SPLINE
  5
1ee
100
AcDbEntity
  8
Calque_1
 62
7
100
AcDbSpline
 70
8
 71
3
 72
8
 73
4
 74
0
 40
0
 40
0
 40
0
 40
0
 40
1
 40
1
 40
1
 40
1
 10
742.002749
 20
351.589812
 30
0.0
 10
741.472510
 20
351.589812
 30
0.0
 10
740.963974
 20
351.800463
 30
0.0
 10
740.589042
 20
352.175395
 30
0.0
  0
SPLINE
  5
1ef
100
AcDbEntity
  8
Calque_1
 62
7
100
AcDbSpline
 70
8
 71
3
 72
8
 73
4
 74
0
 40
0
 40
0
 40
0
 40
0
 40
1
 40
1
 40
1
 40
1
 10
740.589042
 20
352.175395
 30
0.0
 10
740.214110
 20
352.550328
 30
0.0
 10
740.003459
 20
353.058864
 30
0.0
 10
740.003459
 20
353.589103
 30
0.0
  0
SPLINE
  5
1f0
100
AcDbEntity
  8
Calque_1
 62
7
100
AcDbSpline
 70
8
 71
3
 72
8
 73
4
 74
0
 40
0
 40
0
 40
0
 40
0
 40
1
 40
1
 40
1
 40
1
 10
740.003459
 20
353.589103
 30
0.0
 10
740.003459
 20
354.119342
 30
0.0
 10
740.214110
 20
354.627878
 30
0.0
 10
740.589042
 20
355.002810
 30
0.0
  0
SPLINE
  5
1f1
100
AcDbEntity
  8
Calque_1
 62
7
100
AcDbSpline
 70
8
 71
3
 72
8
 73
4
 74
0
 40
0
 40
0
 40
0
 40
0
 40
1
 40
1
 40
1
 40
1
 10
740.589042
 20
355.002810
 30
0.0
 10
740.963974
 20
355.377743
 30
0.0
 10
741.472510
 20
355.588393
 30
0.0
 10
742.002749
 20
355.588365
 30
0.0
  0
SPLINE
  5
1f2
100
AcDbEntity
  8
Calque_1
 62
7
100
AcDbSpline
 70
8
 71
3
 72
8
 73
4
 74
0
 40
0
 40
0
 40
0
 40
0
 40
1
 40
1
 40
1
 40
1
 10
742.002749
 20
355.588365
 30
0.0
 10
742.532988
 20
355.588393
 30
0.0
 10
743.041525
 20
355.377743
 30
0.0
 10
743.416457
 20
355.002810
 30
0.0
  0
SPLINE
  5
1f3
100
AcDbEntity
  8
Calque_1
 62
7
100
AcDbSpline
 70
8
 71
3
 72
8
 73
4
 74
0
 40
0
 40
0
 40
0
 40
0
 40
1
 40
1
 40
1
 40
1
 10
743.416457
 20
355.002810
 30
0.0
 10
743.791389
 20
354.627878
 30
0.0
 10
744.002040
 20
354.119342
 30
0.0
 10
744.002012
 20
353.589103
 30
0.0
  0
SPLINE
  5
1f4
100
AcDbEntity
  8
Calque_1
 62
7
100
AcDbSpline
 70
8
 71
3
 72
8
 73
4
 74
0
 40
0
 40
0
 40
0
 40
0
 40
1
 40
1
 40
1
 40
1
 10
744.002012
 20
353.589103
 30
0.0
 10
744.002040
 20
353.058864
 30
0.0
 10
743.791389
 20
352.550328
 30
0.0
 10
743.416457
 20
352.175395
 30
0.0
  0
SPLINE
  5
1f5
100
AcDbEntity
  8
Calque_1
 62
7
100
AcDbSpline
 70
8
 71
3
 72
8
 73
4
 74
0
 40
0
 40
0
 40
0
 40
0
 40
1
 40
1
 40
1
 40
1
 10
743.416457
 20
352.175395
 30
0.0
 10
743.041525
 20
351.800463
 30
0.0
 10
742.532988
 20
351.589812
 30
0.0
 10
742.002749
 20
351.589812
 30
0.0
  0
LINE
  5
1f6
100
AcDbEntity
  8
Calque_1
 62
7
100
AcDbLine
 10
742.002749
 20
351.589812
 30
0.0
 11
742.002749
 21
351.589812
 31
0.0
  0
LINE
  5
1f7
100
AcDbEntity
  8
Calque_1
 62
7
100
AcDbLine
 10
736.933897
 20
306.411875
 30
0.0
 11
723.363100
 21
312.954943
 31
0.0
  0
LINE
  5
1f8
100
AcDbEntity
  8
Calque_1
 62
7
100
AcDbLine
 10
723.363100
 20
312.954943
 30
0.0
 11
723.363100
 21
309.158349
 31
0.0
  0
LINE
  5
1f9
100
AcDbEntity
  8
Calque_1
 62
7
100
AcDbLine
 10
723.363100
 20
309.158349
 30
0.0
 11
716.739232
 21
306.694605
 31
0.0
  0
LINE
  5
1fa
100
AcDbEntity
  8
Calque_1
 62
7
100
AcDbLine
 10
716.739232
 20
306.694605
 30
0.0
 11
723.322686
 21
303.867360
 31
0.0
  0
LINE
  5
1fb
100
AcDbEntity
  8
Calque_1
 62
7
100
AcDbLine
 10
723.322686
 20
303.867360
 30
0.0
 11
723.322686
 21
300.515039
 31
0.0
  0
LINE
  5
1fc
100
AcDbEntity
  8
Calque_1
 62
7
100
AcDbLine
 10
723.322686
 20
300.515039
 30
0.0
 11
736.933897
 21
306.411875
 31
0.0
  0
SPLINE
  5
1fd
100
AcDbEntity
  8
Calque_1
 62
7
100
AcDbSpline
 70
8
 71
3
 72
8
 73
4
 74
0
 40
0
 40
0
 40
0
 40
0
 40
1
 40
1
 40
1
 40
1
 10
737.963811
 20
300.369639
 30
0.0
 10
736.859644
 20
300.369667
 30
0.0
 10
735.964548
 20
301.264763
 30
0.0
 10
735.964548
 20
302.368901
 30
0.0
  0
SPLINE
  5
1fe
100
AcDbEntity
  8
Calque_1
 62
7
100
AcDbSpline
 70
8
 71
3
 72
8
 73
4
 74
0
 40
0
 40
0
 40
0
 40
0
 40
1
 40
1
 40
1
 40
1
 10
735.964548
 20
302.368901
 30
0.0
 10
735.964548
 20
303.473067
 30
0.0
 10
736.859644
 20
304.368191
 30
0.0
 10
737.963811
 20
304.368191
 30
0.0
  0
SPLINE
  5
1ff
100
AcDbEntity
  8
Calque_1
 62
7
100
AcDbSpline
 70
8
 71
3
 72
8
 73
4
 74
0
 40
0
 40
0
 40
0
 40
0
 40
1
 40
1
 40
1
 40
1
 10
737.963811
 20
304.368191
 30
0.0
 10
738.494050
 20
304.368191
 30
0.0
 10
739.002586
 20
304.157541
 30
0.0
 10
739.377518
 20
303.782608
 30
0.0
  0
SPLINE
  5
200
100
AcDbEntity
  8
Calque_1
 62
7
100
AcDbSpline
 70
8
 71
3
 72
8
 73
4
 74
0
 40
0
 40
0
 40
0
 40
0
 40
1
 40
1
 40
1
 40
1
 10
739.377518
 20
303.782608
 30
0.0
 10
739.752450
 20
303.407676
 30
0.0
 10
739.963073
 20
302.899140
 30
0.0
 10
739.963073
 20
302.368901
 30
0.0
  0
SPLINE
  5
201
100
AcDbEntity
  8
Calque_1
 62
7
100
AcDbSpline
 70
8
 71
3
 72
8
 73
4
 74
0
 40
0
 40
0
 40
0
 40
0
 40
1
 40
1
 40
1
 40
1
 10
739.963073
 20
302.368901
 30
0.0
 10
739.963073
 20
301.264735
 30
0.0
 10
739.067977
 20
300.369639
 30
0.0
 10
737.963811
 20
300.369639
 30
0.0
  0
LINE
  5
202
100
AcDbEntity
  8
Calque_1
 62
7
100
AcDbLine
 10
737.963811
 20
300.369639
 30
0.0
 11
737.963811
 21
300.369639
 31
0.0
  0
SPLINE
  5
203
100
AcDbEntity
  8
Calque_1
 62
7
100
AcDbSpline
 70
8
 71
3
 72
8
 73
4
 74
0
 40
0
 40
0
 40
0
 40
0
 40
1
 40
1
 40
1
 40
1
 10
737.963811
 20
308.512117
 30
0.0
 10
736.859644
 20
308.512145
 30
0.0
 10
735.964548
 20
309.407241
 30
0.0
 10
735.964548
 20
310.511407
 30
0.0
  0
SPLINE
  5
204
100
AcDbEntity
  8
Calque_1
 62
7
100
AcDbSpline
 70
8
 71
3
 72
8
 73
4
 74
0
 40
0
 40
0
 40
0
 40
0
 40
1
 40
1
 40
1
 40
1
 10
735.964548
 20
310.511407
 30
0.0
 10
735.964548
 20
311.615573
 30
0.0
 10
736.859644
 20
312.510669
 30
0.0
 10
737.963811
 20
312.510669
 30
0.0
  0
SPLINE
  5
205
100
AcDbEntity
  8
Calque_1
 62
7
100
AcDbSpline
 70
8
 71
3
 72
8
 73
4
 74
0
 40
0
 40
0
 40
0
 40
0
 40
1
 40
1
 40
1
 40
1
 10
737.963811
 20
312.510669
 30
0.0
 10
739.067977
 20
312.510669
 30
0.0
 10
739.963073
 20
311.615573
 30
0.0
 10
739.963073
 20
310.511407
 30
0.0
  0
SPLINE
  5
206
100
AcDbEntity
  8
Calque_1
 62
7
100
AcDbSpline
 70
8
 71
3
 72
8
 73
4
 74
0
 40
0
 40
0
 40
0
 40
0
 40
1
 40
1
 40
1
 40
1
 10
739.963073
 20
310.511407
 30
0.0
 10
739.963073
 20
309.981168
 30
0.0
 10
739.752450
 20
309.472632
 30
0.0
 10
739.377518
 20
309.097699
 30
0.0
  0
SPLINE
  5
207
100
AcDbEntity
  8
Calque_1
 62
7
100
AcDbSpline
 70
8
 71
3
 72
8
 73
4
 74
0
 40
0
 40
0
 40
0
 40
0
 40
1
 40
1
 40
1
 40
1
 10
739.377518
 20
309.097699
 30
0.0
 10
739.002586
 20
308.722767
 30
0.0
 10
738.494050
 20
308.512117
 30
0.0
 10
737.963811
 20
308.512117
 30
0.0
  0
LINE
  5
208
100
AcDbEntity
  8
Calque_1
 62
7
100
AcDbLine
 10
737.963811
 20
308.512117
 30
0.0
 11
737.963811
 21
308.512117
 31
0.0
  0
SPLINE
  5
209
100
AcDbEntity
  8
Calque_1
 62
7
100
AcDbSpline
 70
8
 71
3
 72
8
 73
4
 74
0
 40
0
 40
0
 40
0
 40
0
 40
1
 40
1
 40
1
 40
1
 10
742.002749
 20
304.473178
 30
0.0
 10
741.472510
 20
304.473178
 30
0.0
 10
740.963974
 20
304.683829
 30
0.0
 10
740.589042
 20
305.058761
 30
0.0
  0
SPLINE
  5
20a
100
AcDbEntity
  8
Calque_1
 62
7
100
AcDbSpline
 70
8
 71
3
 72
8
 73
4
 74
0
 40
0
 40
0
 40
0
 40
0
 40
1
 40
1
 40
1
 40
1
 10
740.589042
 20
305.058761
 30
0.0
 10
740.214110
 20
305.433693
 30
0.0
 10
740.003459
 20
305.942229
 30
0.0
 10
740.003459
 20
306.472468
 30
0.0
  0
SPLINE
  5
20b
100
AcDbEntity
  8
Calque_1
 62
7
100
AcDbSpline
 70
8
 71
3
 72
8
 73
4
 74
0
 40
0
 40
0
 40
0
 40
0
 40
1
 40
1
 40
1
 40
1
 10
740.003459
 20
306.472468
 30
0.0
 10
740.003459
 20
307.002707
 30
0.0
 10
740.214110
 20
307.511244
 30
0.0
 10
740.589042
 20
307.886176
 30
0.0
  0
SPLINE
  5
20c
100
AcDbEntity
  8
Calque_1
 62
7
100
AcDbSpline
 70
8
 71
3
 72
8
 73
4
 74
0
 40
0
 40
0
 40
0
 40
0
 40
1
 40
1
 40
1
 40
1
 10
740.589042
 20
307.886176
 30
0.0
 10
740.963974
 20
308.261108
 30
0.0
 10
741.472510
 20
308.471731
 30
0.0
 10
742.002749
 20
308.471731
 30
0.0
  0
SPLINE
  5
20d
100
AcDbEntity
  8
Calque_1
 62
7
100
AcDbSpline
 70
8
 71
3
 72
8
 73
4
 74
0
 40
0
 40
0
 40
0
 40
0
 40
1
 40
1
 40
1
 40
1
 10
742.002749
 20
308.471731
 30
0.0
 10
742.532988
 20
308.471731
 30
0.0
 10
743.041525
 20
308.261108
 30
0.0
 10
743.416457
 20
307.886176
 30
0.0
  0
SPLINE
  5
20e
100
AcDbEntity
  8
Calque_1
 62
7
100
AcDbSpline
 70
8
 71
3
 72
8
 73
4
 74
0
 40
0
 40
0
 40
0
 40
0
 40
1
 40
1
 40
1
 40
1
 10
743.416457
 20
307.886176
 30
0.0
 10
743.791389
 20
307.511244
 30
0.0
 10
744.002040
 20
307.002707
 30
0.0
 10
744.002012
 20
306.472468
 30
0.0
  0
SPLINE
  5
20f
100
AcDbEntity
  8
Calque_1
 62
7
100
AcDbSpline
 70
8
 71
3
 72
8
 73
4
 74
0
 40
0
 40
0
 40
0
 40
0
 40
1
 40
1
 40
1
 40
1
 10
744.002012
 20
306.472468
 30
0.0
 10
744.002040
 20
305.942229
 30
0.0
 10
743.791389
 20
305.433693
 30
0.0
 10
743.416457
 20
305.058761
 30
0.0
  0
SPLINE
  5
210
100
AcDbEntity
  8
Calque_1
 62
7
100
AcDbSpline
 70
8
 71
3
 72
8
 73
4
 74
0
 40
0
 40
0
 40
0
 40
0
 40
1
 40
1
 40
1
 40
1
 10
743.416457
 20
305.058761
 30
0.0
 10
743.041525
 20
304.683829
 30
0.0
 10
742.532988
 20
304.473178
 30
0.0
 10
742.002749
 20
304.473178
 30
0.0
  0
LINE
  5
211
100
AcDbEntity
  8
Calque_1
 62
7
100
AcDbLine
 10
742.002749
 20
304.473178
 30
0.0
 11
742.002749
 21
304.473178
 31
0.0
  0
LINE
  5
212
100
AcDbEntity
  8
Calque_1
 62
7
100
AcDbLine
 10
747.030312
 20
329.970207
 30
0.0
 11
733.459516
 21
336.513276
 31
0.0
  0
LINE
  5
213
100
AcDbEntity
  8
Calque_1
 62
7
100
AcDbLine
 10
733.459516
 20
336.513276
 30
0.0
 11
733.459516
 21
332.716681
 31
0.0
  0
LINE
  5
214
100
AcDbEntity
  8
Calque_1
 62
7
100
AcDbLine
 10
733.459516
 20
332.716681
 30
0.0
 11
726.835647
 21
330.252909
 31
0.0
  0
LINE
  5
215
100
AcDbEntity
  8
Calque_1
 62
7
100
AcDbLine
 10
726.835647
 20
330.252909
 30
0.0
 11
733.419102
 21
327.425664
 31
0.0
  0
LINE
  5
216
100
AcDbEntity
  8
Calque_1
 62
7
100
AcDbLine
 10
733.419102
 20
327.425664
 30
0.0
 11
733.419102
 21
324.073342
 31
0.0
  0
LINE
  5
217
100
AcDbEntity
  8
Calque_1
 62
7
100
AcDbLine
 10
733.419102
 20
324.073342
 30
0.0
 11
747.030312
 21
329.970207
 31
0.0
  0
SPLINE
  5
218
100
AcDbEntity
  8
Calque_1
 62
7
100
AcDbSpline
 70
8
 71
3
 72
8
 73
4
 74
0
 40
0
 40
0
 40
0
 40
0
 40
1
 40
1
 40
1
 40
1
 10
748.060226
 20
323.927969
 30
0.0
 10
746.956060
 20
323.927969
 30
0.0
 10
746.060964
 20
324.823065
 30
0.0
 10
746.060964
 20
325.927233
 30
0.0
  0
SPLINE
  5
219
100
AcDbEntity
  8
Calque_1
 62
7
100
AcDbSpline
 70
8
 71
3
 72
8
 73
4
 74
0
 40
0
 40
0
 40
0
 40
0
 40
1
 40
1
 40
1
 40
1
 10
746.060964
 20
325.927233
 30
0.0
 10
746.060964
 20
327.031399
 30
0.0
 10
746.956060
 20
327.926495
 30
0.0
 10
748.060226
 20
327.926495
 30
0.0
  0
SPLINE
  5
21a
100
AcDbEntity
  8
Calque_1
 62
7
100
AcDbSpline
 70
8
 71
3
 72
8
 73
4
 74
0
 40
0
 40
0
 40
0
 40
0
 40
1
 40
1
 40
1
 40
1
 10
748.060226
 20
327.926495
 30
0.0
 10
748.590465
 20
327.926495
 30
0.0
 10
749.099001
 20
327.715873
 30
0.0
 10
749.473934
 20
327.340940
 30
0.0
  0
SPLINE
  5
21b
100
AcDbEntity
  8
Calque_1
 62
7
100
AcDbSpline
 70
8
 71
3
 72
8
 73
4
 74
0
 40
0
 40
0
 40
0
 40
0
 40
1
 40
1
 40
1
 40
1
 10
749.473934
 20
327.340940
 30
0.0
 10
749.848866
 20
326.965980
 30
0.0
 10
750.059516
 20
326.457472
 30
0.0
 10
750.059516
 20
325.927233
 30
0.0
  0
SPLINE
  5
21c
100
AcDbEntity
  8
Calque_1
 62
7
100
AcDbSpline
 70
8
 71
3
 72
8
 73
4
 74
0
 40
0
 40
0
 40
0
 40
0
 40
1
 40
1
 40
1
 40
1
 10
750.059516
 20
325.927233
 30
0.0
 10
750.059488
 20
324.823065
 30
0.0
 10
749.164392
 20
323.927969
 30
0.0
 10
748.060226
 20
323.927969
 30
0.0
  0
LINE
  5
21d
100
AcDbEntity
  8
Calque_1
 62
7
100
AcDbLine
 10
748.060226
 20
323.927969
 30
0.0
 11
748.060226
 21
323.927969
 31
0.0
  0
SPLINE
  5
21e
100
AcDbEntity
  8
Calque_1
 62
7
100
AcDbSpline
 70
8
 71
3
 72
8
 73
4
 74
0
 40
0
 40
0
 40
0
 40
0
 40
1
 40
1
 40
1
 40
1
 10
748.060226
 20
332.070449
 30
0.0
 10
746.956060
 20
332.070449
 30
0.0
 10
746.060964
 20
332.965545
 30
0.0
 10
746.060964
 20
334.069711
 30
0.0
  0
SPLINE
  5
21f
100
AcDbEntity
  8
Calque_1
 62
7
100
AcDbSpline
 70
8
 71
3
 72
8
 73
4
 74
0
 40
0
 40
0
 40
0
 40
0
 40
1
 40
1
 40
1
 40
1
 10
746.060964
 20
334.069711
 30
0.0
 10
746.060964
 20
335.173877
 30
0.0
 10
746.956060
 20
336.068973
 30
0.0
 10
748.060226
 20
336.068973
 30
0.0
  0
SPLINE
  5
220
100
AcDbEntity
  8
Calque_1
 62
7
100
AcDbSpline
 70
8
 71
3
 72
8
 73
4
 74
0
 40
0
 40
0
 40
0
 40
0
 40
1
 40
1
 40
1
 40
1
 10
748.060226
 20
336.068973
 30
0.0
 10
749.164392
 20
336.068973
 30
0.0
 10
750.059488
 20
335.173877
 30
0.0
 10
750.059516
 20
334.069711
 30
0.0
  0
SPLINE
  5
221
100
AcDbEntity
  8
Calque_1
 62
7
100
AcDbSpline
 70
8
 71
3
 72
8
 73
4
 74
0
 40
0
 40
0
 40
0
 40
0
 40
1
 40
1
 40
1
 40
1
 10
750.059516
 20
334.069711
 30
0.0
 10
750.059516
 20
333.539472
 30
0.0
 10
749.848866
 20
333.030964
 30
0.0
 10
749.473934
 20
332.656032
 30
0.0
  0
SPLINE
  5
222
100
AcDbEntity
  8
Calque_1
 62
7
100
AcDbSpline
 70
8
 71
3
 72
8
 73
4
 74
0
 40
0
 40
0
 40
0
 40
0
 40
1
 40
1
 40
1
 40
1
 10
749.473934
 20
332.656032
 30
0.0
 10
749.099001
 20
332.281071
 30
0.0
 10
748.590465
 20
332.070449
 30
0.0
 10
748.060226
 20
332.070449
 30
0.0
  0
LINE
  5
223
100
AcDbEntity
  8
Calque_1
 62
7
100
AcDbLine
 10
748.060226
 20
332.070449
 30
0.0
 11
748.060226
 21
332.070449
 31
0.0
  0
SPLINE
  5
224
100
AcDbEntity
  8
Calque_1
 62
7
100
AcDbSpline
 70
8
 71
3
 72
8
 73
4
 74
0
 40
0
 40
0
 40
0
 40
0
 40
1
 40
1
 40
1
 40
1
 10
752.099165
 20
328.031510
 30
0.0
 10
751.568926
 20
328.031510
 30
0.0
 10
751.060418
 20
328.242132
 30
0.0
 10
750.685457
 20
328.617093
 30
0.0
  0
SPLINE
  5
225
100
AcDbEntity
  8
Calque_1
 62
7
100
AcDbSpline
 70
8
 71
3
 72
8
 73
4
 74
0
 40
0
 40
0
 40
0
 40
0
 40
1
 40
1
 40
1
 40
1
 10
750.685457
 20
328.617093
 30
0.0
 10
750.310525
 20
328.992025
 30
0.0
 10
750.099902
 20
329.500533
 30
0.0
 10
750.099902
 20
330.030772
 30
0.0
  0
SPLINE
  5
226
100
AcDbEntity
  8
Calque_1
 62
7
100
AcDbSpline
 70
8
 71
3
 72
8
 73
4
 74
0
 40
0
 40
0
 40
0
 40
0
 40
1
 40
1
 40
1
 40
1
 10
750.099902
 20
330.030772
 30
0.0
 10
750.099902
 20
330.561040
 30
0.0
 10
750.310525
 20
331.069548
 30
0.0
 10
750.685457
 20
331.444480
 30
0.0
  0
SPLINE
  5
227
100
AcDbEntity
  8
Calque_1
 62
7
100
AcDbSpline
 70
8
 71
3
 72
8
 73
4
 74
0
 40
0
 40
0
 40
0
 40
0
 40
1
 40
1
 40
1
 40
1
 10
750.685457
 20
331.444480
 30
0.0
 10
751.060418
 20
331.819412
 30
0.0
 10
751.568926
 20
332.030063
 30
0.0
 10
752.099165
 20
332.030063
 30
0.0
  0
SPLINE
  5
228
100
AcDbEntity
  8
Calque_1
 62
7
100
AcDbSpline
 70
8
 71
3
 72
8
 73
4
 74
0
 40
0
 40
0
 40
0
 40
0
 40
1
 40
1
 40
1
 40
1
 10
752.099165
 20
332.030063
 30
0.0
 10
752.629404
 20
332.030063
 30
0.0
 10
753.137940
 20
331.819412
 30
0.0
 10
753.512872
 20
331.444480
 30
0.0
  0
SPLINE
  5
229
100
AcDbEntity
  8
Calque_1
 62
7
100
AcDbSpline
 70
8
 71
3
 72
8
 73
4
 74
0
 40
0
 40
0
 40
0
 40
0
 40
1
 40
1
 40
1
 40
1
 10
753.512872
 20
331.444480
 30
0.0
 10
753.887804
 20
331.069548
 30
0.0
 10
754.098455
 20
330.561040
 30
0.0
 10
754.098455
 20
330.030772
 30
0.0
  0
SPLINE
  5
22a
100
AcDbEntity
  8
Calque_1
 62
7
100
AcDbSpline
 70
8
 71
3
 72
8
 73
4
 74
0
 40
0
 40
0
 40
0
 40
0
 40
1
 40
1
 40
1
 40
1
 10
754.098455
 20
330.030772
 30
0.0
 10
754.098455
 20
329.500533
 30
0.0
 10
753.887804
 20
328.992025
 30
0.0
 10
753.512872
 20
328.617093
 30
0.0
  0
SPLINE
  5
22b
100
AcDbEntity
  8
Calque_1
 62
7
100
AcDbSpline
 70
8
 71
3
 72
8
 73
4
 74
0
 40
0
 40
0
 40
0
 40
0
 40
1
 40
1
 40
1
 40
1
 10
753.512872
 20
328.617093
 30
0.0
 10
753.137940
 20
328.242132
 30
0.0
 10
752.629404
 20
328.031510
 30
0.0
 10
752.099165
 20
328.031510
 30
0.0
  0
LINE
  5
22c
100
AcDbEntity
  8
Calque_1
 62
7
100
AcDbLine
 10
752.099165
 20
328.031510
 30
0.0
 11
752.099165
 21
328.031510
 31
0.0
  0
SPLINE
  5
22d
100
AcDbEntity
  8
Calque_1
 62
7
100
AcDbSpline
 70
8
 71
3
 72
8
 73
4
 74
0
 40
0
 40
0
 40
0
 40
0
 40
1
 40
1
 40
1
 40
1
 10
400.244197
 20
202.614303
 30
0.0
 10
344.523173
 20
202.614303
 30
0.0
 10
299.009308
 20
157.100412
 30
0.0
 10
299.009280
 20
101.379399
 30
0.0
  0
SPLINE
  5
22e
100
AcDbEntity
  8
Calque_1
 62
7
100
AcDbSpline
 70
8
 71
3
 72
8
 73
4
 74
0
 40
0
 40
0
 40
0
 40
0
 40
1
 40
1
 40
1
 40
1
 10
299.009280
 20
101.379399
 30
0.0
 10
299.009280
 20
45.658384
 30
0.0
 10
344.523173
 20
0.141098
 30
0.0
 10
400.244197
 20
0.141098
 30
0.0
  0
SPLINE
  5
22f
100
AcDbEntity
  8
Calque_1
 62
7
100
AcDbSpline
 70
8
 71
3
 72
8
 73
4
 74
0
 40
0
 40
0
 40
0
 40
0
 40
1
 40
1
 40
1
 40
1
 10
400.244197
 20
0.141098
 30
0.0
 10
455.965193
 20
0.141098
 30
0.0
 10
501.479086
 20
45.658384
 30
0.0
 10
501.479086
 20
101.379399
 30
0.0
  0
SPLINE
  5
230
100
AcDbEntity
  8
Calque_1
 62
7
100
AcDbSpline
 70
8
 71
3
 72
8
 73
4
 74
0
 40
0
 40
0
 40
0
 40
0
 40
1
 40
1
 40
1
 40
1
 10
501.479086
 20
101.379399
 30
0.0
 10
501.479086
 20
157.100412
 30
0.0
 10
455.965193
 20
202.614303
 30
0.0
 10
400.244197
 20
202.614303
 30
0.0
  0
LINE
  5
231
100
AcDbEntity
  8
Calque_1
 62
7
100
AcDbLine
 10
400.244197
 20
202.614303
 30
0.0
 11
400.244197
 21
202.614303
 31
0.0
  0
SPLINE
  5
232
100
AcDbEntity
  8
Calque_1
 62
7
100
AcDbSpline
 70
8
 71
3
 72
8
 73
4
 74
0
 40
0
 40
0
 40
0
 40
0
 40
1
 40
1
 40
1
 40
1
 10
400.244197
 20
170.531187
 30
0.0
 10
438.626758
 20
170.531187
 30
0.0
 10
469.399394
 20
139.761960
 30
0.0
 10
469.399394
 20
101.379399
 30
0.0
  0
SPLINE
  5
233
100
AcDbEntity
  8
Calque_1
 62
7
100
AcDbSpline
 70
8
 71
3
 72
8
 73
4
 74
0
 40
0
 40
0
 40
0
 40
0
 40
1
 40
1
 40
1
 40
1
 10
469.399394
 20
101.379399
 30
0.0
 10
469.399394
 20
62.996836
 30
0.0
 10
438.626758
 20
32.224211
 30
0.0
 10
400.244197
 20
32.224211
 30
0.0
  0
SPLINE
  5
234
100
AcDbEntity
  8
Calque_1
 62
7
100
AcDbSpline
 70
8
 71
3
 72
8
 73
4
 74
0
 40
0
 40
0
 40
0
 40
0
 40
1
 40
1
 40
1
 40
1
 10
400.244197
 20
32.224211
 30
0.0
 10
361.861608
 20
32.224211
 30
0.0
 10
331.089000
 20
62.996836
 30
0.0
 10
331.089000
 20
101.379399
 30
0.0
  0
SPLINE
  5
235
100
AcDbEntity
  8
Calque_1
 62
7
100
AcDbSpline
 70
8
 71
3
 72
8
 73
4
 74
0
 40
0
 40
0
 40
0
 40
0
 40
1
 40
1
 40
1
 40
1
 10
331.089000
 20
101.379399
 30
0.0
 10
331.089000
 20
139.761960
 30
0.0
 10
361.861608
 20
170.531187
 30
0.0
 10
400.244197
 20
170.531187
 30
0.0
  0
LINE
  5
236
100
AcDbEntity
  8
Calque_1
 62
7
100
AcDbLine
 10
400.244197
 20
170.531187
 30
0.0
 11
400.244197
 21
170.531187
 31
0.0
  0
SPLINE
  5
237
100
AcDbEntity
  8
Calque_1
 62
7
100
AcDbSpline
 70
8
 71
3
 72
8
 73
4
 74
0
 40
0
 40
0
 40
0
 40
0
 40
1
 40
1
 40
1
 40
1
 10
400.244197
 20
166.116952
 30
0.0
 10
364.611327
 20
166.116952
 30
0.0
 10
335.506624
 20
137.012247
 30
0.0
 10
335.506624
 20
101.379399
 30
0.0
  0
SPLINE
  5
238
100
AcDbEntity
  8
Calque_1
 62
7
100
AcDbSpline
 70
8
 71
3
 72
8
 73
4
 74
0
 40
0
 40
0
 40
0
 40
0
 40
1
 40
1
 40
1
 40
1
 10
335.506624
 20
101.379399
 30
0.0
 10
335.506624
 20
65.746552
 30
0.0
 10
364.611327
 20
36.638443
 30
0.0
 10
400.244197
 20
36.638443
 30
0.0
  0
SPLINE
  5
239
100
AcDbEntity
  8
Calque_1
 62
7
100
AcDbSpline
 70
8
 71
3
 72
8
 73
4
 74
0
 40
0
 40
0
 40
0
 40
0
 40
1
 40
1
 40
1
 40
1
 10
400.244197
 20
36.638443
 30
0.0
 10
435.877039
 20
36.638443
 30
0.0
 10
464.981742
 20
65.746552
 30
0.0
 10
464.981742
 20
101.379399
 30
0.0
  0
SPLINE
  5
23a
100
AcDbEntity
  8
Calque_1
 62
7
100
AcDbSpline
 70
8
 71
3
 72
8
 73
4
 74
0
 40
0
 40
0
 40
0
 40
0
 40
1
 40
1
 40
1
 40
1
 10
464.981742
 20
101.379399
 30
0.0
 10
464.981742
 20
137.012247
 30
0.0
 10
435.877039
 20
166.116952
 30
0.0
 10
400.244197
 20
166.116952
 30
0.0
  0
LINE
  5
23b
100
AcDbEntity
  8
Calque_1
 62
7
100
AcDbLine
 10
400.244197
 20
166.116952
 30
0.0
 11
400.244197
 21
166.116952
 31
0.0
  0
LINE
  5
23c
100
AcDbEntity
  8
Calque_1
 62
7
100
AcDbLine
 10
347.611333
 20
120.001742
 30
0.0
 11
354.406764
 21
115.685724
 31
0.0
  0
LINE
  5
23d
100
AcDbEntity
  8
Calque_1
 62
7
100
AcDbLine
 10
354.406764
 20
115.685724
 30
0.0
 11
353.500944
 21
114.259516
 31
0.0
  0
SPLINE
  5
23e
100
AcDbEntity
  8
Calque_1
 62
7
100
AcDbSpline
 70
8
 71
3
 72
8
 73
4
 74
0
 40
0
 40
0
 40
0
 40
0
 40
1
 40
1
 40
1
 40
1
 10
353.500944
 20
114.259516
 30
0.0
 10
351.174191
 20
110.596122
 30
0.0
 10
350.509473
 20
106.583546
 30
0.0
 10
351.506762
 20
102.221787
 30
0.0
  0
SPLINE
  5
23f
100
AcDbEntity
  8
Calque_1
 62
7
100
AcDbSpline
 70
8
 71
3
 72
8
 73
4
 74
0
 40
0
 40
0
 40
0
 40
0
 40
1
 40
1
 40
1
 40
1
 10
351.506762
 20
102.221787
 30
0.0
 10
352.549799
 20
97.870228
 30
0.0
 10
354.944962
 20
94.504435
 30
0.0
 10
358.692224
 20
92.124413
 30
0.0
  0
SPLINE
  5
240
100
AcDbEntity
  8
Calque_1
 62
7
100
AcDbSpline
 70
8
 71
3
 72
8
 73
4
 74
0
 40
0
 40
0
 40
0
 40
0
 40
1
 40
1
 40
1
 40
1
 10
358.692224
 20
92.124413
 30
0.0
 10
362.439514
 20
89.744382
 30
0.0
 10
366.490278
 20
89.016167
 30
0.0
 10
370.844459
 20
89.939770
 30
0.0
  0
SPLINE
  5
241
100
AcDbEntity
  8
Calque_1
 62
7
100
AcDbSpline
 70
8
 71
3
 72
8
 73
4
 74
0
 40
0
 40
0
 40
0
 40
0
 40
1
 40
1
 40
1
 40
1
 10
370.844459
 20
89.939770
 30
0.0
 10
375.244388
 20
90.873575
 30
0.0
 10
378.607715
 20
93.172177
 30
0.0
 10
380.934468
 20
96.835571
 30
0.0
  0
SPLINE
  5
242
100
AcDbEntity
  8
Calque_1
 62
7
100
AcDbSpline
 70
8
 71
3
 72
8
 73
4
 74
0
 40
0
 40
0
 40
0
 40
0
 40
1
 40
1
 40
1
 40
1
 10
380.934468
 20
96.835571
 30
0.0
 10
383.261221
 20
100.498965
 30
0.0
 10
383.894189
 20
104.492457
 30
0.0
 10
382.833428
 20
108.816042
 30
0.0
  0
SPLINE
  5
243
100
AcDbEntity
  8
Calque_1
 62
7
100
AcDbSpline
 70
8
 71
3
 72
8
 73
4
 74
0
 40
0
 40
0
 40
0
 40
0
 40
1
 40
1
 40
1
 40
1
 10
382.833428
 20
108.816042
 30
0.0
 10
381.818360
 20
113.149836
 30
0.0
 10
379.437194
 20
116.506747
 30
0.0
 10
375.689904
 20
118.886778
 30
0.0
  0
LINE
  5
244
100
AcDbEntity
  8
Calque_1
 62
7
100
AcDbLine
 10
375.689904
 20
118.886778
 30
0.0
 11
374.179818
 21
119.845888
 31
0.0
  0
LINE
  5
245
100
AcDbEntity
  8
Calque_1
 62
7
100
AcDbLine
 10
374.179818
 20
119.845888
 30
0.0
 11
378.282680
 21
126.305768
 31
0.0
  0
LINE
  5
246
100
AcDbEntity
  8
Calque_1
 62
7
100
AcDbLine
 10
378.282680
 20
126.305768
 30
0.0
 11
379.792794
 21
125.346659
 31
0.0
  0
SPLINE
  5
247
100
AcDbEntity
  8
Calque_1
 62
7
100
AcDbSpline
 70
8
 71
3
 72
8
 73
4
 74
0
 40
0
 40
0
 40
0
 40
0
 40
1
 40
1
 40
1
 40
1
 10
379.792794
 20
125.346659
 30
0.0
 10
382.477405
 20
123.641562
 30
0.0
 10
385.239881
 20
122.985901
 30
0.0
 10
388.080222
 20
123.379674
 30
0.0
  0
SPLINE
  5
248
100
AcDbEntity
  8
Calque_1
 62
7
100
AcDbSpline
 70
8
 71
3
 72
8
 73
4
 74
0
 40
0
 40
0
 40
0
 40
0
 40
1
 40
1
 40
1
 40
1
 10
388.080222
 20
123.379674
 30
0.0
 10
390.938286
 20
123.801421
 30
0.0
 10
393.148848
 20
125.242747
 30
0.0
 10
394.711851
 20
127.703655
 30
0.0
  0
SPLINE
  5
249
100
AcDbEntity
  8
Calque_1
 62
7
100
AcDbSpline
 70
8
 71
3
 72
8
 73
4
 74
0
 40
0
 40
0
 40
0
 40
0
 40
1
 40
1
 40
1
 40
1
 10
394.711851
 20
127.703655
 30
0.0
 10
396.345890
 20
130.276421
 30
0.0
 10
396.808452
 20
133.043804
 30
0.0
 10
396.099482
 20
136.005805
 30
0.0
  0
SPLINE
  5
24a
100
AcDbEntity
  8
Calque_1
 62
7
100
AcDbSpline
 70
8
 71
3
 72
8
 73
4
 74
0
 40
0
 40
0
 40
0
 40
0
 40
1
 40
1
 40
1
 40
1
 10
396.099482
 20
136.005805
 30
0.0
 10
395.390539
 20
138.967815
 30
0.0
 10
393.693735
 20
141.301370
 30
0.0
 10
391.009124
 20
143.006463
 30
0.0
  0
SPLINE
  5
24b
100
AcDbEntity
  8
Calque_1
 62
7
100
AcDbSpline
 70
8
 71
3
 72
8
 73
4
 74
0
 40
0
 40
0
 40
0
 40
0
 40
1
 40
1
 40
1
 40
1
 10
391.009124
 20
143.006463
 30
0.0
 10
388.324485
 20
144.711559
 30
0.0
 10
385.490974
 20
145.255356
 30
0.0
 10
382.508562
 20
144.637857
 30
0.0
  0
SPLINE
  5
24c
100
AcDbEntity
  8
Calque_1
 62
7
100
AcDbSpline
 70
8
 71
3
 72
8
 73
4
 74
0
 40
0
 40
0
 40
0
 40
0
 40
1
 40
1
 40
1
 40
1
 10
382.508562
 20
144.637857
 30
0.0
 10
379.526151
 20
144.020358
 30
0.0
 10
377.217940
 20
142.425224
 30
0.0
 10
375.583873
 20
139.852458
 30
0.0
  0
LINE
  5
24d
100
AcDbEntity
  8
Calque_1
 62
7
100
AcDbLine
 10
375.583873
 20
139.852458
 30
0.0
 11
374.731336
 21
138.510147
 31
0.0
  0
LINE
  5
24e
100
AcDbEntity
  8
Calque_1
 62
7
100
AcDbLine
 10
374.731336
 20
138.510147
 30
0.0
 11
368.061720
 21
142.746243
 31
0.0
  0
LINE
  5
24f
100
AcDbEntity
  8
Calque_1
 62
7
100
AcDbLine
 10
368.061720
 20
142.746243
 30
0.0
 11
368.914257
 21
144.088557
 31
0.0
  0
SPLINE
  5
250
100
AcDbEntity
  8
Calque_1
 62
7
100
AcDbSpline
 70
8
 71
3
 72
8
 73
4
 74
0
 40
0
 40
0
 40
0
 40
0
 40
1
 40
1
 40
1
 40
1
 10
368.914257
 20
144.088557
 30
0.0
 10
371.685030
 20
148.451074
 30
0.0
 10
375.618446
 20
151.152898
 30
0.0
 10
380.714448
 20
152.194027
 30
0.0
  0
SPLINE
  5
251
100
AcDbEntity
  8
Calque_1
 62
7
100
AcDbSpline
 70
8
 71
3
 72
8
 73
4
 74
0
 40
0
 40
0
 40
0
 40
0
 40
1
 40
1
 40
1
 40
1
 10
380.714448
 20
152.194027
 30
0.0
 10
385.838446
 20
153.217399
 30
0.0
 10
390.637635
 20
152.308172
 30
0.0
 10
395.111986
 20
149.466343
 30
0.0
  0
SPLINE
  5
252
100
AcDbEntity
  8
Calque_1
 62
7
100
AcDbSpline
 70
8
 71
3
 72
8
 73
4
 74
0
 40
0
 40
0
 40
0
 40
0
 40
1
 40
1
 40
1
 40
1
 10
395.111986
 20
149.466343
 30
0.0
 10
399.586365
 20
146.624518
 30
0.0
 10
402.421598
 20
142.684882
 30
0.0
 10
403.617684
 20
137.647436
 30
0.0
  0
SPLINE
  5
253
100
AcDbEntity
  8
Calque_1
 62
7
100
AcDbSpline
 70
8
 71
3
 72
8
 73
4
 74
0
 40
0
 40
0
 40
0
 40
0
 40
1
 40
1
 40
1
 40
1
 10
403.617684
 20
137.647436
 30
0.0
 10
404.841710
 20
132.592229
 30
0.0
 10
404.068336
 20
127.883368
 30
0.0
 10
401.297563
 20
123.520850
 30
0.0
  0
SPLINE
  5
254
100
AcDbEntity
  8
Calque_1
 62
7
100
AcDbSpline
 70
8
 71
3
 72
8
 73
4
 74
0
 40
0
 40
0
 40
0
 40
0
 40
1
 40
1
 40
1
 40
1
 10
401.297563
 20
123.520850
 30
0.0
 10
398.384691
 20
118.934615
 30
0.0
 10
394.114556
 20
116.289662
 30
0.0
 10
388.487214
 20
115.585995
 30
0.0
  0
SPLINE
  5
255
100
AcDbEntity
  8
Calque_1
 62
7
100
AcDbSpline
 70
8
 71
3
 72
8
 73
4
 74
0
 40
0
 40
0
 40
0
 40
0
 40
1
 40
1
 40
1
 40
1
 10
388.487214
 20
115.585995
 30
0.0
 10
390.276588
 20
111.977024
 30
0.0
 10
391.101947
 20
108.116933
 30
0.0
 10
390.963263
 20
104.005723
 30
0.0
  0
SPLINE
  5
256
100
AcDbEntity
  8
Calque_1
 62
7
100
AcDbSpline
 70
8
 71
3
 72
8
 73
4
 74
0
 40
0
 40
0
 40
0
 40
0
 40
1
 40
1
 40
1
 40
1
 10
390.963263
 20
104.005723
 30
0.0
 10
390.824579
 20
99.894512
 30
0.0
 10
389.662896
 20
96.119071
 30
0.0
 10
387.478270
 20
92.679394
 30
0.0
  0
SPLINE
  5
257
100
AcDbEntity
  8
Calque_1
 62
7
100
AcDbSpline
 70
8
 71
3
 72
8
 73
4
 74
0
 40
0
 40
0
 40
0
 40
0
 40
1
 40
1
 40
1
 40
1
 10
387.478270
 20
92.679394
 30
0.0
 10
385.187021
 20
89.071928
 30
0.0
 10
382.164562
 20
86.321356
 30
0.0
 10
378.410865
 20
84.427676
 30
0.0
  0
SPLINE
  5
258
100
AcDbEntity
  8
Calque_1
 62
7
100
AcDbSpline
 70
8
 71
3
 72
8
 73
4
 74
0
 40
0
 40
0
 40
0
 40
0
 40
1
 40
1
 40
1
 40
1
 10
378.410865
 20
84.427676
 30
0.0
 10
374.674892
 20
82.561973
 30
0.0
 10
370.681419
 20
81.742865
 30
0.0
 10
366.430362
 20
81.970359
 30
0.0
  0
SPLINE
  5
259
100
AcDbEntity
  8
Calque_1
 62
7
100
AcDbSpline
 70
8
 71
3
 72
8
 73
4
 74
0
 40
0
 40
0
 40
0
 40
0
 40
1
 40
1
 40
1
 40
1
 10
366.430362
 20
81.970359
 30
0.0
 10
362.179334
 20
82.197850
 30
0.0
 10
358.222127
 20
83.474968
 30
0.0
 10
354.558741
 20
85.801706
 30
0.0
  0
SPLINE
  5
25a
100
AcDbEntity
  8
Calque_1
 62
7
100
AcDbSpline
 70
8
 71
3
 72
8
 73
4
 74
0
 40
0
 40
0
 40
0
 40
0
 40
1
 40
1
 40
1
 40
1
 10
354.558741
 20
85.801706
 30
0.0
 10
348.909838
 20
89.389510
 30
0.0
 10
345.311448
 20
94.382930
 30
0.0
 10
343.763544
 20
100.781960
 30
0.0
  0
SPLINE
  5
25b
100
AcDbEntity
  8
Calque_1
 62
7
100
AcDbSpline
 70
8
 71
3
 72
8
 73
4
 74
0
 40
0
 40
0
 40
0
 40
0
 40
1
 40
1
 40
1
 40
1
 10
343.763544
 20
100.781960
 30
0.0
 10
342.243608
 20
107.163233
 30
0.0
 10
343.224245
 20
113.094424
 30
0.0
 10
346.705484
 20
118.575535
 30
0.0
  0
LINE
  5
25c
100
AcDbEntity
  8
Calque_1
 62
7
100
AcDbLine
 10
346.705484
 20
118.575535
 30
0.0
 11
347.611333
 21
120.001742
 31
0.0
  0
LINE
  5
25d
100
AcDbEntity
  8
Calque_1
 62
7
100
AcDbLine
 10
347.611333
 20
120.001742
 30
0.0
 11
347.611333
 21
120.001742
 31
0.0
  0
SPLINE
  5
25e
100
AcDbEntity
  8
Calque_1
 62
7
100
AcDbSpline
 70
8
 71
3
 72
8
 73
4
 74
0
 40
0
 40
0
 40
0
 40
0
 40
1
 40
1
 40
1
 40
1
 10
429.050224
 20
94.179349
 30
0.0
 10
426.253741
 20
95.955495
 30
0.0
 10
423.132843
 20
96.819188
 30
0.0
 10
419.687502
 20
96.770425
 30
0.0
  0
SPLINE
  5
25f
100
AcDbEntity
  8
Calque_1
 62
7
100
AcDbSpline
 70
8
 71
3
 72
8
 73
4
 74
0
 40
0
 40
0
 40
0
 40
0
 40
1
 40
1
 40
1
 40
1
 10
419.687502
 20
96.770425
 30
0.0
 10
416.270130
 20
96.703911
 30
0.0
 10
412.800207
 20
95.689616
 30
0.0
 10
409.277792
 20
93.727536
 30
0.0
  0
LINE
  5
260
100
AcDbEntity
  8
Calque_1
 62
7
100
AcDbLine
 10
409.277792
 20
93.727536
 30
0.0
 11
402.692052
 21
97.910352
 31
0.0
  0
LINE
  5
261
100
AcDbEntity
  8
Calque_1
 62
7
100
AcDbLine
 10
402.692052
 20
97.910352
 30
0.0
 11
426.351954
 21
128.859521
 31
0.0
  0
LINE
  5
262
100
AcDbEntity
  8
Calque_1
 62
7
100
AcDbLine
 10
426.351954
 20
128.859521
 30
0.0
 11
460.497033
 21
107.172835
 31
0.0
  0
LINE
  5
263
100
AcDbEntity
  8
Calque_1
 62
7
100
AcDbLine
 10
460.497033
 20
107.172835
 30
0.0
 11
454.254842
 21
102.071696
 31
0.0
  0
LINE
  5
264
100
AcDbEntity
  8
Calque_1
 62
7
100
AcDbLine
 10
454.254842
 20
102.071696
 30
0.0
 11
428.415337
 21
118.483240
 31
0.0
  0
LINE
  5
265
100
AcDbEntity
  8
Calque_1
 62
7
100
AcDbLine
 10
428.415337
 20
118.483240
 30
0.0
 11
417.550431
 21
104.250073
 31
0.0
  0
SPLINE
  5
266
100
AcDbEntity
  8
Calque_1
 62
7
100
AcDbSpline
 70
8
 71
3
 72
8
 73
4
 74
0
 40
0
 40
0
 40
0
 40
0
 40
1
 40
1
 40
1
 40
1
 10
417.550431
 20
104.250073
 30
0.0
 10
423.147575
 20
104.658971
 30
0.0
 10
428.295167
 20
103.371465
 30
0.0
 10
432.993264
 20
100.387546
 30
0.0
  0
SPLINE
  5
267
100
AcDbEntity
  8
Calque_1
 62
7
100
AcDbSpline
 70
8
 71
3
 72
8
 73
4
 74
0
 40
0
 40
0
 40
0
 40
0
 40
1
 40
1
 40
1
 40
1
 10
432.993264
 20
100.387546
 30
0.0
 10
437.076144
 20
97.794381
 30
0.0
 10
440.157362
 20
94.365675
 30
0.0
 10
442.236973
 20
90.101418
 30
0.0
  0
SPLINE
  5
268
100
AcDbEntity
  8
Calque_1
 62
7
100
AcDbSpline
 70
8
 71
3
 72
8
 73
4
 74
0
 40
0
 40
0
 40
0
 40
0
 40
1
 40
1
 40
1
 40
1
 10
442.236973
 20
90.101418
 30
0.0
 10
444.334336
 20
85.865122
 30
0.0
 10
445.228839
 20
81.372423
 30
0.0
 10
444.920483
 20
76.623318
 30
0.0
  0
SPLINE
  5
269
100
AcDbEntity
  8
Calque_1
 62
7
100
AcDbSpline
 70
8
 71
3
 72
8
 73
4
 74
0
 40
0
 40
0
 40
0
 40
0
 40
1
 40
1
 40
1
 40
1
 10
444.920483
 20
76.623318
 30
0.0
 10
444.612127
 20
71.874206
 30
0.0
 10
443.143612
 20
67.430253
 30
0.0
 10
440.514909
 20
63.291453
 30
0.0
  0
SPLINE
  5
26a
100
AcDbEntity
  8
Calque_1
 62
7
100
AcDbSpline
 70
8
 71
3
 72
8
 73
4
 74
0
 40
0
 40
0
 40
0
 40
0
 40
1
 40
1
 40
1
 40
1
 10
440.514909
 20
63.291453
 30
0.0
 10
437.886235
 20
59.152656
 30
0.0
 10
434.488110
 20
55.934241
 30
0.0
 10
430.320591
 20
53.636210
 30
0.0
  0
SPLINE
  5
26b
100
AcDbEntity
  8
Calque_1
 62
7
100
AcDbSpline
 70
8
 71
3
 72
8
 73
4
 74
0
 40
0
 40
0
 40
0
 40
0
 40
1
 40
1
 40
1
 40
1
 10
430.320591
 20
53.636210
 30
0.0
 10
426.153100
 20
51.338171
 30
0.0
 10
421.697432
 20
50.223918
 30
0.0
 10
416.953615
 20
50.293452
 30
0.0
  0
SPLINE
  5
26c
100
AcDbEntity
  8
Calque_1
 62
7
100
AcDbSpline
 70
8
 71
3
 72
8
 73
4
 74
0
 40
0
 40
0
 40
0
 40
0
 40
1
 40
1
 40
1
 40
1
 10
416.953615
 20
50.293452
 30
0.0
 10
412.227550
 20
50.390943
 30
0.0
 10
407.823077
 20
51.736271
 30
0.0
 10
403.740225
 20
54.329433
 30
0.0
  0
SPLINE
  5
26d
100
AcDbEntity
  8
Calque_1
 62
7
100
AcDbSpline
 70
8
 71
3
 72
8
 73
4
 74
0
 40
0
 40
0
 40
0
 40
0
 40
1
 40
1
 40
1
 40
1
 10
403.740225
 20
54.329433
 30
0.0
 10
398.231134
 20
57.828432
 30
0.0
 10
394.611211
 20
62.757043
 30
0.0
 10
392.880398
 20
69.115255
 30
0.0
  0
SPLINE
  5
26e
100
AcDbEntity
  8
Calque_1
 62
7
100
AcDbSpline
 70
8
 71
3
 72
8
 73
4
 74
0
 40
0
 40
0
 40
0
 40
0
 40
1
 40
1
 40
1
 40
1
 10
392.880398
 20
69.115255
 30
0.0
 10
391.167366
 20
75.501436
 30
0.0
 10
391.677708
 20
81.711708
 30
0.0
 10
394.411454
 20
87.746071
 30
0.0
  0
LINE
  5
26f
100
AcDbEntity
  8
Calque_1
 62
7
100
AcDbLine
 10
394.411454
 20
87.746071
 30
0.0
 11
395.210143
 21
89.652406
 31
0.0
  0
LINE
  5
270
100
AcDbEntity
  8
Calque_1
 62
7
100
AcDbLine
 10
395.210143
 20
89.652406
 30
0.0
 11
401.879760
 21
85.416309
 31
0.0
  0
LINE
  5
271
100
AcDbEntity
  8
Calque_1
 62
7
100
AcDbLine
 10
401.879760
 20
85.416309
 30
0.0
 11
401.290338
 21
84.024621
 31
0.0
  0
SPLINE
  5
272
100
AcDbEntity
  8
Calque_1
 62
7
100
AcDbSpline
 70
8
 71
3
 72
8
 73
4
 74
0
 40
0
 40
0
 40
0
 40
0
 40
1
 40
1
 40
1
 40
1
 10
401.290338
 20
84.024621
 30
0.0
 10
399.513044
 20
79.619784
 30
0.0
 10
399.219618
 20
75.234028
 30
0.0
 10
400.410031
 20
70.867356
 30
0.0
  0
SPLINE
  5
273
100
AcDbEntity
  8
Calque_1
 62
7
100
AcDbSpline
 70
8
 71
3
 72
8
 73
4
 74
0
 40
0
 40
0
 40
0
 40
0
 40
1
 40
1
 40
1
 40
1
 10
400.410031
 20
70.867356
 30
0.0
 10
401.646136
 20
66.510897
 30
0.0
 10
404.123878
 20
63.151530
 30
0.0
 10
407.843200
 20
60.789260
 30
0.0
  0
SPLINE
  5
274
100
AcDbEntity
  8
Calque_1
 62
7
100
AcDbSpline
 70
8
 71
3
 72
8
 73
4
 74
0
 40
0
 40
0
 40
0
 40
0
 40
1
 40
1
 40
1
 40
1
 10
407.843200
 20
60.789260
 30
0.0
 10
412.065893
 20
58.107288
 30
0.0
 10
416.722588
 20
57.406284
 30
0.0
 10
421.813313
 20
58.686255
 30
0.0
  0
SPLINE
  5
275
100
AcDbEntity
  8
Calque_1
 62
7
100
AcDbSpline
 70
8
 71
3
 72
8
 73
4
 74
0
 40
0
 40
0
 40
0
 40
0
 40
1
 40
1
 40
1
 40
1
 10
421.813313
 20
58.686255
 30
0.0
 10
426.932034
 20
59.948455
 30
0.0
 10
430.974444
 20
62.914619
 30
0.0
 10
433.940599
 20
67.584750
 30
0.0
  0
SPLINE
  5
276
100
AcDbEntity
  8
Calque_1
 62
7
100
AcDbSpline
 70
8
 71
3
 72
8
 73
4
 74
0
 40
0
 40
0
 40
0
 40
0
 40
1
 40
1
 40
1
 40
1
 10
433.940599
 20
67.584750
 30
0.0
 10
436.924535
 20
72.282844
 30
0.0
 10
437.899697
 20
77.216752
 30
0.0
 10
436.866115
 20
82.386467
 30
0.0
  0
SPLINE
  5
277
100
AcDbEntity
  8
Calque_1
 62
7
100
AcDbSpline
 70
8
 71
3
 72
8
 73
4
 74
0
 40
0
 40
0
 40
0
 40
0
 40
1
 40
1
 40
1
 40
1
 10
436.866115
 20
82.386467
 30
0.0
 10
435.878280
 20
87.566377
 30
0.0
 10
433.273002
 20
91.497320
 30
0.0
 10
429.050309
 20
94.179295
 30
0.0
  0
LINE
  5
278
100
AcDbEntity
  8
Calque_1
 62
7
100
AcDbLine
 10
429.050309
 20
94.179295
 30
0.0
 11
429.050224
 21
94.179349
 31
0.0
  0
SPLINE
  5
279
100
AcDbEntity
  8
Calque_1
 62
7
100
AcDbSpline
 70
8
 71
3
 72
8
 73
4
 74
0
 40
0
 40
0
 40
0
 40
0
 40
1
 40
1
 40
1
 40
1
 10
102.980287
 20
223.885724
 30
0.0
 10
46.195149
 20
222.749836
 30
0.0
 10
0.141111
 20
269.928359
 30
0.0
 10
0.141111
 20
326.724878
 30
0.0
  0
SPLINE
  5
27a
100
AcDbEntity
  8
Calque_1
 62
7
100
AcDbSpline
 70
8
 71
3
 72
8
 73
4
 74
0
 40
0
 40
0
 40
0
 40
0
 40
1
 40
1
 40
1
 40
1
 10
0.141111
 20
326.724878
 30
0.0
 10
0.141111
 20
383.521394
 30
0.0
 10
46.183773
 20
429.564059
 30
0.0
 10
102.980287
 20
429.564059
 30
0.0
  0
LINE
  5
27b
100
AcDbEntity
  8
Calque_1
 62
7
100
AcDbLine
 10
102.980287
 20
429.564059
 30
0.0
 11
438.878359
 21
422.833087
 31
0.0
  0
LINE
  5
27c
100
AcDbEntity
  8
Calque_1
 62
7
100
AcDbLine
 10
438.878359
 20
422.833087
 30
0.0
 11
775.893687
 21
429.564059
 31
0.0
  0
SPLINE
  5
27d
100
AcDbEntity
  8
Calque_1
 62
7
100
AcDbSpline
 70
8
 71
3
 72
8
 73
4
 74
0
 40
0
 40
0
 40
0
 40
0
 40
1
 40
1
 40
1
 40
1
 10
775.893687
 20
429.564059
 30
0.0
 10
832.905934
 20
429.564059
 30
0.0
 10
878.948599
 20
383.521366
 30
0.0
 10
878.948599
 20
326.724878
 30
0.0
  0
SPLINE
  5
27e
100
AcDbEntity
  8
Calque_1
 62
7
100
AcDbSpline
 70
8
 71
3
 72
8
 73
4
 74
0
 40
0
 40
0
 40
0
 40
0
 40
1
 40
1
 40
1
 40
1
 10
878.948599
 20
326.724878
 30
0.0
 10
878.948599
 20
269.928359
 30
0.0
 10
832.905934
 20
223.885724
 30
0.0
 10
776.109446
 20
223.885724
 30
0.0
  0
LINE
  5
27f
100
AcDbEntity
  8
Calque_1
 62
7
100
AcDbLine
 10
776.109446
 20
223.885724
 30
0.0
 11
439.479323
 21
230.616668
 31
0.0
  0
LINE
  5
280
100
AcDbEntity
  8
Calque_1
 62
7
100
AcDbLine
 10
439.479323
 20
230.616668
 30
0.0
 11
102.980287
 21
223.885724
 31
0.0
  0
SPLINE
  5
281
100
AcDbEntity
  8
Calque_1
 62
7
100
AcDbSpline
 70
8
 71
3
 72
8
 73
4
 74
0
 40
0
 40
0
 40
0
 40
0
 40
1
 40
1
 40
1
 40
1
 10
805.570229
 20
344.744117
 30
0.0
 10
805.570229
 20
344.066728
 30
0.0
 10
805.301130
 20
343.417052
 30
0.0
 10
804.822114
 20
342.938064
 30
0.0
  0
SPLINE
  5
282
100
AcDbEntity
  8
Calque_1
 62
7
100
AcDbSpline
 70
8
 71
3
 72
8
 73
4
 74
0
 40
0
 40
0
 40
0
 40
0
 40
1
 40
1
 40
1
 40
1
 10
804.822114
 20
342.938064
 30
0.0
 10
804.343126
 20
342.459077
 30
0.0
 10
803.693451
 20
342.189978
 30
0.0
 10
803.016061
 20
342.189978
 30
0.0
  0
SPLINE
  5
283
100
AcDbEntity
  8
Calque_1
 62
7
100
AcDbSpline
 70
8
 71
3
 72
8
 73
4
 74
0
 40
0
 40
0
 40
0
 40
0
 40
1
 40
1
 40
1
 40
1
 10
803.016061
 20
342.189978
 30
0.0
 10
802.338643
 20
342.189978
 30
0.0
 10
801.688996
 20
342.459077
 30
0.0
 10
801.209980
 20
342.938064
 30
0.0
  0
SPLINE
  5
284
100
AcDbEntity
  8
Calque_1
 62
7
100
AcDbSpline
 70
8
 71
3
 72
8
 73
4
 74
0
 40
0
 40
0
 40
0
 40
0
 40
1
 40
1
 40
1
 40
1
 10
801.209980
 20
342.938064
 30
0.0
 10
800.730992
 20
343.417052
 30
0.0
 10
800.461894
 20
344.066728
 30
0.0
 10
800.461894
 20
344.744117
 30
0.0
  0
SPLINE
  5
285
100
AcDbEntity
  8
Calque_1
 62
7
100
AcDbSpline
 70
8
 71
3
 72
8
 73
4
 74
0
 40
0
 40
0
 40
0
 40
0
 40
1
 40
1
 40
1
 40
1
 10
800.461894
 20
344.744117
 30
0.0
 10
800.461894
 20
345.421535
 30
0.0
 10
800.730992
 20
346.071183
 30
0.0
 10
801.209980
 20
346.550198
 30
0.0
  0
SPLINE
  5
286
100
AcDbEntity
  8
Calque_1
 62
7
100
AcDbSpline
 70
8
 71
3
 72
8
 73
4
 74
0
 40
0
 40
0
 40
0
 40
0
 40
1
 40
1
 40
1
 40
1
 10
801.209980
 20
346.550198
 30
0.0
 10
801.688996
 20
347.029186
 30
0.0
 10
802.338643
 20
347.298285
 30
0.0
 10
803.016061
 20
347.298285
 30
0.0
  0
SPLINE
  5
287
100
AcDbEntity
  8
Calque_1
 62
7
100
AcDbSpline
 70
8
 71
3
 72
8
 73
4
 74
0
 40
0
 40
0
 40
0
 40
0
 40
1
 40
1
 40
1
 40
1
 10
803.016061
 20
347.298285
 30
0.0
 10
803.693451
 20
347.298285
 30
0.0
 10
804.343126
 20
347.029186
 30
0.0
 10
804.822114
 20
346.550198
 30
0.0
  0
SPLINE
  5
288
100
AcDbEntity
  8
Calque_1
 62
7
100
AcDbSpline
 70
8
 71
3
 72
8
 73
4
 74
0
 40
0
 40
0
 40
0
 40
0
 40
1
 40
1
 40
1
 40
1
 10
804.822114
 20
346.550198
 30
0.0
 10
805.301130
 20
346.071183
 30
0.0
 10
805.570229
 20
345.421535
 30
0.0
 10
805.570229
 20
344.744117
 30
0.0
  0
LINE
  5
289
100
AcDbEntity
  8
Calque_1
 62
7
100
AcDbLine
 10
805.570229
 20
344.744117
 30
0.0
 11
805.570229
 21
344.744117
 31
0.0
  0
SPLINE
  5
28a
100
AcDbEntity
  8
Calque_1
 62
7
100
AcDbSpline
 70
8
 71
3
 72
8
 73
4
 74
0
 40
0
 40
0
 40
0
 40
0
 40
1
 40
1
 40
1
 40
1
 10
805.269718
 20
308.384975
 30
0.0
 10
805.269718
 20
307.140319
 30
0.0
 10
804.260718
 20
306.131318
 30
0.0
 10
803.016061
 20
306.131318
 30
0.0
  0
SPLINE
  5
28b
100
AcDbEntity
  8
Calque_1
 62
7
100
AcDbSpline
 70
8
 71
3
 72
8
 73
4
 74
0
 40
0
 40
0
 40
0
 40
0
 40
1
 40
1
 40
1
 40
1
 10
803.016061
 20
306.131318
 30
0.0
 10
801.771405
 20
306.131318
 30
0.0
 10
800.762376
 20
307.140319
 30
0.0
 10
800.762376
 20
308.384975
 30
0.0
  0
SPLINE
  5
28c
100
AcDbEntity
  8
Calque_1
 62
7
100
AcDbSpline
 70
8
 71
3
 72
8
 73
4
 74
0
 40
0
 40
0
 40
0
 40
0
 40
1
 40
1
 40
1
 40
1
 10
800.762376
 20
308.384975
 30
0.0
 10
800.762376
 20
308.982694
 30
0.0
 10
800.999809
 20
309.555915
 30
0.0
 10
801.422465
 20
309.978571
 30
0.0
  0
SPLINE
  5
28d
100
AcDbEntity
  8
Calque_1
 62
7
100
AcDbSpline
 70
8
 71
3
 72
8
 73
4
 74
0
 40
0
 40
0
 40
0
 40
0
 40
1
 40
1
 40
1
 40
1
 10
801.422465
 20
309.978571
 30
0.0
 10
801.845121
 20
310.401199
 30
0.0
 10
802.418343
 20
310.638661
 30
0.0
 10
803.016061
 20
310.638633
 30
0.0
  0
SPLINE
  5
28e
100
AcDbEntity
  8
Calque_1
 62
7
100
AcDbSpline
 70
8
 71
3
 72
8
 73
4
 74
0
 40
0
 40
0
 40
0
 40
0
 40
1
 40
1
 40
1
 40
1
 10
803.016061
 20
310.638633
 30
0.0
 10
804.260718
 20
310.638633
 30
0.0
 10
805.269718
 20
309.629632
 30
0.0
 10
805.269718
 20
308.384975
 30
0.0
  0
LINE
  5
28f
100
AcDbEntity
  8
Calque_1
 62
7
100
AcDbLine
 10
805.269718
 20
308.384975
 30
0.0
 11
805.269718
 21
308.384975
 31
0.0
  0
SPLINE
  5
290
100
AcDbEntity
  8
Calque_1
 62
7
100
AcDbSpline
 70
8
 71
3
 72
8
 73
4
 74
0
 40
0
 40
0
 40
0
 40
0
 40
1
 40
1
 40
1
 40
1
 10
856.052334
 20
344.744117
 30
0.0
 10
856.052334
 20
344.066728
 30
0.0
 10
855.783235
 20
343.417052
 30
0.0
 10
855.304219
 20
342.938064
 30
0.0
  0
SPLINE
  5
291
100
AcDbEntity
  8
Calque_1
 62
7
100
AcDbSpline
 70
8
 71
3
 72
8
 73
4
 74
0
 40
0
 40
0
 40
0
 40
0
 40
1
 40
1
 40
1
 40
1
 10
855.304219
 20
342.938064
 30
0.0
 10
854.825231
 20
342.459077
 30
0.0
 10
854.175584
 20
342.189978
 30
0.0
 10
853.498166
 20
342.189978
 30
0.0
  0
SPLINE
  5
292
100
AcDbEntity
  8
Calque_1
 62
7
100
AcDbSpline
 70
8
 71
3
 72
8
 73
4
 74
0
 40
0
 40
0
 40
0
 40
0
 40
1
 40
1
 40
1
 40
1
 10
853.498166
 20
342.189978
 30
0.0
 10
852.820748
 20
342.189978
 30
0.0
 10
852.171101
 20
342.459077
 30
0.0
 10
851.692113
 20
342.938064
 30
0.0
  0
SPLINE
  5
293
100
AcDbEntity
  8
Calque_1
 62
7
100
AcDbSpline
 70
8
 71
3
 72
8
 73
4
 74
0
 40
0
 40
0
 40
0
 40
0
 40
1
 40
1
 40
1
 40
1
 10
851.692113
 20
342.938064
 30
0.0
 10
851.213097
 20
343.417052
 30
0.0
 10
850.943998
 20
344.066728
 30
0.0
 10
850.943998
 20
344.744117
 30
0.0
  0
SPLINE
  5
294
100
AcDbEntity
  8
Calque_1
 62
7
100
AcDbSpline
 70
8
 71
3
 72
8
 73
4
 74
0
 40
0
 40
0
 40
0
 40
0
 40
1
 40
1
 40
1
 40
1
 10
850.943998
 20
344.744117
 30
0.0
 10
850.943998
 20
345.421535
 30
0.0
 10
851.213097
 20
346.071183
 30
0.0
 10
851.692113
 20
346.550198
 30
0.0
  0
SPLINE
  5
295
100
AcDbEntity
  8
Calque_1
 62
7
100
AcDbSpline
 70
8
 71
3
 72
8
 73
4
 74
0
 40
0
 40
0
 40
0
 40
0
 40
1
 40
1
 40
1
 40
1
 10
851.692113
 20
346.550198
 30
0.0
 10
852.171101
 20
347.029186
 30
0.0
 10
852.820748
 20
347.298285
 30
0.0
 10
853.498166
 20
347.298285
 30
0.0
  0
SPLINE
  5
296
100
AcDbEntity
  8
Calque_1
 62
7
100
AcDbSpline
 70
8
 71
3
 72
8
 73
4
 74
0
 40
0
 40
0
 40
0
 40
0
 40
1
 40
1
 40
1
 40
1
 10
853.498166
 20
347.298285
 30
0.0
 10
854.175584
 20
347.298285
 30
0.0
 10
854.825231
 20
347.029186
 30
0.0
 10
855.304219
 20
346.550198
 30
0.0
  0
SPLINE
  5
297
100
AcDbEntity
  8
Calque_1
 62
7
100
AcDbSpline
 70
8
 71
3
 72
8
 73
4
 74
0
 40
0
 40
0
 40
0
 40
0
 40
1
 40
1
 40
1
 40
1
 10
855.304219
 20
346.550198
 30
0.0
 10
855.783235
 20
346.071183
 30
0.0
 10
856.052334
 20
345.421535
 30
0.0
 10
856.052334
 20
344.744117
 30
0.0
  0
LINE
  5
298
100
AcDbEntity
  8
Calque_1
 62
7
100
AcDbLine
 10
856.052334
 20
344.744117
 30
0.0
 11
856.052334
 21
344.744117
 31
0.0
  0
SPLINE
  5
299
100
AcDbEntity
  8
Calque_1
 62
7
100
AcDbSpline
 70
8
 71
3
 72
8
 73
4
 74
0
 40
0
 40
0
 40
0
 40
0
 40
1
 40
1
 40
1
 40
1
 10
855.751823
 20
308.384975
 30
0.0
 10
855.751823
 20
307.140319
 30
0.0
 10
854.742822
 20
306.131318
 30
0.0
 10
853.498166
 20
306.131318
 30
0.0
  0
SPLINE
  5
29a
100
AcDbEntity
  8
Calque_1
 62
7
100
AcDbSpline
 70
8
 71
3
 72
8
 73
4
 74
0
 40
0
 40
0
 40
0
 40
0
 40
1
 40
1
 40
1
 40
1
 10
853.498166
 20
306.131318
 30
0.0
 10
852.253510
 20
306.131318
 30
0.0
 10
851.244509
 20
307.140319
 30
0.0
 10
851.244480
 20
308.384975
 30
0.0
  0
SPLINE
  5
29b
100
AcDbEntity
  8
Calque_1
 62
7
100
AcDbSpline
 70
8
 71
3
 72
8
 73
4
 74
0
 40
0
 40
0
 40
0
 40
0
 40
1
 40
1
 40
1
 40
1
 10
851.244480
 20
308.384975
 30
0.0
 10
851.244480
 20
308.982694
 30
0.0
 10
851.481942
 20
309.555915
 30
0.0
 10
851.904570
 20
309.978571
 30
0.0
  0
SPLINE
  5
29c
100
AcDbEntity
  8
Calque_1
 62
7
100
AcDbSpline
 70
8
 71
3
 72
8
 73
4
 74
0
 40
0
 40
0
 40
0
 40
0
 40
1
 40
1
 40
1
 40
1
 10
851.904570
 20
309.978571
 30
0.0
 10
852.327226
 20
310.401199
 30
0.0
 10
852.900448
 20
310.638661
 30
0.0
 10
853.498166
 20
310.638633
 30
0.0
  0
SPLINE
  5
29d
100
AcDbEntity
  8
Calque_1
 62
7
100
AcDbSpline
 70
8
 71
3
 72
8
 73
4
 74
0
 40
0
 40
0
 40
0
 40
0
 40
1
 40
1
 40
1
 40
1
 10
853.498166
 20
310.638633
 30
0.0
 10
854.742822
 20
310.638633
 30
0.0
 10
855.751823
 20
309.629632
 30
0.0
 10
855.751823
 20
308.384975
 30
0.0
  0
LINE
  5
29e
100
AcDbEntity
  8
Calque_1
 62
7
100
AcDbLine
 10
855.751823
 20
308.384975
 30
0.0
 11
855.751823
 21
308.384975
 31
0.0
  0
LINE
  5
29f
100
AcDbEntity
  8
Calque_1
 62
7
100
AcDbLine
 10
797.883652
 20
358.846113
 30
0.0
 11
858.630603
 21
358.846113
 31
0.0
  0
SPLINE
  5
2a0
100
AcDbEntity
  8
Calque_1
 62
7
100
AcDbSpline
 70
8
 71
3
 72
8
 73
4
 74
0
 40
0
 40
0
 40
0
 40
0
 40
1
 40
1
 40
1
 40
1
 10
858.630603
 20
358.846113
 30
0.0
 10
862.124119
 20
358.846113
 30
0.0
 10
864.936604
 20
356.033627
 30
0.0
 10
864.936604
 20
352.540111
 30
0.0
  0
LINE
  5
2a1
100
AcDbEntity
  8
Calque_1
 62
7
100
AcDbLine
 10
864.936604
 20
352.540111
 30
0.0
 11
864.936604
 21
300.889520
 31
0.0
  0
SPLINE
  5
2a2
100
AcDbEntity
  8
Calque_1
 62
7
100
AcDbSpline
 70
8
 71
3
 72
8
 73
4
 74
0
 40
0
 40
0
 40
0
 40
0
 40
1
 40
1
 40
1
 40
1
 10
864.936604
 20
300.889520
 30
0.0
 10
864.936604
 20
297.395976
 30
0.0
 10
862.124119
 20
294.583632
 30
0.0
 10
858.630603
 20
294.583632
 30
0.0
  0
LINE
  5
2a3
100
AcDbEntity
  8
Calque_1
 62
7
100
AcDbLine
 10
858.630603
 20
294.583632
 30
0.0
 11
797.883652
 21
294.583632
 31
0.0
  0
SPLINE
  5
2a4
100
AcDbEntity
  8
Calque_1
 62
7
100
AcDbSpline
 70
8
 71
3
 72
8
 73
4
 74
0
 40
0
 40
0
 40
0
 40
0
 40
1
 40
1
 40
1
 40
1
 10
797.883652
 20
294.583632
 30
0.0
 10
794.390136
 20
294.583632
 30
0.0
 10
791.577651
 20
297.395976
 30
0.0
 10
791.577651
 20
300.889520
 30
0.0
  0
LINE
  5
2a5
100
AcDbEntity
  8
Calque_1
 62
7
100
AcDbLine
 10
791.577651
 20
300.889520
 30
0.0
 11
791.577651
 21
352.540111
 31
0.0
  0
SPLINE
  5
2a6
100
AcDbEntity
  8
Calque_1
 62
7
100
AcDbSpline
 70
8
 71
3
 72
8
 73
4
 74
0
 40
0
 40
0
 40
0
 40
0
 40
1
 40
1
 40
1
 40
1
 10
791.577651
 20
352.540111
 30
0.0
 10
791.577651
 20
356.033627
 30
0.0
 10
794.390136
 20
358.846113
 30
0.0
 10
797.883652
 20
358.846113
 30
0.0
  0
LINE
  5
2a7
100
AcDbEntity
  8
Calque_1
 62
7
100
AcDbLine
 10
797.883652
 20
358.846113
 30
0.0
 11
797.883652
 21
358.846113
 31
0.0
  0
SPLINE
  5
2a8
100
AcDbEntity
  8
Calque_1
 62
7
100
AcDbSpline
 70
8
 71
3
 72
8
 73
4
 74
0
 40
0
 40
0
 40
0
 40
0
 40
1
 40
1
 40
1
 40
1
 10
28.145726
 20
344.744117
 30
0.0
 10
28.145726
 20
344.066728
 30
0.0
 10
27.876627
 20
343.417052
 30
0.0
 10
27.397631
 20
342.938064
 30
0.0
  0
SPLINE
  5
2a9
100
AcDbEntity
  8
Calque_1
 62
7
100
AcDbSpline
 70
8
 71
3
 72
8
 73
4
 74
0
 40
0
 40
0
 40
0
 40
0
 40
1
 40
1
 40
1
 40
1
 10
27.397631
 20
342.938064
 30
0.0
 10
26.918632
 20
342.459077
 30
0.0
 10
26.268971
 20
342.189978
 30
0.0
 10
25.591567
 20
342.189978
 30
0.0
  0
SPLINE
  5
2aa
100
AcDbEntity
  8
Calque_1
 62
7
100
AcDbSpline
 70
8
 71
3
 72
8
 73
4
 74
0
 40
0
 40
0
 40
0
 40
0
 40
1
 40
1
 40
1
 40
1
 10
25.591567
 20
342.189978
 30
0.0
 10
24.914160
 20
342.189978
 30
0.0
 10
24.264499
 20
342.459077
 30
0.0
 10
23.785500
 20
342.938064
 30
0.0
  0
SPLINE
  5
2ab
100
AcDbEntity
  8
Calque_1
 62
7
100
AcDbSpline
 70
8
 71
3
 72
8
 73
4
 74
0
 40
0
 40
0
 40
0
 40
0
 40
1
 40
1
 40
1
 40
1
 10
23.785500
 20
342.938064
 30
0.0
 10
23.306504
 20
343.417052
 30
0.0
 10
23.037405
 20
344.066728
 30
0.0
 10
23.037405
 20
344.744117
 30
0.0
  0
SPLINE
  5
2ac
100
AcDbEntity
  8
Calque_1
 62
7
100
AcDbSpline
 70
8
 71
3
 72
8
 73
4
 74
0
 40
0
 40
0
 40
0
 40
0
 40
1
 40
1
 40
1
 40
1
 10
23.037405
 20
344.744117
 30
0.0
 10
23.037405
 20
345.421535
 30
0.0
 10
23.306504
 20
346.071183
 30
0.0
 10
23.785500
 20
346.550198
 30
0.0
  0
SPLINE
  5
2ad
100
AcDbEntity
  8
Calque_1
 62
7
100
AcDbSpline
 70
8
 71
3
 72
8
 73
4
 74
0
 40
0
 40
0
 40
0
 40
0
 40
1
 40
1
 40
1
 40
1
 10
23.785500
 20
346.550198
 30
0.0
 10
24.264499
 20
347.029186
 30
0.0
 10
24.914160
 20
347.298285
 30
0.0
 10
25.591567
 20
347.298285
 30
0.0
  0
SPLINE
  5
2ae
100
AcDbEntity
  8
Calque_1
 62
7
100
AcDbSpline
 70
8
 71
3
 72
8
 73
4
 74
0
 40
0
 40
0
 40
0
 40
0
 40
1
 40
1
 40
1
 40
1
 10
25.591567
 20
347.298285
 30
0.0
 10
26.268971
 20
347.298285
 30
0.0
 10
26.918632
 20
347.029186
 30
0.0
 10
27.397631
 20
346.550198
 30
0.0
  0
SPLINE
  5
2af
100
AcDbEntity
  8
Calque_1
 62
7
100
AcDbSpline
 70
8
 71
3
 72
8
 73
4
 74
0
 40
0
 40
0
 40
0
 40
0
 40
1
 40
1
 40
1
 40
1
 10
27.397631
 20
346.550198
 30
0.0
 10
27.876627
 20
346.071183
 30
0.0
 10
28.145726
 20
345.421535
 30
0.0
 10
28.145726
 20
344.744117
 30
0.0
  0
LINE
  5
2b0
100
AcDbEntity
  8
Calque_1
 62
7
100
AcDbLine
 10
28.145726
 20
344.744117
 30
0.0
 11
28.145726
 21
344.744117
 31
0.0
  0
SPLINE
  5
2b1
100
AcDbEntity
  8
Calque_1
 62
7
100
AcDbSpline
 70
8
 71
3
 72
8
 73
4
 74
0
 40
0
 40
0
 40
0
 40
0
 40
1
 40
1
 40
1
 40
1
 10
27.845221
 20
308.384975
 30
0.0
 10
27.845216
 20
307.140319
 30
0.0
 10
26.836223
 20
306.131318
 30
0.0
 10
25.591567
 20
306.131318
 30
0.0
  0
SPLINE
  5
2b2
100
AcDbEntity
  8
Calque_1
 62
7
100
AcDbSpline
 70
8
 71
3
 72
8
 73
4
 74
0
 40
0
 40
0
 40
0
 40
0
 40
1
 40
1
 40
1
 40
1
 10
25.591567
 20
306.131318
 30
0.0
 10
24.346902
 20
306.131318
 30
0.0
 10
23.337898
 20
307.140319
 30
0.0
 10
23.337893
 20
308.384975
 30
0.0
  0
SPLINE
  5
2b3
100
AcDbEntity
  8
Calque_1
 62
7
100
AcDbSpline
 70
8
 71
3
 72
8
 73
4
 74
0
 40
0
 40
0
 40
0
 40
0
 40
1
 40
1
 40
1
 40
1
 10
23.337893
 20
308.384975
 30
0.0
 10
23.337890
 20
308.982694
 30
0.0
 10
23.575329
 20
309.555915
 30
0.0
 10
23.997976
 20
309.978571
 30
0.0
  0
SPLINE
  5
2b4
100
AcDbEntity
  8
Calque_1
 62
7
100
AcDbSpline
 70
8
 71
3
 72
8
 73
4
 74
0
 40
0
 40
0
 40
0
 40
0
 40
1
 40
1
 40
1
 40
1
 10
23.997976
 20
309.978571
 30
0.0
 10
24.420621
 20
310.401199
 30
0.0
 10
24.993854
 20
310.638661
 30
0.0
 10
25.591567
 20
310.638633
 30
0.0
  0
SPLINE
  5
2b5
100
AcDbEntity
  8
Calque_1
 62
7
100
AcDbSpline
 70
8
 71
3
 72
8
 73
4
 74
0
 40
0
 40
0
 40
0
 40
0
 40
1
 40
1
 40
1
 40
1
 10
25.591567
 20
310.638633
 30
0.0
 10
26.836232
 20
310.638633
 30
0.0
 10
27.845227
 20
309.629632
 30
0.0
 10
27.845221
 20
308.384975
 30
0.0
  0
LINE
  5
2b6
100
AcDbEntity
  8
Calque_1
 62
7
100
AcDbLine
 10
27.845221
 20
308.384975
 30
0.0
 11
27.845221
 21
308.384975
 31
0.0
  0
SPLINE
  5
2b7
100
AcDbEntity
  8
Calque_1
 62
7
100
AcDbSpline
 70
8
 71
3
 72
8
 73
4
 74
0
 40
0
 40
0
 40
0
 40
0
 40
1
 40
1
 40
1
 40
1
 10
78.627836
 20
344.744117
 30
0.0
 10
78.627836
 20
344.066728
 30
0.0
 10
78.358740
 20
343.417052
 30
0.0
 10
77.879742
 20
342.938064
 30
0.0
  0
SPLINE
  5
2b8
100
AcDbEntity
  8
Calque_1
 62
7
100
AcDbSpline
 70
8
 71
3
 72
8
 73
4
 74
0
 40
0
 40
0
 40
0
 40
0
 40
1
 40
1
 40
1
 40
1
 10
77.879742
 20
342.938064
 30
0.0
 10
77.400743
 20
342.459077
 30
0.0
 10
76.751081
 20
342.189978
 30
0.0
 10
76.073677
 20
342.189978
 30
0.0
  0
SPLINE
  5
2b9
100
AcDbEntity
  8
Calque_1
 62
7
100
AcDbSpline
 70
8
 71
3
 72
8
 73
4
 74
0
 40
0
 40
0
 40
0
 40
0
 40
1
 40
1
 40
1
 40
1
 10
76.073677
 20
342.189978
 30
0.0
 10
75.396271
 20
342.189978
 30
0.0
 10
74.746609
 20
342.459077
 30
0.0
 10
74.267610
 20
342.938064
 30
0.0
  0
SPLINE
  5
2ba
100
AcDbEntity
  8
Calque_1
 62
7
100
AcDbSpline
 70
8
 71
3
 72
8
 73
4
 74
0
 40
0
 40
0
 40
0
 40
0
 40
1
 40
1
 40
1
 40
1
 10
74.267610
 20
342.938064
 30
0.0
 10
73.788614
 20
343.417052
 30
0.0
 10
73.519515
 20
344.066728
 30
0.0
 10
73.519518
 20
344.744117
 30
0.0
  0
SPLINE
  5
2bb
100
AcDbEntity
  8
Calque_1
 62
7
100
AcDbSpline
 70
8
 71
3
 72
8
 73
4
 74
0
 40
0
 40
0
 40
0
 40
0
 40
1
 40
1
 40
1
 40
1
 10
73.519518
 20
344.744117
 30
0.0
 10
73.519515
 20
345.421535
 30
0.0
 10
73.788614
 20
346.071183
 30
0.0
 10
74.267610
 20
346.550198
 30
0.0
  0
SPLINE
  5
2bc
100
AcDbEntity
  8
Calque_1
 62
7
100
AcDbSpline
 70
8
 71
3
 72
8
 73
4
 74
0
 40
0
 40
0
 40
0
 40
0
 40
1
 40
1
 40
1
 40
1
 10
74.267610
 20
346.550198
 30
0.0
 10
74.746609
 20
347.029186
 30
0.0
 10
75.396271
 20
347.298285
 30
0.0
 10
76.073677
 20
347.298285
 30
0.0
  0
SPLINE
  5
2bd
100
AcDbEntity
  8
Calque_1
 62
7
100
AcDbSpline
 70
8
 71
3
 72
8
 73
4
 74
0
 40
0
 40
0
 40
0
 40
0
 40
1
 40
1
 40
1
 40
1
 10
76.073677
 20
347.298285
 30
0.0
 10
76.751081
 20
347.298285
 30
0.0
 10
77.400743
 20
347.029186
 30
0.0
 10
77.879742
 20
346.550198
 30
0.0
  0
SPLINE
  5
2be
100
AcDbEntity
  8
Calque_1
 62
7
100
AcDbSpline
 70
8
 71
3
 72
8
 73
4
 74
0
 40
0
 40
0
 40
0
 40
0
 40
1
 40
1
 40
1
 40
1
 10
77.879742
 20
346.550198
 30
0.0
 10
78.358740
 20
346.071183
 30
0.0
 10
78.627836
 20
345.421535
 30
0.0
 10
78.627836
 20
344.744117
 30
0.0
  0
LINE
  5
2bf
100
AcDbEntity
  8
Calque_1
 62
7
100
AcDbLine
 10
78.627836
 20
344.744117
 30
0.0
 11
78.627836
 21
344.744117
 31
0.0
  0
SPLINE
  5
2c0
100
AcDbEntity
  8
Calque_1
 62
7
100
AcDbSpline
 70
8
 71
3
 72
8
 73
4
 74
0
 40
0
 40
0
 40
0
 40
0
 40
1
 40
1
 40
1
 40
1
 10
78.327332
 20
308.384975
 30
0.0
 10
78.327326
 20
307.140319
 30
0.0
 10
77.318334
 20
306.131318
 30
0.0
 10
76.073677
 20
306.131318
 30
0.0
  0
SPLINE
  5
2c1
100
AcDbEntity
  8
Calque_1
 62
7
100
AcDbSpline
 70
8
 71
3
 72
8
 73
4
 74
0
 40
0
 40
0
 40
0
 40
0
 40
1
 40
1
 40
1
 40
1
 10
76.073677
 20
306.131318
 30
0.0
 10
74.829012
 20
306.131318
 30
0.0
 10
73.820009
 20
307.140319
 30
0.0
 10
73.820003
 20
308.384975
 30
0.0
  0
SPLINE
  5
2c2
100
AcDbEntity
  8
Calque_1
 62
7
100
AcDbSpline
 70
8
 71
3
 72
8
 73
4
 74
0
 40
0
 40
0
 40
0
 40
0
 40
1
 40
1
 40
1
 40
1
 10
73.820003
 20
308.384975
 30
0.0
 10
73.820000
 20
308.982694
 30
0.0
 10
74.057442
 20
309.555915
 30
0.0
 10
74.480087
 20
309.978571
 30
0.0
  0
SPLINE
  5
2c3
100
AcDbEntity
  8
Calque_1
 62
7
100
AcDbSpline
 70
8
 71
3
 72
8
 73
4
 74
0
 40
0
 40
0
 40
0
 40
0
 40
1
 40
1
 40
1
 40
1
 10
74.480087
 20
309.978571
 30
0.0
 10
74.902735
 20
310.401199
 30
0.0
 10
75.475965
 20
310.638661
 30
0.0
 10
76.073677
 20
310.638633
 30
0.0
  0
SPLINE
  5
2c4
100
AcDbEntity
  8
Calque_1
 62
7
100
AcDbSpline
 70
8
 71
3
 72
8
 73
4
 74
0
 40
0
 40
0
 40
0
 40
0
 40
1
 40
1
 40
1
 40
1
 10
76.073677
 20
310.638633
 30
0.0
 10
77.318339
 20
310.638633
 30
0.0
 10
78.327335
 20
309.629632
 30
0.0
 10
78.327332
 20
308.384975
 30
0.0
  0
LINE
  5
2c5
100
AcDbEntity
  8
Calque_1
 62
7
100
AcDbLine
 10
78.327332
 20
308.384975
 30
0.0
 11
78.327332
 21
308.384975
 31
0.0
  0
LINE
  5
2c6
100
AcDbEntity
  8
Calque_1
 62
7
100
AcDbLine
 10
20.459150
 20
358.846113
 30
0.0
 11
81.206126
 21
358.846113
 31
0.0
  0
SPLINE
  5
2c7
100
AcDbEntity
  8
Calque_1
 62
7
100
AcDbSpline
 70
8
 71
3
 72
8
 73
4
 74
0
 40
0
 40
0
 40
0
 40
0
 40
1
 40
1
 40
1
 40
1
 10
81.206126
 20
358.846113
 30
0.0
 10
84.699639
 20
358.846113
 30
0.0
 10
87.512116
 20
356.033627
 30
0.0
 10
87.512116
 20
352.540111
 30
0.0
  0
LINE
  5
2c8
100
AcDbEntity
  8
Calque_1
 62
7
100
AcDbLine
 10
87.512116
 20
352.540111
 30
0.0
 11
87.512116
 21
300.889520
 31
0.0
  0
SPLINE
  5
2c9
100
AcDbEntity
  8
Calque_1
 62
7
100
AcDbSpline
 70
8
 71
3
 72
8
 73
4
 74
0
 40
0
 40
0
 40
0
 40
0
 40
1
 40
1
 40
1
 40
1
 10
87.512116
 20
300.889520
 30
0.0
 10
87.512116
 20
297.395976
 30
0.0
 10
84.699639
 20
294.583632
 30
0.0
 10
81.206126
 20
294.583632
 30
0.0
  0
LINE
  5
2ca
100
AcDbEntity
  8
Calque_1
 62
7
100
AcDbLine
 10
81.206126
 20
294.583632
 30
0.0
 11
20.459150
 21
294.583632
 31
0.0
  0
SPLINE
  5
2cb
100
AcDbEntity
  8
Calque_1
 62
7
100
AcDbSpline
 70
8
 71
3
 72
8
 73
4
 74
0
 40
0
 40
0
 40
0
 40
0
 40
1
 40
1
 40
1
 40
1
 10
20.459150
 20
294.583632
 30
0.0
 10
16.965636
 20
294.583632
 30
0.0
 10
14.153162
 20
297.395976
 30
0.0
 10
14.153162
 20
300.889520
 30
0.0
  0
LINE
  5
2cc
100
AcDbEntity
  8
Calque_1
 62
7
100
AcDbLine
 10
14.153162
 20
300.889520
 30
0.0
 11
14.153162
 21
352.540111
 31
0.0
  0
SPLINE
  5
2cd
100
AcDbEntity
  8
Calque_1
 62
7
100
AcDbSpline
 70
8
 71
3
 72
8
 73
4
 74
0
 40
0
 40
0
 40
0
 40
0
 40
1
 40
1
 40
1
 40
1
 10
14.153162
 20
352.540111
 30
0.0
 10
14.153162
 20
356.033627
 30
0.0
 10
16.965636
 20
358.846113
 30
0.0
 10
20.459150
 20
358.846113
 30
0.0
  0
LINE
  5
2ce
100
AcDbEntity
  8
Calque_1
 62
7
100
AcDbLine
 10
20.459150
 20
358.846113
 30
0.0
 11
20.459150
 21
358.846113
 31
0.0
  0
ENDSEC
  0
SECTION
  2
OBJECTS
  0
DICTIONARY
  5
C
330
0
100
AcDbDictionary
  3
ACAD_GROUP
350
D
  3
ACAD_MLINESTYLE
350
17
  0
DICTIONARY
  5
D
330
C
100
AcDbDictionary
  0
DICTIONARY
  5
1A
330
C
100
AcDbDictionary
  0
DICTIONARY
  5
17
330
C
100
AcDbDictionary
  3
STANDARD
350
18
  0
DICTIONARY
  5
19
330
C
100
AcDbDictionary
  0
ENDSEC
  0
EOF
