  0
SECTION
  2
HEADER
  9
$ACADVER
  1
AC1014
  9
$HANDSEED
  5
FFFF
  9
$MEASUREMENT
 70
     1
  0
ENDSEC
  0
SECTION
  2
TABLES
  0
TABLE
  2
VPORT
  5
8
330
0
100
AcDbSymbolTable
 70
     4
  0
VPORT
  5
2E
330
8
100
AcDbSymbolTableRecord
100
AcDbViewportTableRecord
  2
*ACTIVE
 70
     0
 10
0.0
 20
0.0
 11
1.0
 21
1.0
 12
210.0
 22
148.5
 13
0.0
 23
0.0
 14
10.0
 24
10.0
 15
10.0
 25
10.0
 16
0.0
 26
0.0
 36
1.0
 17
0.0
 27
0.0
 37
0.0
 40
341.0
 41
1.24
 42
50.0
 43
0.0
 44
0.0
 50
0.0
 51
0.0
 71
     0
 72
   100
 73
     1
 74
     3
 75
     0
 76
     0
 77
     0
 78
     0
  0
ENDTAB
  0
TABLE
  2
LTYPE
  5
5
330
0
100
AcDbSymbolTable
 70
     1
  0
LTYPE
  5
14
330
5
100
AcDbSymbolTableRecord
100
AcDbLinetypeTableRecord
  2
BYBLOCK
 70
     0
  3

 72
    65
 73
     0
 40
0.0
  0
LTYPE
  5
15
330
5
100
AcDbSymbolTableRecord
100
AcDbLinetypeTableRecord
  2
BYLAYER
 70
     0
  3

 72
    65
 73
     0
 40
0.0
  0
LTYPE
  5
16
330
5
100
AcDbSymbolTableRecord
100
AcDbLinetypeTableRecord
  2
CONTINUOUS
 70
     0
  3
Solid line
 72
    65
 73
     0
 40
0.0
  0
ENDTAB
  0
TABLE
  2
LAYER
  5
2
100
AcDbSymbolTable
 70
2
  0
LAYER
  5
50
100
AcDbSymbolTableRecord
100
AcDbLayerTableRecord
  2
0
 70
0
  6
CONTINUOUS
  0
LAYER
  5
51
100
AcDbSymbolTableRecord
100
AcDbLayerTableRecord
  2
Calque_1
 70
0
  6
CONTINUOUS
  0
ENDTAB
  0
TABLE
  2
STYLE
  5
3
330
0
100
AcDbSymbolTable
 70
     1
  0
STYLE
  5
11
330
3
100
AcDbSymbolTableRecord
100
AcDbTextStyleTableRecord
  2
STANDARD
 70
     0
 40
0.0
 41
1.0
 50
0.0
 71
     0
 42
2.5
  3
txt
  4

  0
ENDTAB
  0
TABLE
  2
VIEW
  5
6
330
0
100
AcDbSymbolTable
 70
     0
  0
ENDTAB
  0
TABLE
  2
UCS
  5
7
330
0
100
AcDbSymbolTable
 70
     0
  0
ENDTAB
  0
TABLE
  2
APPID
  5
9
330
0
100
AcDbSymbolTable
 70
     2
  0
APPID
  5
12
330
9
100
AcDbSymbolTableRecord
100
AcDbRegAppTableRecord
  2
ACAD
 70
     0
  0
ENDTAB
  0
TABLE
  2
DIMSTYLE
  5
A
330
0
100
AcDbSymbolTable
 70
     1
  0
DIMSTYLE
105
27
330
A
100
AcDbSymbolTableRecord
100
AcDbDimStyleTableRecord
  2
ISO-25
 70
     0
  3

  4

  5

  6

  7

 40
1.0
 41
2.5
 42
0.625
 43
3.75
 44
1.25
 45
0.0
 46
0.0
 47
0.0
 48
0.0
140
2.5
141
2.5
142
0.0
143
0.03937007874016
144
1.0
145
0.0
146
1.0
147
0.625
 71
     0
 72
     0
 73
     0
 74
     0
 75
     0
 76
     0
 77
     1
 78
     8
170
     0
171
     3
172
     1
173
     0
174
     0
175
     0
176
     0
177
     0
178
     0
270
     2
271
     2
272
     2
273
     2
274
     3
340
11
275
     0
280
     0
281
     0
282
     0
283
     0
284
     8
285
     0
286
     0
287
     3
288
     0
  0
ENDTAB
  0
TABLE
  2
BLOCK_RECORD
  5
1
330
0
100
AcDbSymbolTable
 70
     1
  0
BLOCK_RECORD
  5
1F
330
1
100
AcDbSymbolTableRecord
100
AcDbBlockTableRecord
  2
*MODEL_SPACE
  0
BLOCK_RECORD
  5
1B
330
1
100
AcDbSymbolTableRecord
100
AcDbBlockTableRecord
  2
*PAPER_SPACE
  0
ENDTAB
  0
ENDSEC
  0
SECTION
  2
BLOCKS
  0
BLOCK
  5
20
330
1F
100
AcDbEntity
  8
0
100
AcDbBlockBegin
  2
*MODEL_SPACE
 70
     0
 10
0.0
 20
0.0
 30
0.0
  3
*MODEL_SPACE
  1

  0
ENDBLK
  5
21
330
1F
100
AcDbEntity
  8
0
100
AcDbBlockEnd
  0
BLOCK
  5
1C
330
1B
100
AcDbEntity
 67
     1
  8
0
100
AcDbBlockBegin
  2
*PAPER_SPACE
  1

  0
ENDBLK
  5
1D
330
1B
100
AcDbEntity
 67
     1
  8
0
100
AcDbBlockEnd
  0
ENDSEC
  0
SECTION
  2
ENTITIES
  0
LINE
  5
100
100
AcDbEntity
  8
Calque_1
 62
2
100
AcDbLine
 10
272.703250
 20
49.947214
 30
0.0
 11
272.703250
 21
46.337546
 31
0.0
  0
LINE
  5
101
100
AcDbEntity
  8
Calque_1
 62
2
100
AcDbLine
 10
272.703250
 20
46.337546
 30
0.0
 11
246.806590
 21
46.337546
 31
0.0
  0
LINE
  5
102
100
AcDbEntity
  8
Calque_1
 62
2
100
AcDbLine
 10
246.806590
 20
46.337546
 30
0.0
 11
246.806590
 21
16.978868
 31
0.0
  0
LINE
  5
103
100
AcDbEntity
  8
Calque_1
 62
2
100
AcDbLine
 10
246.806590
 20
16.978868
 30
0.0
 11
274.801020
 21
16.978868
 31
0.0
  0
LINE
  5
104
100
AcDbEntity
  8
Calque_1
 62
2
100
AcDbLine
 10
274.801020
 20
16.978868
 30
0.0
 11
274.801020
 21
13.369190
 31
0.0
  0
LINE
  5
105
100
AcDbEntity
  8
Calque_1
 62
2
100
AcDbLine
 10
274.801020
 20
13.369190
 30
0.0
 11
243.551418
 21
13.369190
 31
0.0
  0
LINE
  5
106
100
AcDbEntity
  8
Calque_1
 62
2
100
AcDbLine
 10
243.551418
 20
13.369190
 30
0.0
 11
243.551418
 21
73.249659
 31
0.0
  0
LINE
  5
107
100
AcDbEntity
  8
Calque_1
 62
2
100
AcDbLine
 10
243.551418
 20
73.249659
 30
0.0
 11
274.945694
 21
73.249659
 31
0.0
  0
LINE
  5
108
100
AcDbEntity
  8
Calque_1
 62
2
100
AcDbLine
 10
274.945694
 20
73.249659
 30
0.0
 11
274.945694
 21
69.639991
 31
0.0
  0
LINE
  5
109
100
AcDbEntity
  8
Calque_1
 62
2
100
AcDbLine
 10
274.945694
 20
69.639991
 30
0.0
 11
246.806590
 21
69.639991
 31
0.0
  0
LINE
  5
10a
100
AcDbEntity
  8
Calque_1
 62
2
100
AcDbLine
 10
246.806590
 20
69.639991
 30
0.0
 11
246.806590
 21
49.947214
 31
0.0
  0
LINE
  5
10b
100
AcDbEntity
  8
Calque_1
 62
2
100
AcDbLine
 10
246.806590
 20
49.947214
 30
0.0
 11
272.703250
 21
49.947214
 31
0.0
  0
LINE
  5
10c
100
AcDbEntity
  8
Calque_1
 62
2
100
AcDbLine
 10
272.703250
 20
49.947214
 30
0.0
 11
272.703250
 21
49.947214
 31
0.0
  0
LINE
  5
10d
100
AcDbEntity
  8
Calque_1
 62
2
100
AcDbLine
 10
312.343949
 20
49.947214
 30
0.0
 11
312.343949
 21
46.337546
 31
0.0
  0
LINE
  5
10e
100
AcDbEntity
  8
Calque_1
 62
2
100
AcDbLine
 10
312.343949
 20
46.337546
 30
0.0
 11
286.447288
 21
46.337546
 31
0.0
  0
LINE
  5
10f
100
AcDbEntity
  8
Calque_1
 62
2
100
AcDbLine
 10
286.447288
 20
46.337546
 30
0.0
 11
286.447288
 21
16.978868
 31
0.0
  0
LINE
  5
110
100
AcDbEntity
  8
Calque_1
 62
2
100
AcDbLine
 10
286.447288
 20
16.978868
 30
0.0
 11
314.441719
 21
16.978868
 31
0.0
  0
LINE
  5
111
100
AcDbEntity
  8
Calque_1
 62
2
100
AcDbLine
 10
314.441719
 20
16.978868
 30
0.0
 11
314.441719
 21
13.369190
 31
0.0
  0
LINE
  5
112
100
AcDbEntity
  8
Calque_1
 62
2
100
AcDbLine
 10
314.441719
 20
13.369190
 30
0.0
 11
283.192117
 21
13.369190
 31
0.0
  0
LINE
  5
113
100
AcDbEntity
  8
Calque_1
 62
2
100
AcDbLine
 10
283.192117
 20
13.369190
 30
0.0
 11
283.192117
 21
73.249659
 31
0.0
  0
LINE
  5
114
100
AcDbEntity
  8
Calque_1
 62
2
100
AcDbLine
 10
283.192117
 20
73.249659
 30
0.0
 11
314.586393
 21
73.249659
 31
0.0
  0
LINE
  5
115
100
AcDbEntity
  8
Calque_1
 62
2
100
AcDbLine
 10
314.586393
 20
73.249659
 30
0.0
 11
314.586393
 21
69.639991
 31
0.0
  0
LINE
  5
116
100
AcDbEntity
  8
Calque_1
 62
2
100
AcDbLine
 10
314.586393
 20
69.639991
 30
0.0
 11
286.447288
 21
69.639991
 31
0.0
  0
LINE
  5
117
100
AcDbEntity
  8
Calque_1
 62
2
100
AcDbLine
 10
286.447288
 20
69.639991
 30
0.0
 11
286.447288
 21
49.947214
 31
0.0
  0
LINE
  5
118
100
AcDbEntity
  8
Calque_1
 62
2
100
AcDbLine
 10
286.447288
 20
49.947214
 30
0.0
 11
312.343949
 21
49.947214
 31
0.0
  0
LINE
  5
119
100
AcDbEntity
  8
Calque_1
 62
2
100
AcDbLine
 10
312.343949
 20
49.947214
 30
0.0
 11
312.343949
 21
49.947214
 31
0.0
  0
LINE
  5
11a
100
AcDbEntity
  8
Calque_1
 62
2
100
AcDbLine
 10
351.659133
 20
62.661284
 30
0.0
 11
348.584802
 21
61.498169
 31
0.0
  0
SPLINE
  5
11b
100
AcDbEntity
  8
Calque_1
 62
2
100
AcDbSpline
 70
8
 71
3
 72
8
 73
4
 74
0
 40
0
 40
0
 40
0
 40
0
 40
1
 40
1
 40
1
 40
1
 10
348.584802
 20
61.498169
 30
0.0
 10
347.740875
 20
64.359172
 30
0.0
 10
346.342359
 20
66.524977
 30
0.0
 10
344.389254
 20
67.995587
 30
0.0
  0
SPLINE
  5
11c
100
AcDbEntity
  8
Calque_1
 62
2
100
AcDbSpline
 70
8
 71
3
 72
8
 73
4
 74
0
 40
0
 40
0
 40
0
 40
0
 40
1
 40
1
 40
1
 40
1
 10
344.389254
 20
67.995587
 30
0.0
 10
342.460266
 20
69.466189
 30
0.0
 10
340.350438
 20
70.201491
 30
0.0
 10
338.059770
 20
70.201491
 30
0.0
  0
SPLINE
  5
11d
100
AcDbEntity
  8
Calque_1
 62
2
100
AcDbSpline
 70
8
 71
3
 72
8
 73
4
 74
0
 40
0
 40
0
 40
0
 40
0
 40
1
 40
1
 40
1
 40
1
 10
338.059770
 20
70.201491
 30
0.0
 10
335.286848
 20
70.201491
 30
0.0
 10
333.020288
 20
69.212175
 30
0.0
 10
331.260088
 20
67.233542
 30
0.0
  0
SPLINE
  5
11e
100
AcDbEntity
  8
Calque_1
 62
2
100
AcDbSpline
 70
8
 71
3
 72
8
 73
4
 74
0
 40
0
 40
0
 40
0
 40
0
 40
1
 40
1
 40
1
 40
1
 10
331.260088
 20
67.233542
 30
0.0
 10
329.523999
 20
65.254903
 30
0.0
 10
328.655954
 20
62.835086
 30
0.0
 10
328.655954
 20
59.974090
 30
0.0
  0
SPLINE
  5
11f
100
AcDbEntity
  8
Calque_1
 62
2
100
AcDbSpline
 70
8
 71
3
 72
8
 73
4
 74
0
 40
0
 40
0
 40
0
 40
0
 40
1
 40
1
 40
1
 40
1
 10
328.655954
 20
59.974090
 30
0.0
 10
328.655954
 20
58.503481
 30
0.0
 10
328.957358
 20
57.166565
 30
0.0
 10
329.560165
 20
55.963342
 30
0.0
  0
SPLINE
  5
120
100
AcDbEntity
  8
Calque_1
 62
2
100
AcDbSpline
 70
8
 71
3
 72
8
 73
4
 74
0
 40
0
 40
0
 40
0
 40
0
 40
1
 40
1
 40
1
 40
1
 10
329.560165
 20
55.963342
 30
0.0
 10
330.162972
 20
54.760112
 30
0.0
 10
330.970737
 20
53.730684
 30
0.0
 10
331.983458
 20
52.875058
 30
0.0
  0
SPLINE
  5
121
100
AcDbEntity
  8
Calque_1
 62
2
100
AcDbSpline
 70
8
 71
3
 72
8
 73
4
 74
0
 40
0
 40
0
 40
0
 40
0
 40
1
 40
1
 40
1
 40
1
 10
331.983458
 20
52.875058
 30
0.0
 10
332.996174
 20
52.019432
 30
0.0
 10
334.153566
 20
51.217282
 30
0.0
 10
335.455636
 20
50.468609
 30
0.0
  0
SPLINE
  5
122
100
AcDbEntity
  8
Calque_1
 62
2
100
AcDbSpline
 70
8
 71
3
 72
8
 73
4
 74
0
 40
0
 40
0
 40
0
 40
0
 40
1
 40
1
 40
1
 40
1
 10
335.455636
 20
50.468609
 30
0.0
 10
336.781811
 20
49.746680
 30
0.0
 10
338.168268
 20
49.051483
 30
0.0
 10
339.615009
 20
48.383020
 30
0.0
  0
SPLINE
  5
123
100
AcDbEntity
  8
Calque_1
 62
2
100
AcDbSpline
 70
8
 71
3
 72
8
 73
4
 74
0
 40
0
 40
0
 40
0
 40
0
 40
1
 40
1
 40
1
 40
1
 10
339.615009
 20
48.383020
 30
0.0
 10
341.085867
 20
47.714564
 30
0.0
 10
342.544666
 20
47.005999
 30
0.0
 10
343.991407
 20
46.257326
 30
0.0
  0
SPLINE
  5
124
100
AcDbEntity
  8
Calque_1
 62
2
100
AcDbSpline
 70
8
 71
3
 72
8
 73
4
 74
0
 40
0
 40
0
 40
0
 40
0
 40
1
 40
1
 40
1
 40
1
 10
343.991407
 20
46.257326
 30
0.0
 10
345.462259
 20
45.535390
 30
0.0
 10
346.848716
 20
44.693132
 30
0.0
 10
348.150780
 20
43.730552
 30
0.0
  0
SPLINE
  5
125
100
AcDbEntity
  8
Calque_1
 62
2
100
AcDbSpline
 70
8
 71
3
 72
8
 73
4
 74
0
 40
0
 40
0
 40
0
 40
0
 40
1
 40
1
 40
1
 40
1
 10
348.150780
 20
43.730552
 30
0.0
 10
349.476961
 20
42.767972
 30
0.0
 10
350.646412
 20
41.698439
 30
0.0
 10
351.659133
 20
40.521953
 30
0.0
  0
SPLINE
  5
126
100
AcDbEntity
  8
Calque_1
 62
2
100
AcDbSpline
 70
8
 71
3
 72
8
 73
4
 74
0
 40
0
 40
0
 40
0
 40
0
 40
1
 40
1
 40
1
 40
1
 10
351.659133
 20
40.521953
 30
0.0
 10
352.671849
 20
39.345467
 30
0.0
 10
353.479610
 20
37.901598
 30
0.0
 10
354.082417
 20
36.190345
 30
0.0
  0
SPLINE
  5
127
100
AcDbEntity
  8
Calque_1
 62
2
100
AcDbSpline
 70
8
 71
3
 72
8
 73
4
 74
0
 40
0
 40
0
 40
0
 40
0
 40
1
 40
1
 40
1
 40
1
 10
354.082417
 20
36.190345
 30
0.0
 10
354.685231
 20
34.479092
 30
0.0
 10
354.986637
 20
32.580673
 30
0.0
 10
354.986637
 20
30.495088
 30
0.0
  0
SPLINE
  5
128
100
AcDbEntity
  8
Calque_1
 62
2
100
AcDbSpline
 70
8
 71
3
 72
8
 73
4
 74
0
 40
0
 40
0
 40
0
 40
0
 40
1
 40
1
 40
1
 40
1
 10
354.986637
 20
30.495088
 30
0.0
 10
354.986637
 20
27.019102
 30
0.0
 10
354.178873
 20
23.904089
 30
0.0
 10
352.563344
 20
21.150047
 30
0.0
  0
SPLINE
  5
129
100
AcDbEntity
  8
Calque_1
 62
2
100
AcDbSpline
 70
8
 71
3
 72
8
 73
4
 74
0
 40
0
 40
0
 40
0
 40
0
 40
1
 40
1
 40
1
 40
1
 10
352.563344
 20
21.150047
 30
0.0
 10
350.947815
 20
18.395998
 30
0.0
 10
348.850040
 20
16.297037
 30
0.0
 10
346.270017
 20
14.853164
 30
0.0
  0
SPLINE
  5
12a
100
AcDbEntity
  8
Calque_1
 62
2
100
AcDbSpline
 70
8
 71
3
 72
8
 73
4
 74
0
 40
0
 40
0
 40
0
 40
0
 40
1
 40
1
 40
1
 40
1
 10
346.270017
 20
14.853164
 30
0.0
 10
343.690000
 20
13.409298
 30
0.0
 10
340.905027
 20
12.687365
 30
0.0
 10
337.915096
 20
12.687365
 30
0.0
  0
SPLINE
  5
12b
100
AcDbEntity
  8
Calque_1
 62
2
100
AcDbSpline
 70
8
 71
3
 72
8
 73
4
 74
0
 40
0
 40
0
 40
0
 40
0
 40
1
 40
1
 40
1
 40
1
 10
337.915096
 20
12.687365
 30
0.0
 10
335.961991
 20
12.687365
 30
0.0
 10
334.093283
 20
13.034962
 30
0.0
 10
332.308973
 20
13.730155
 30
0.0
  0
SPLINE
  5
12c
100
AcDbEntity
  8
Calque_1
 62
2
100
AcDbSpline
 70
8
 71
3
 72
8
 73
4
 74
0
 40
0
 40
0
 40
0
 40
0
 40
1
 40
1
 40
1
 40
1
 10
332.308973
 20
13.730155
 30
0.0
 10
330.524656
 20
14.425354
 30
0.0
 10
328.860902
 20
15.454782
 30
0.0
 10
327.317712
 20
16.818438
 30
0.0
  0
SPLINE
  5
12d
100
AcDbEntity
  8
Calque_1
 62
2
100
AcDbSpline
 70
8
 71
3
 72
8
 73
4
 74
0
 40
0
 40
0
 40
0
 40
0
 40
1
 40
1
 40
1
 40
1
 10
327.317712
 20
16.818438
 30
0.0
 10
325.774522
 20
18.208831
 30
0.0
 10
324.460400
 20
20.053774
 30
0.0
 10
323.375346
 20
22.353266
 30
0.0
  0
SPLINE
  5
12e
100
AcDbEntity
  8
Calque_1
 62
2
100
AcDbSpline
 70
8
 71
3
 72
8
 73
4
 74
0
 40
0
 40
0
 40
0
 40
0
 40
1
 40
1
 40
1
 40
1
 10
323.375346
 20
22.353266
 30
0.0
 10
322.290292
 20
24.652765
 30
0.0
 10
321.578977
 20
27.286489
 30
0.0
 10
321.241401
 20
30.254438
 30
0.0
  0
LINE
  5
12f
100
AcDbEntity
  8
Calque_1
 62
2
100
AcDbLine
 10
321.241401
 20
30.254438
 30
0.0
 11
324.460406
 21
30.695622
 31
0.0
  0
SPLINE
  5
130
100
AcDbEntity
  8
Calque_1
 62
2
100
AcDbSpline
 70
8
 71
3
 72
8
 73
4
 74
0
 40
0
 40
0
 40
0
 40
0
 40
1
 40
1
 40
1
 40
1
 10
324.460406
 20
30.695622
 30
0.0
 10
325.063213
 20
25.882725
 30
0.0
 10
326.606403
 20
22.286421
 30
0.0
 10
329.089977
 20
19.906712
 30
0.0
  0
SPLINE
  5
131
100
AcDbEntity
  8
Calque_1
 62
2
100
AcDbSpline
 70
8
 71
3
 72
8
 73
4
 74
0
 40
0
 40
0
 40
0
 40
0
 40
1
 40
1
 40
1
 40
1
 10
329.089977
 20
19.906712
 30
0.0
 10
331.597661
 20
17.553740
 30
0.0
 10
334.539367
 20
16.377254
 30
0.0
 10
337.915096
 20
16.377254
 30
0.0
  0
SPLINE
  5
132
100
AcDbEntity
  8
Calque_1
 62
2
100
AcDbSpline
 70
8
 71
3
 72
8
 73
4
 74
0
 40
0
 40
0
 40
0
 40
0
 40
1
 40
1
 40
1
 40
1
 10
337.915096
 20
16.377254
 30
0.0
 10
340.302213
 20
16.377254
 30
0.0
 10
342.532605
 20
16.925388
 30
0.0
 10
344.606270
 20
18.021658
 30
0.0
  0
SPLINE
  5
133
100
AcDbEntity
  8
Calque_1
 62
2
100
AcDbSpline
 70
8
 71
3
 72
8
 73
4
 74
0
 40
0
 40
0
 40
0
 40
0
 40
1
 40
1
 40
1
 40
1
 10
344.606270
 20
18.021658
 30
0.0
 10
346.679928
 20
19.144671
 30
0.0
 10
348.379848
 20
20.802447
 30
0.0
 10
349.706029
 20
22.994986
 30
0.0
  0
SPLINE
  5
134
100
AcDbEntity
  8
Calque_1
 62
2
100
AcDbSpline
 70
8
 71
3
 72
8
 73
4
 74
0
 40
0
 40
0
 40
0
 40
0
 40
1
 40
1
 40
1
 40
1
 10
349.706029
 20
22.994986
 30
0.0
 10
351.056320
 20
25.214268
 30
0.0
 10
351.731466
 20
27.754410
 30
0.0
 10
351.731466
 20
30.615413
 30
0.0
  0
SPLINE
  5
135
100
AcDbEntity
  8
Calque_1
 62
2
100
AcDbSpline
 70
8
 71
3
 72
8
 73
4
 74
0
 40
0
 40
0
 40
0
 40
0
 40
1
 40
1
 40
1
 40
1
 10
351.731466
 20
30.615413
 30
0.0
 10
351.731466
 20
32.406875
 30
0.0
 10
351.430062
 20
34.024543
 30
0.0
 10
350.827255
 20
35.468416
 30
0.0
  0
SPLINE
  5
136
100
AcDbEntity
  8
Calque_1
 62
2
100
AcDbSpline
 70
8
 71
3
 72
8
 73
4
 74
0
 40
0
 40
0
 40
0
 40
0
 40
1
 40
1
 40
1
 40
1
 10
350.827255
 20
35.468416
 30
0.0
 10
350.224448
 20
36.912282
 30
0.0
 10
349.416684
 20
38.128876
 30
0.0
 10
348.403962
 20
39.118199
 30
0.0
  0
SPLINE
  5
137
100
AcDbEntity
  8
Calque_1
 62
2
100
AcDbSpline
 70
8
 71
3
 72
8
 73
4
 74
0
 40
0
 40
0
 40
0
 40
0
 40
1
 40
1
 40
1
 40
1
 10
348.403962
 20
39.118199
 30
0.0
 10
347.391246
 20
40.107515
 30
0.0
 10
346.221798
 20
41.016618
 30
0.0
 10
344.895618
 20
41.845508
 30
0.0
  0
SPLINE
  5
138
100
AcDbEntity
  8
Calque_1
 62
2
100
AcDbSpline
 70
8
 71
3
 72
8
 73
4
 74
0
 40
0
 40
0
 40
0
 40
0
 40
1
 40
1
 40
1
 40
1
 10
344.895618
 20
41.845508
 30
0.0
 10
343.593548
 20
42.674391
 30
0.0
 10
342.207087
 20
43.423064
 30
0.0
 10
340.736236
 20
44.091527
 30
0.0
  0
SPLINE
  5
139
100
AcDbEntity
  8
Calque_1
 62
2
100
AcDbSpline
 70
8
 71
3
 72
8
 73
4
 74
0
 40
0
 40
0
 40
0
 40
0
 40
1
 40
1
 40
1
 40
1
 10
340.736236
 20
44.091527
 30
0.0
 10
339.289495
 20
44.786720
 30
0.0
 10
337.830699
 20
45.481916
 30
0.0
 10
336.359847
 20
46.177116
 30
0.0
  0
SPLINE
  5
13a
100
AcDbEntity
  8
Calque_1
 62
2
100
AcDbSpline
 70
8
 71
3
 72
8
 73
4
 74
0
 40
0
 40
0
 40
0
 40
0
 40
1
 40
1
 40
1
 40
1
 10
336.359847
 20
46.177116
 30
0.0
 10
334.913106
 20
46.872309
 30
0.0
 10
333.526645
 20
47.647719
 30
0.0
 10
332.200465
 20
48.503345
 30
0.0
  0
SPLINE
  5
13b
100
AcDbEntity
  8
Calque_1
 62
2
100
AcDbSpline
 70
8
 71
3
 72
8
 73
4
 74
0
 40
0
 40
0
 40
0
 40
0
 40
1
 40
1
 40
1
 40
1
 10
332.200465
 20
48.503345
 30
0.0
 10
330.898401
 20
49.358971
 30
0.0
 10
329.741008
 20
50.294814
 30
0.0
 10
328.728287
 20
51.310874
 30
0.0
  0
SPLINE
  5
13c
100
AcDbEntity
  8
Calque_1
 62
2
100
AcDbSpline
 70
8
 71
3
 72
8
 73
4
 74
0
 40
0
 40
0
 40
0
 40
0
 40
1
 40
1
 40
1
 40
1
 10
328.728287
 20
51.310874
 30
0.0
 10
327.715571
 20
52.326927
 30
0.0
 10
326.907807
 20
53.570258
 30
0.0
 10
326.304994
 20
55.040867
 30
0.0
  0
SPLINE
  5
13d
100
AcDbEntity
  8
Calque_1
 62
2
100
AcDbSpline
 70
8
 71
3
 72
8
 73
4
 74
0
 40
0
 40
0
 40
0
 40
0
 40
1
 40
1
 40
1
 40
1
 10
326.304994
 20
55.040867
 30
0.0
 10
325.702186
 20
56.538213
 30
0.0
 10
325.400783
 20
58.209358
 30
0.0
 10
325.400783
 20
60.054300
 30
0.0
  0
SPLINE
  5
13e
100
AcDbEntity
  8
Calque_1
 62
2
100
AcDbSpline
 70
8
 71
3
 72
8
 73
4
 74
0
 40
0
 40
0
 40
0
 40
0
 40
1
 40
1
 40
1
 40
1
 10
325.400783
 20
60.054300
 30
0.0
 10
325.400783
 20
63.904618
 30
0.0
 10
326.582289
 20
67.180062
 30
0.0
 10
328.945302
 20
69.880631
 30
0.0
  0
SPLINE
  5
13f
100
AcDbEntity
  8
Calque_1
 62
2
100
AcDbSpline
 70
8
 71
3
 72
8
 73
4
 74
0
 40
0
 40
0
 40
0
 40
0
 40
1
 40
1
 40
1
 40
1
 10
328.945302
 20
69.880631
 30
0.0
 10
331.308309
 20
72.607943
 30
0.0
 10
334.346465
 20
73.971599
 30
0.0
 10
338.059770
 20
73.971599
 30
0.0
  0
SPLINE
  5
140
100
AcDbEntity
  8
Calque_1
 62
2
100
AcDbSpline
 70
8
 71
3
 72
8
 73
4
 74
0
 40
0
 40
0
 40
0
 40
0
 40
1
 40
1
 40
1
 40
1
 10
338.059770
 20
73.971599
 30
0.0
 10
340.953251
 20
73.971599
 30
0.0
 10
343.665890
 20
72.968911
 30
0.0
 10
346.197685
 20
70.963535
 30
0.0
  0
SPLINE
  5
141
100
AcDbEntity
  8
Calque_1
 62
2
100
AcDbSpline
 70
8
 71
3
 72
8
 73
4
 74
0
 40
0
 40
0
 40
0
 40
0
 40
1
 40
1
 40
1
 40
1
 10
346.197685
 20
70.963535
 30
0.0
 10
348.753590
 20
68.984903
 30
0.0
 10
350.574073
 20
66.217486
 30
0.0
 10
351.659133
 20
62.661284
 30
0.0
  0
LINE
  5
142
100
AcDbEntity
  8
Calque_1
 62
2
100
AcDbLine
 10
351.659133
 20
62.661284
 30
0.0
 11
351.659133
 21
62.661284
 31
0.0
  0
LINE
  5
143
100
AcDbEntity
  8
Calque_1
 62
2
100
AcDbLine
 10
372.492201
 20
35.548625
 30
0.0
 11
394.265646
 21
35.548625
 31
0.0
  0
LINE
  5
144
100
AcDbEntity
  8
Calque_1
 62
2
100
AcDbLine
 10
394.265646
 20
35.548625
 30
0.0
 11
383.342758
 21
64.626558
 31
0.0
  0
LINE
  5
145
100
AcDbEntity
  8
Calque_1
 62
2
100
AcDbLine
 10
383.342758
 20
64.626558
 30
0.0
 11
372.492201
 21
35.548625
 31
0.0
  0
LINE
  5
146
100
AcDbEntity
  8
Calque_1
 62
2
100
AcDbLine
 10
372.492201
 20
35.548625
 30
0.0
 11
372.492201
 21
35.548625
 31
0.0
  0
LINE
  5
147
100
AcDbEntity
  8
Calque_1
 62
2
100
AcDbLine
 10
395.567713
 20
31.938957
 30
0.0
 11
370.936953
 21
31.938957
 31
0.0
  0
LINE
  5
148
100
AcDbEntity
  8
Calque_1
 62
2
100
AcDbLine
 10
370.936953
 20
31.938957
 30
0.0
 11
364.064929
 21
13.369190
 31
0.0
  0
LINE
  5
149
100
AcDbEntity
  8
Calque_1
 62
2
100
AcDbLine
 10
364.064929
 20
13.369190
 30
0.0
 11
360.592751
 21
13.369190
 31
0.0
  0
LINE
  5
14a
100
AcDbEntity
  8
Calque_1
 62
2
100
AcDbLine
 10
360.592751
 20
13.369190
 30
0.0
 11
383.234250
 21
73.971599
 31
0.0
  0
LINE
  5
14b
100
AcDbEntity
  8
Calque_1
 62
2
100
AcDbLine
 10
383.234250
 20
73.971599
 30
0.0
 11
405.948081
 21
13.369190
 31
0.0
  0
LINE
  5
14c
100
AcDbEntity
  8
Calque_1
 62
2
100
AcDbLine
 10
405.948081
 20
13.369190
 30
0.0
 11
402.475903
 21
13.369190
 31
0.0
  0
LINE
  5
14d
100
AcDbEntity
  8
Calque_1
 62
2
100
AcDbLine
 10
402.475903
 20
13.369190
 30
0.0
 11
395.567713
 21
31.938957
 31
0.0
  0
LINE
  5
14e
100
AcDbEntity
  8
Calque_1
 62
2
100
AcDbLine
 10
395.567713
 20
31.938957
 30
0.0
 11
395.567713
 21
31.938957
 31
0.0
  0
LINE
  5
14f
100
AcDbEntity
  8
Calque_1
 62
2
100
AcDbLine
 10
416.509289
 20
16.978868
 30
0.0
 11
432.206422
 21
16.978868
 31
0.0
  0
SPLINE
  5
150
100
AcDbEntity
  8
Calque_1
 62
2
100
AcDbSpline
 70
8
 71
3
 72
8
 73
4
 74
0
 40
0
 40
0
 40
0
 40
0
 40
1
 40
1
 40
1
 40
1
 10
432.206422
 20
16.978868
 30
0.0
 10
436.184964
 20
16.978868
 30
0.0
 10
439.536582
 20
18.342521
 30
0.0
 10
442.261276
 20
21.069827
 30
0.0
  0
SPLINE
  5
151
100
AcDbEntity
  8
Calque_1
 62
2
100
AcDbSpline
 70
8
 71
3
 72
8
 73
4
 74
0
 40
0
 40
0
 40
0
 40
0
 40
1
 40
1
 40
1
 40
1
 10
442.261276
 20
21.069827
 30
0.0
 10
444.985969
 20
23.823875
 30
0.0
 10
446.348316
 20
27.112691
 30
0.0
 10
446.348316
 20
30.936273
 30
0.0
  0
SPLINE
  5
152
100
AcDbEntity
  8
Calque_1
 62
2
100
AcDbSpline
 70
8
 71
3
 72
8
 73
4
 74
0
 40
0
 40
0
 40
0
 40
0
 40
1
 40
1
 40
1
 40
1
 10
446.348316
 20
30.936273
 30
0.0
 10
446.348316
 20
34.759847
 30
0.0
 10
444.985969
 20
38.035291
 30
0.0
 10
442.261276
 20
40.762603
 30
0.0
  0
SPLINE
  5
153
100
AcDbEntity
  8
Calque_1
 62
2
100
AcDbSpline
 70
8
 71
3
 72
8
 73
4
 74
0
 40
0
 40
0
 40
0
 40
0
 40
1
 40
1
 40
1
 40
1
 10
442.261276
 20
40.762603
 30
0.0
 10
439.536582
 20
43.516652
 30
0.0
 10
436.184964
 20
44.893677
 30
0.0
 10
432.206422
 20
44.893677
 30
0.0
  0
LINE
  5
154
100
AcDbEntity
  8
Calque_1
 62
2
100
AcDbLine
 10
432.206422
 20
44.893677
 30
0.0
 11
416.509289
 21
44.893677
 31
0.0
  0
LINE
  5
155
100
AcDbEntity
  8
Calque_1
 62
2
100
AcDbLine
 10
416.509289
 20
44.893677
 30
0.0
 11
416.509289
 21
16.978868
 31
0.0
  0
LINE
  5
156
100
AcDbEntity
  8
Calque_1
 62
2
100
AcDbLine
 10
416.509289
 20
16.978868
 30
0.0
 11
416.509289
 21
16.978868
 31
0.0
  0
SPLINE
  5
157
100
AcDbEntity
  8
Calque_1
 62
2
100
AcDbSpline
 70
8
 71
3
 72
8
 73
4
 74
0
 40
0
 40
0
 40
0
 40
0
 40
1
 40
1
 40
1
 40
1
 10
442.225109
 20
58.971395
 30
0.0
 10
442.225109
 20
61.859134
 30
0.0
 10
441.188277
 20
64.359168
 30
0.0
 10
439.114612
 20
66.471497
 30
0.0
  0
SPLINE
  5
158
100
AcDbEntity
  8
Calque_1
 62
2
100
AcDbSpline
 70
8
 71
3
 72
8
 73
4
 74
0
 40
0
 40
0
 40
0
 40
0
 40
1
 40
1
 40
1
 40
1
 10
439.114612
 20
66.471497
 30
0.0
 10
437.065064
 20
68.583827
 30
0.0
 10
434.533269
 20
69.639991
 30
0.0
 10
431.519227
 20
69.639991
 30
0.0
  0
LINE
  5
159
100
AcDbEntity
  8
Calque_1
 62
2
100
AcDbLine
 10
431.519227
 20
69.639991
 30
0.0
 11
416.509289
 21
69.639991
 31
0.0
  0
LINE
  5
15a
100
AcDbEntity
  8
Calque_1
 62
2
100
AcDbLine
 10
416.509289
 20
69.639991
 30
0.0
 11
416.509289
 21
48.463240
 31
0.0
  0
LINE
  5
15b
100
AcDbEntity
  8
Calque_1
 62
2
100
AcDbLine
 10
416.509289
 20
48.463240
 30
0.0
 11
431.519227
 21
48.463240
 31
0.0
  0
SPLINE
  5
15c
100
AcDbEntity
  8
Calque_1
 62
2
100
AcDbSpline
 70
8
 71
3
 72
8
 73
4
 74
0
 40
0
 40
0
 40
0
 40
0
 40
1
 40
1
 40
1
 40
1
 10
431.519227
 20
48.463240
 30
0.0
 10
434.557380
 20
48.463240
 30
0.0
 10
437.101230
 20
49.479296
 30
0.0
 10
439.150778
 20
51.511409
 30
0.0
  0
SPLINE
  5
15d
100
AcDbEntity
  8
Calque_1
 62
2
100
AcDbSpline
 70
8
 71
3
 72
8
 73
4
 74
0
 40
0
 40
0
 40
0
 40
0
 40
1
 40
1
 40
1
 40
1
 10
439.150778
 20
51.511409
 30
0.0
 10
441.200332
 20
53.570258
 30
0.0
 10
442.225109
 20
56.056920
 30
0.0
 10
442.225109
 20
58.971395
 30
0.0
  0
LINE
  5
15e
100
AcDbEntity
  8
Calque_1
 62
2
100
AcDbLine
 10
442.225109
 20
58.971395
 30
0.0
 11
442.225109
 21
58.971395
 31
0.0
  0
LINE
  5
15f
100
AcDbEntity
  8
Calque_1
 62
2
100
AcDbLine
 10
413.254117
 20
73.249659
 30
0.0
 11
431.808575
 21
73.249659
 31
0.0
  0
SPLINE
  5
160
100
AcDbEntity
  8
Calque_1
 62
2
100
AcDbSpline
 70
8
 71
3
 72
8
 73
4
 74
0
 40
0
 40
0
 40
0
 40
0
 40
1
 40
1
 40
1
 40
1
 10
431.808575
 20
73.249659
 30
0.0
 10
435.570102
 20
73.249659
 30
0.0
 10
438.813211
 20
71.832530
 30
0.0
 10
441.537905
 20
68.998271
 30
0.0
  0
SPLINE
  5
161
100
AcDbEntity
  8
Calque_1
 62
2
100
AcDbSpline
 70
8
 71
3
 72
8
 73
4
 74
0
 40
0
 40
0
 40
0
 40
0
 40
1
 40
1
 40
1
 40
1
 10
441.537905
 20
68.998271
 30
0.0
 10
444.262599
 20
66.190749
 30
0.0
 10
445.624946
 20
62.821721
 30
0.0
 10
445.624946
 20
58.891186
 30
0.0
  0
SPLINE
  5
162
100
AcDbEntity
  8
Calque_1
 62
2
100
AcDbSpline
 70
8
 71
3
 72
8
 73
4
 74
0
 40
0
 40
0
 40
0
 40
0
 40
1
 40
1
 40
1
 40
1
 10
445.624946
 20
58.891186
 30
0.0
 10
445.624946
 20
56.431260
 30
0.0
 10
445.034194
 20
54.158501
 30
0.0
 10
443.852690
 20
52.072908
 30
0.0
  0
SPLINE
  5
163
100
AcDbEntity
  8
Calque_1
 62
2
100
AcDbSpline
 70
8
 71
3
 72
8
 73
4
 74
0
 40
0
 40
0
 40
0
 40
0
 40
1
 40
1
 40
1
 40
1
 10
443.852690
 20
52.072908
 30
0.0
 10
442.695298
 20
49.987323
 30
0.0
 10
441.127994
 20
48.302810
 30
0.0
 10
439.150778
 20
47.019371
 30
0.0
  0
SPLINE
  5
164
100
AcDbEntity
  8
Calque_1
 62
2
100
AcDbSpline
 70
8
 71
3
 72
8
 73
4
 74
0
 40
0
 40
0
 40
0
 40
0
 40
1
 40
1
 40
1
 40
1
 10
439.150778
 20
47.019371
 30
0.0
 10
442.285386
 20
45.682451
 30
0.0
 10
444.805129
 20
43.570122
 30
0.0
 10
446.710006
 20
40.682383
 30
0.0
  0
SPLINE
  5
165
100
AcDbEntity
  8
Calque_1
 62
2
100
AcDbSpline
 70
8
 71
3
 72
8
 73
4
 74
0
 40
0
 40
0
 40
0
 40
0
 40
1
 40
1
 40
1
 40
1
 10
446.710006
 20
40.682383
 30
0.0
 10
448.638994
 20
37.794644
 30
0.0
 10
449.603488
 20
34.545941
 30
0.0
 10
449.603488
 20
30.936273
 30
0.0
  0
SPLINE
  5
166
100
AcDbEntity
  8
Calque_1
 62
2
100
AcDbSpline
 70
8
 71
3
 72
8
 73
4
 74
0
 40
0
 40
0
 40
0
 40
0
 40
1
 40
1
 40
1
 40
1
 10
449.603488
 20
30.936273
 30
0.0
 10
449.603488
 20
27.754410
 30
0.0
 10
448.819834
 20
24.813195
 30
0.0
 10
447.252527
 20
22.112626
 30
0.0
  0
SPLINE
  5
167
100
AcDbEntity
  8
Calque_1
 62
2
100
AcDbSpline
 70
8
 71
3
 72
8
 73
4
 74
0
 40
0
 40
0
 40
0
 40
0
 40
1
 40
1
 40
1
 40
1
 10
447.252527
 20
22.112626
 30
0.0
 10
445.685226
 20
19.412051
 30
0.0
 10
443.563339
 20
17.272985
 30
0.0
 10
440.886867
 20
15.695429
 30
0.0
  0
SPLINE
  5
168
100
AcDbEntity
  8
Calque_1
 62
2
100
AcDbSpline
 70
8
 71
3
 72
8
 73
4
 74
0
 40
0
 40
0
 40
0
 40
0
 40
1
 40
1
 40
1
 40
1
 10
440.886867
 20
15.695429
 30
0.0
 10
438.234512
 20
14.144603
 30
0.0
 10
435.341030
 20
13.369190
 30
0.0
 10
432.206422
 20
13.369190
 30
0.0
  0
LINE
  5
169
100
AcDbEntity
  8
Calque_1
 62
2
100
AcDbLine
 10
432.206422
 20
13.369190
 30
0.0
 11
413.254117
 21
13.369190
 31
0.0
  0
LINE
  5
16a
100
AcDbEntity
  8
Calque_1
 62
2
100
AcDbLine
 10
413.254117
 20
13.369190
 30
0.0
 11
413.254117
 21
73.249659
 31
0.0
  0
LINE
  5
16b
100
AcDbEntity
  8
Calque_1
 62
2
100
AcDbLine
 10
413.254117
 20
73.249659
 30
0.0
 11
413.254117
 21
73.249659
 31
0.0
  0
SPLINE
  5
16c
100
AcDbEntity
  8
Calque_1
 62
2
100
AcDbSpline
 70
8
 71
3
 72
8
 73
4
 74
0
 40
0
 40
0
 40
0
 40
0
 40
1
 40
1
 40
1
 40
1
 10
477.163896
 20
54.679902
 30
0.0
 10
479.695691
 20
54.679902
 30
0.0
 10
482.118981
 20
54.131764
 30
0.0
 10
484.433766
 20
53.035488
 30
0.0
  0
SPLINE
  5
16d
100
AcDbEntity
  8
Calque_1
 62
2
100
AcDbSpline
 70
8
 71
3
 72
8
 73
4
 74
0
 40
0
 40
0
 40
0
 40
0
 40
1
 40
1
 40
1
 40
1
 10
484.433766
 20
53.035488
 30
0.0
 10
486.748551
 20
51.939218
 30
0.0
 10
488.749878
 20
50.455244
 30
0.0
 10
490.437745
 20
48.583565
 30
0.0
  0
SPLINE
  5
16e
100
AcDbEntity
  8
Calque_1
 62
2
100
AcDbSpline
 70
8
 71
3
 72
8
 73
4
 74
0
 40
0
 40
0
 40
0
 40
0
 40
1
 40
1
 40
1
 40
1
 10
490.437745
 20
48.583565
 30
0.0
 10
492.125606
 20
46.711879
 30
0.0
 10
493.463842
 20
44.479228
 30
0.0
 10
494.452453
 20
41.885613
 30
0.0
  0
SPLINE
  5
16f
100
AcDbEntity
  8
Calque_1
 62
2
100
AcDbSpline
 70
8
 71
3
 72
8
 73
4
 74
0
 40
0
 40
0
 40
0
 40
0
 40
1
 40
1
 40
1
 40
1
 10
494.452453
 20
41.885613
 30
0.0
 10
495.441058
 20
39.291997
 30
0.0
 10
495.935360
 20
36.578057
 30
0.0
 10
495.935360
 20
33.743791
 30
0.0
  0
SPLINE
  5
170
100
AcDbEntity
  8
Calque_1
 62
2
100
AcDbSpline
 70
8
 71
3
 72
8
 73
4
 74
0
 40
0
 40
0
 40
0
 40
0
 40
1
 40
1
 40
1
 40
1
 10
495.935360
 20
33.743791
 30
0.0
 10
495.935360
 20
30.882789
 30
0.0
 10
495.441058
 20
28.155480
 30
0.0
 10
494.452453
 20
25.561865
 30
0.0
  0
SPLINE
  5
171
100
AcDbEntity
  8
Calque_1
 62
2
100
AcDbSpline
 70
8
 71
3
 72
8
 73
4
 74
0
 40
0
 40
0
 40
0
 40
0
 40
1
 40
1
 40
1
 40
1
 10
494.452453
 20
25.561865
 30
0.0
 10
493.463842
 20
22.968249
 30
0.0
 10
492.125606
 20
20.735598
 30
0.0
 10
490.437745
 20
18.863912
 30
0.0
  0
SPLINE
  5
172
100
AcDbEntity
  8
Calque_1
 62
2
100
AcDbSpline
 70
8
 71
3
 72
8
 73
4
 74
0
 40
0
 40
0
 40
0
 40
0
 40
1
 40
1
 40
1
 40
1
 10
490.437745
 20
18.863912
 30
0.0
 10
488.749878
 20
17.018970
 30
0.0
 10
486.748551
 20
15.534996
 30
0.0
 10
484.433766
 20
14.411990
 30
0.0
  0
SPLINE
  5
173
100
AcDbEntity
  8
Calque_1
 62
2
100
AcDbSpline
 70
8
 71
3
 72
8
 73
4
 74
0
 40
0
 40
0
 40
0
 40
0
 40
1
 40
1
 40
1
 40
1
 10
484.433766
 20
14.411990
 30
0.0
 10
482.118981
 20
13.315713
 30
0.0
 10
479.695691
 20
12.767575
 30
0.0
 10
477.163896
 20
12.767575
 30
0.0
  0
SPLINE
  5
174
100
AcDbEntity
  8
Calque_1
 62
2
100
AcDbSpline
 70
8
 71
3
 72
8
 73
4
 74
0
 40
0
 40
0
 40
0
 40
0
 40
1
 40
1
 40
1
 40
1
 10
477.163896
 20
12.767575
 30
0.0
 10
471.979740
 20
12.767575
 30
0.0
 10
467.555123
 20
14.813059
 30
0.0
 10
463.890046
 20
18.904028
 30
0.0
  0
SPLINE
  5
175
100
AcDbEntity
  8
Calque_1
 62
2
100
AcDbSpline
 70
8
 71
3
 72
8
 73
4
 74
0
 40
0
 40
0
 40
0
 40
0
 40
1
 40
1
 40
1
 40
1
 10
463.890046
 20
18.904028
 30
0.0
 10
460.224970
 20
22.994989
 30
0.0
 10
458.392431
 20
27.941577
 30
0.0
 10
458.392431
 20
33.743791
 30
0.0
  0
SPLINE
  5
176
100
AcDbEntity
  8
Calque_1
 62
2
100
AcDbSpline
 70
8
 71
3
 72
8
 73
4
 74
0
 40
0
 40
0
 40
0
 40
0
 40
1
 40
1
 40
1
 40
1
 10
458.392431
 20
33.743791
 30
0.0
 10
458.392431
 20
37.540636
 30
0.0
 10
459.224309
 20
41.043358
 30
0.0
 10
460.888066
 20
44.251957
 30
0.0
  0
SPLINE
  5
177
100
AcDbEntity
  8
Calque_1
 62
2
100
AcDbSpline
 70
8
 71
3
 72
8
 73
4
 74
0
 40
0
 40
0
 40
0
 40
0
 40
1
 40
1
 40
1
 40
1
 10
460.888066
 20
44.251957
 30
0.0
 10
462.575927
 20
47.487292
 30
0.0
 10
464.854543
 20
50.027431
 30
0.0
 10
467.723914
 20
51.872374
 30
0.0
  0
SPLINE
  5
178
100
AcDbEntity
  8
Calque_1
 62
2
100
AcDbSpline
 70
8
 71
3
 72
8
 73
4
 74
0
 40
0
 40
0
 40
0
 40
0
 40
1
 40
1
 40
1
 40
1
 10
467.723914
 20
51.872374
 30
0.0
 10
470.617396
 20
53.744060
 30
0.0
 10
473.764056
 20
54.679902
 30
0.0
 10
477.163896
 20
54.679902
 30
0.0
  0
LINE
  5
179
100
AcDbEntity
  8
Calque_1
 62
2
100
AcDbLine
 10
477.163896
 20
54.679902
 30
0.0
 11
477.163896
 21
54.679902
 31
0.0
  0
SPLINE
  5
17a
100
AcDbEntity
  8
Calque_1
 62
2
100
AcDbSpline
 70
8
 71
3
 72
8
 73
4
 74
0
 40
0
 40
0
 40
0
 40
0
 40
1
 40
1
 40
1
 40
1
 10
461.611436
 20
33.743791
 30
0.0
 10
461.611436
 20
28.957630
 30
0.0
 10
463.130513
 20
24.853297
 30
0.0
 10
466.168665
 20
21.430791
 30
0.0
  0
SPLINE
  5
17b
100
AcDbEntity
  8
Calque_1
 62
2
100
AcDbSpline
 70
8
 71
3
 72
8
 73
4
 74
0
 40
0
 40
0
 40
0
 40
0
 40
1
 40
1
 40
1
 40
1
 10
466.168665
 20
21.430791
 30
0.0
 10
469.230935
 20
18.035030
 30
0.0
 10
472.920126
 20
16.337149
 30
0.0
 10
477.236237
 20
16.337149
 30
0.0
  0
SPLINE
  5
17c
100
AcDbEntity
  8
Calque_1
 62
2
100
AcDbSpline
 70
8
 71
3
 72
8
 73
4
 74
0
 40
0
 40
0
 40
0
 40
0
 40
1
 40
1
 40
1
 40
1
 10
477.236237
 20
16.337149
 30
0.0
 10
481.552343
 20
16.337149
 30
0.0
 10
485.229475
 20
18.035030
 30
0.0
 10
488.267634
 20
21.430791
 30
0.0
  0
SPLINE
  5
17d
100
AcDbEntity
  8
Calque_1
 62
2
100
AcDbSpline
 70
8
 71
3
 72
8
 73
4
 74
0
 40
0
 40
0
 40
0
 40
0
 40
1
 40
1
 40
1
 40
1
 10
488.267634
 20
21.430791
 30
0.0
 10
491.329904
 20
24.853297
 30
0.0
 10
492.861038
 20
28.957630
 30
0.0
 10
492.861038
 20
33.743791
 30
0.0
  0
SPLINE
  5
17e
100
AcDbEntity
  8
Calque_1
 62
2
100
AcDbSpline
 70
8
 71
3
 72
8
 73
4
 74
0
 40
0
 40
0
 40
0
 40
0
 40
1
 40
1
 40
1
 40
1
 10
492.861038
 20
33.743791
 30
0.0
 10
492.861038
 20
38.503216
 30
0.0
 10
491.329904
 20
42.580809
 30
0.0
 10
488.267634
 20
45.976571
 30
0.0
  0
SPLINE
  5
17f
100
AcDbEntity
  8
Calque_1
 62
2
100
AcDbSpline
 70
8
 71
3
 72
8
 73
4
 74
0
 40
0
 40
0
 40
0
 40
0
 40
1
 40
1
 40
1
 40
1
 10
488.267634
 20
45.976571
 30
0.0
 10
485.229475
 20
49.372340
 30
0.0
 10
481.552343
 20
51.070224
 30
0.0
 10
477.236237
 20
51.070224
 30
0.0
  0
SPLINE
  5
180
100
AcDbEntity
  8
Calque_1
 62
2
100
AcDbSpline
 70
8
 71
3
 72
8
 73
4
 74
0
 40
0
 40
0
 40
0
 40
0
 40
1
 40
1
 40
1
 40
1
 10
477.236237
 20
51.070224
 30
0.0
 10
472.920126
 20
51.070224
 30
0.0
 10
469.230935
 20
49.372340
 30
0.0
 10
466.168665
 20
45.976571
 30
0.0
  0
SPLINE
  5
181
100
AcDbEntity
  8
Calque_1
 62
2
100
AcDbSpline
 70
8
 71
3
 72
8
 73
4
 74
0
 40
0
 40
0
 40
0
 40
0
 40
1
 40
1
 40
1
 40
1
 10
466.168665
 20
45.976571
 30
0.0
 10
463.130513
 20
42.580809
 30
0.0
 10
461.611436
 20
38.503216
 30
0.0
 10
461.611436
 20
33.743791
 30
0.0
  0
LINE
  5
182
100
AcDbEntity
  8
Calque_1
 62
2
100
AcDbLine
 10
461.611436
 20
33.743791
 30
0.0
 11
461.611436
 21
33.743791
 31
0.0
  0
LINE
  5
183
100
AcDbEntity
  8
Calque_1
 62
2
100
AcDbLine
 10
533.622954
 20
13.369190
 30
0.0
 11
530.150776
 21
13.369190
 31
0.0
  0
SPLINE
  5
184
100
AcDbEntity
  8
Calque_1
 62
2
100
AcDbSpline
 70
8
 71
3
 72
8
 73
4
 74
0
 40
0
 40
0
 40
0
 40
0
 40
1
 40
1
 40
1
 40
1
 10
530.150776
 20
13.369190
 30
0.0
 10
529.716757
 20
14.893272
 30
0.0
 10
529.499748
 20
16.684742
 30
0.0
 10
529.499748
 20
18.743598
 30
0.0
  0
LINE
  5
185
100
AcDbEntity
  8
Calque_1
 62
2
100
AcDbLine
 10
529.499748
 20
18.743598
 30
0.0
 11
529.499748
 21
21.912081
 31
0.0
  0
SPLINE
  5
186
100
AcDbEntity
  8
Calque_1
 62
2
100
AcDbSpline
 70
8
 71
3
 72
8
 73
4
 74
0
 40
0
 40
0
 40
0
 40
0
 40
1
 40
1
 40
1
 40
1
 10
529.499748
 20
21.912081
 30
0.0
 10
527.763659
 20
19.238249
 30
0.0
 10
525.677941
 20
17.032338
 30
0.0
 10
523.242596
 20
15.294349
 30
0.0
  0
SPLINE
  5
187
100
AcDbEntity
  8
Calque_1
 62
2
100
AcDbSpline
 70
8
 71
3
 72
8
 73
4
 74
0
 40
0
 40
0
 40
0
 40
0
 40
1
 40
1
 40
1
 40
1
 10
523.242596
 20
15.294349
 30
0.0
 10
520.831361
 20
13.556360
 30
0.0
 10
518.275452
 20
12.687365
 30
0.0
 10
515.574869
 20
12.687365
 30
0.0
  0
SPLINE
  5
188
100
AcDbEntity
  8
Calque_1
 62
2
100
AcDbSpline
 70
8
 71
3
 72
8
 73
4
 74
0
 40
0
 40
0
 40
0
 40
0
 40
1
 40
1
 40
1
 40
1
 10
515.574869
 20
12.687365
 30
0.0
 10
513.621765
 20
12.687365
 30
0.0
 10
511.873617
 20
13.021593
 30
0.0
 10
510.330427
 20
13.690050
 30
0.0
  0
SPLINE
  5
189
100
AcDbEntity
  8
Calque_1
 62
2
100
AcDbSpline
 70
8
 71
3
 72
8
 73
4
 74
0
 40
0
 40
0
 40
0
 40
0
 40
1
 40
1
 40
1
 40
1
 10
510.330427
 20
13.690050
 30
0.0
 10
508.811354
 20
14.385249
 30
0.0
 10
507.605736
 20
15.294352
 30
0.0
 10
506.713575
 20
16.417359
 30
0.0
  0
SPLINE
  5
18a
100
AcDbEntity
  8
Calque_1
 62
2
100
AcDbSpline
 70
8
 71
3
 72
8
 73
4
 74
0
 40
0
 40
0
 40
0
 40
0
 40
1
 40
1
 40
1
 40
1
 10
506.713575
 20
16.417359
 30
0.0
 10
505.821420
 20
17.540371
 30
0.0
 10
505.146274
 20
18.730226
 30
0.0
 10
504.688138
 20
19.986922
 30
0.0
  0
SPLINE
  5
18b
100
AcDbEntity
  8
Calque_1
 62
2
100
AcDbSpline
 70
8
 71
3
 72
8
 73
4
 74
0
 40
0
 40
0
 40
0
 40
0
 40
1
 40
1
 40
1
 40
1
 10
504.688138
 20
19.986922
 30
0.0
 10
504.230008
 20
21.270361
 30
0.0
 10
504.000943
 20
22.567173
 30
0.0
 10
504.000943
 20
23.877356
 30
0.0
  0
SPLINE
  5
18c
100
AcDbEntity
  8
Calque_1
 62
2
100
AcDbSpline
 70
8
 71
3
 72
8
 73
4
 74
0
 40
0
 40
0
 40
0
 40
0
 40
1
 40
1
 40
1
 40
1
 10
504.000943
 20
23.877356
 30
0.0
 10
504.000943
 20
25.241005
 30
0.0
 10
504.181783
 20
26.497704
 30
0.0
 10
504.543464
 20
27.647454
 30
0.0
  0
SPLINE
  5
18d
100
AcDbEntity
  8
Calque_1
 62
2
100
AcDbSpline
 70
8
 71
3
 72
8
 73
4
 74
0
 40
0
 40
0
 40
0
 40
0
 40
1
 40
1
 40
1
 40
1
 10
504.543464
 20
27.647454
 30
0.0
 10
504.929261
 20
28.797203
 30
0.0
 10
505.411508
 20
29.773151
 30
0.0
 10
505.990204
 20
30.575297
 30
0.0
  0
SPLINE
  5
18e
100
AcDbEntity
  8
Calque_1
 62
2
100
AcDbSpline
 70
8
 71
3
 72
8
 73
4
 74
0
 40
0
 40
0
 40
0
 40
0
 40
1
 40
1
 40
1
 40
1
 10
505.990204
 20
30.575297
 30
0.0
 10
506.593018
 20
31.404187
 30
0.0
 10
507.376671
 20
32.139492
 30
0.0
 10
508.341165
 20
32.781212
 30
0.0
  0
SPLINE
  5
18f
100
AcDbEntity
  8
Calque_1
 62
2
100
AcDbSpline
 70
8
 71
3
 72
8
 73
4
 74
0
 40
0
 40
0
 40
0
 40
0
 40
1
 40
1
 40
1
 40
1
 10
508.341165
 20
32.781212
 30
0.0
 10
509.329770
 20
33.449668
 30
0.0
 10
510.270150
 20
33.984434
 30
0.0
 10
511.162305
 20
34.385511
 30
0.0
  0
SPLINE
  5
190
100
AcDbEntity
  8
Calque_1
 62
2
100
AcDbSpline
 70
8
 71
3
 72
8
 73
4
 74
0
 40
0
 40
0
 40
0
 40
0
 40
1
 40
1
 40
1
 40
1
 10
511.162305
 20
34.385511
 30
0.0
 10
512.078578
 20
34.813324
 30
0.0
 10
513.211859
 20
35.174292
 30
0.0
 10
514.562151
 20
35.468416
 30
0.0
  0
SPLINE
  5
191
100
AcDbEntity
  8
Calque_1
 62
2
100
AcDbSpline
 70
8
 71
3
 72
8
 73
4
 74
0
 40
0
 40
0
 40
0
 40
0
 40
1
 40
1
 40
1
 40
1
 10
514.562151
 20
35.468416
 30
0.0
 10
515.912442
 20
35.789275
 30
0.0
 10
517.081890
 20
36.016550
 30
0.0
 10
518.070495
 20
36.150240
 30
0.0
  0
SPLINE
  5
192
100
AcDbEntity
  8
Calque_1
 62
2
100
AcDbSpline
 70
8
 71
3
 72
8
 73
4
 74
0
 40
0
 40
0
 40
0
 40
0
 40
1
 40
1
 40
1
 40
1
 10
518.070495
 20
36.150240
 30
0.0
 10
519.059100
 20
36.310674
 30
0.0
 10
520.288828
 20
36.430995
 30
0.0
 10
521.759679
 20
36.511205
 30
0.0
  0
SPLINE
  5
193
100
AcDbEntity
  8
Calque_1
 62
2
100
AcDbSpline
 70
8
 71
3
 72
8
 73
4
 74
0
 40
0
 40
0
 40
0
 40
0
 40
1
 40
1
 40
1
 40
1
 10
521.759679
 20
36.511205
 30
0.0
 10
523.230537
 20
36.591422
 30
0.0
 10
524.387930
 20
36.631530
 30
0.0
 10
525.231857
 20
36.631530
 30
0.0
  0
SPLINE
  5
194
100
AcDbEntity
  8
Calque_1
 62
2
100
AcDbSpline
 70
8
 71
3
 72
8
 73
4
 74
0
 40
0
 40
0
 40
0
 40
0
 40
1
 40
1
 40
1
 40
1
 10
525.231857
 20
36.631530
 30
0.0
 10
526.099902
 20
36.658294
 30
0.0
 10
527.197015
 20
36.671676
 30
0.0
 10
528.523195
 20
36.671676
 30
0.0
  0
LINE
  5
195
100
AcDbEntity
  8
Calque_1
 62
2
100
AcDbLine
 10
528.523195
 20
36.671676
 30
0.0
 11
529.499748
 21
36.671676
 31
0.0
  0
SPLINE
  5
196
100
AcDbEntity
  8
Calque_1
 62
2
100
AcDbSpline
 70
8
 71
3
 72
8
 73
4
 74
0
 40
0
 40
0
 40
0
 40
0
 40
1
 40
1
 40
1
 40
1
 10
529.499748
 20
36.671676
 30
0.0
 10
529.379187
 20
41.083504
 30
0.0
 10
528.197681
 20
44.599594
 30
0.0
 10
525.955228
 20
47.219947
 30
0.0
  0
SPLINE
  5
197
100
AcDbEntity
  8
Calque_1
 62
2
100
AcDbSpline
 70
8
 71
3
 72
8
 73
4
 74
0
 40
0
 40
0
 40
0
 40
0
 40
1
 40
1
 40
1
 40
1
 10
525.955228
 20
47.219947
 30
0.0
 10
523.736892
 20
49.840306
 30
0.0
 10
521.168928
 20
51.150485
 30
0.0
 10
518.251335
 20
51.150485
 30
0.0
  0
SPLINE
  5
198
100
AcDbEntity
  8
Calque_1
 62
2
100
AcDbSpline
 70
8
 71
3
 72
8
 73
4
 74
0
 40
0
 40
0
 40
0
 40
0
 40
1
 40
1
 40
1
 40
1
 10
518.251335
 20
51.150485
 30
0.0
 10
516.539357
 20
51.150485
 30
0.0
 10
514.863548
 20
50.655824
 30
0.0
 10
513.223909
 20
49.666500
 30
0.0
  0
SPLINE
  5
199
100
AcDbEntity
  8
Calque_1
 62
2
100
AcDbSpline
 70
8
 71
3
 72
8
 73
4
 74
0
 40
0
 40
0
 40
0
 40
0
 40
1
 40
1
 40
1
 40
1
 10
513.223909
 20
49.666500
 30
0.0
 10
511.608386
 20
48.677184
 30
0.0
 10
510.197814
 20
47.233315
 30
0.0
 10
508.992194
 20
45.334892
 30
0.0
  0
LINE
  5
19a
100
AcDbEntity
  8
Calque_1
 62
2
100
AcDbLine
 10
508.992194
 20
45.334892
 30
0.0
 11
506.424227
 21
47.219947
 31
0.0
  0
SPLINE
  5
19b
100
AcDbEntity
  8
Calque_1
 62
2
100
AcDbSpline
 70
8
 71
3
 72
8
 73
4
 74
0
 40
0
 40
0
 40
0
 40
0
 40
1
 40
1
 40
1
 40
1
 10
506.424227
 20
47.219947
 30
0.0
 10
507.895085
 20
49.733352
 30
0.0
 10
509.667343
 20
51.618403
 30
0.0
 10
511.741002
 20
52.875099
 30
0.0
  0
SPLINE
  5
19c
100
AcDbEntity
  8
Calque_1
 62
2
100
AcDbSpline
 70
8
 71
3
 72
8
 73
4
 74
0
 40
0
 40
0
 40
0
 40
0
 40
1
 40
1
 40
1
 40
1
 10
511.741002
 20
52.875099
 30
0.0
 10
513.814667
 20
54.131802
 30
0.0
 10
515.984778
 20
54.760153
 30
0.0
 10
518.251335
 20
54.760153
 30
0.0
  0
SPLINE
  5
19d
100
AcDbEntity
  8
Calque_1
 62
2
100
AcDbSpline
 70
8
 71
3
 72
8
 73
4
 74
0
 40
0
 40
0
 40
0
 40
0
 40
1
 40
1
 40
1
 40
1
 10
518.251335
 20
54.760153
 30
0.0
 10
520.083874
 20
54.760153
 30
0.0
 10
521.844077
 20
54.345709
 30
0.0
 10
523.531944
 20
53.516819
 30
0.0
  0
SPLINE
  5
19e
100
AcDbEntity
  8
Calque_1
 62
2
100
AcDbSpline
 70
8
 71
3
 72
8
 73
4
 74
0
 40
0
 40
0
 40
0
 40
0
 40
1
 40
1
 40
1
 40
1
 10
523.531944
 20
53.516819
 30
0.0
 10
525.243916
 20
52.714673
 30
0.0
 10
526.775048
 20
51.564926
 30
0.0
 10
528.125339
 20
50.067580
 30
0.0
  0
SPLINE
  5
19f
100
AcDbEntity
  8
Calque_1
 62
2
100
AcDbSpline
 70
8
 71
3
 72
8
 73
4
 74
0
 40
0
 40
0
 40
0
 40
0
 40
1
 40
1
 40
1
 40
1
 10
528.125339
 20
50.067580
 30
0.0
 10
529.475631
 20
48.596971
 30
0.0
 10
530.560688
 20
46.698548
 30
0.0
 10
531.380511
 20
44.372313
 30
0.0
  0
SPLINE
  5
1a0
100
AcDbEntity
  8
Calque_1
 62
2
100
AcDbSpline
 70
8
 71
3
 72
8
 73
4
 74
0
 40
0
 40
0
 40
0
 40
0
 40
1
 40
1
 40
1
 40
1
 10
531.380511
 20
44.372313
 30
0.0
 10
532.224444
 20
42.046084
 30
0.0
 10
532.670522
 20
39.479205
 30
0.0
 10
532.718744
 20
36.671676
 30
0.0
  0
LINE
  5
1a1
100
AcDbEntity
  8
Calque_1
 62
2
100
AcDbLine
 10
532.718744
 20
36.671676
 30
0.0
 11
532.718744
 21
18.743639
 31
0.0
  0
SPLINE
  5
1a2
100
AcDbEntity
  8
Calque_1
 62
2
100
AcDbSpline
 70
8
 71
3
 72
8
 73
4
 74
0
 40
0
 40
0
 40
0
 40
0
 40
1
 40
1
 40
1
 40
1
 10
532.718744
 20
18.743639
 30
0.0
 10
532.718744
 20
16.417403
 30
0.0
 10
533.020147
 20
14.625934
 30
0.0
 10
533.622954
 20
13.369231
 30
0.0
  0
LINE
  5
1a3
100
AcDbEntity
  8
Calque_1
 62
2
100
AcDbLine
 10
533.622954
 20
13.369231
 30
0.0
 11
533.622954
 21
13.369190
 31
0.0
  0
SPLINE
  5
1a4
100
AcDbEntity
  8
Calque_1
 62
2
100
AcDbSpline
 70
8
 71
3
 72
8
 73
4
 74
0
 40
0
 40
0
 40
0
 40
0
 40
1
 40
1
 40
1
 40
1
 10
515.574869
 20
16.256929
 30
0.0
 10
518.347785
 20
16.256929
 30
0.0
 10
521.036309
 20
17.286353
 30
0.0
 10
523.640443
 20
19.345202
 30
0.0
  0
SPLINE
  5
1a5
100
AcDbEntity
  8
Calque_1
 62
2
100
AcDbSpline
 70
8
 71
3
 72
8
 73
4
 74
0
 40
0
 40
0
 40
0
 40
0
 40
1
 40
1
 40
1
 40
1
 10
523.640443
 20
19.345202
 30
0.0
 10
526.244576
 20
21.404058
 30
0.0
 10
528.197678
 20
23.757030
 30
0.0
 10
529.499748
 20
26.404119
 30
0.0
  0
LINE
  5
1a6
100
AcDbEntity
  8
Calque_1
 62
2
100
AcDbLine
 10
529.499748
 20
26.404119
 30
0.0
 11
529.499748
 21
34.104756
 31
0.0
  0
SPLINE
  5
1a7
100
AcDbEntity
  8
Calque_1
 62
2
100
AcDbSpline
 70
8
 71
3
 72
8
 73
4
 74
0
 40
0
 40
0
 40
0
 40
0
 40
1
 40
1
 40
1
 40
1
 10
529.499748
 20
34.104756
 30
0.0
 10
528.366466
 20
34.077992
 30
0.0
 10
527.414027
 20
34.051262
 30
0.0
 10
526.642432
 20
34.024567
 30
0.0
  0
SPLINE
  5
1a8
100
AcDbEntity
  8
Calque_1
 62
2
100
AcDbSpline
 70
8
 71
3
 72
8
 73
4
 74
0
 40
0
 40
0
 40
0
 40
0
 40
1
 40
1
 40
1
 40
1
 10
526.642432
 20
34.024567
 30
0.0
 10
525.894948
 20
33.997803
 30
0.0
 10
524.858118
 20
33.930958
 30
0.0
 10
523.531944
 20
33.824032
 30
0.0
  0
SPLINE
  5
1a9
100
AcDbEntity
  8
Calque_1
 62
2
100
AcDbSpline
 70
8
 71
3
 72
8
 73
4
 74
0
 40
0
 40
0
 40
0
 40
0
 40
1
 40
1
 40
1
 40
1
 10
523.531944
 20
33.824032
 30
0.0
 10
522.229874
 20
33.743815
 30
0.0
 10
521.120706
 20
33.636862
 30
0.0
 10
520.204440
 20
33.503172
 30
0.0
  0
SPLINE
  5
1aa
100
AcDbEntity
  8
Calque_1
 62
2
100
AcDbSpline
 70
8
 71
3
 72
8
 73
4
 74
0
 40
0
 40
0
 40
0
 40
0
 40
1
 40
1
 40
1
 40
1
 10
520.204440
 20
33.503172
 30
0.0
 10
519.288168
 20
33.396219
 30
0.0
 10
518.215166
 20
33.209049
 30
0.0
 10
516.985435
 20
32.941662
 30
0.0
  0
SPLINE
  5
1ab
100
AcDbEntity
  8
Calque_1
 62
2
100
AcDbSpline
 70
8
 71
3
 72
8
 73
4
 74
0
 40
0
 40
0
 40
0
 40
0
 40
1
 40
1
 40
1
 40
1
 10
516.985435
 20
32.941662
 30
0.0
 10
515.779820
 20
32.674282
 30
0.0
 10
514.755047
 20
32.366791
 30
0.0
 10
513.911113
 20
32.019187
 30
0.0
  0
SPLINE
  5
1ac
100
AcDbEntity
  8
Calque_1
 62
2
100
AcDbSpline
 70
8
 71
3
 72
8
 73
4
 74
0
 40
0
 40
0
 40
0
 40
0
 40
1
 40
1
 40
1
 40
1
 10
513.911113
 20
32.019187
 30
0.0
 10
513.067179
 20
31.698328
 30
0.0
 10
512.187079
 20
31.270514
 30
0.0
 10
511.270813
 20
30.735748
 30
0.0
  0
SPLINE
  5
1ad
100
AcDbEntity
  8
Calque_1
 62
2
100
AcDbSpline
 70
8
 71
3
 72
8
 73
4
 74
0
 40
0
 40
0
 40
0
 40
0
 40
1
 40
1
 40
1
 40
1
 10
511.270813
 20
30.735748
 30
0.0
 10
510.378658
 20
30.227725
 30
0.0
 10
509.655287
 20
29.652854
 30
0.0
 10
509.100702
 20
29.011134
 30
0.0
  0
SPLINE
  5
1ae
100
AcDbEntity
  8
Calque_1
 62
2
100
AcDbSpline
 70
8
 71
3
 72
8
 73
4
 74
0
 40
0
 40
0
 40
0
 40
0
 40
1
 40
1
 40
1
 40
1
 10
509.100702
 20
29.011134
 30
0.0
 10
508.546116
 20
28.396151
 30
0.0
 10
508.087980
 20
27.647478
 30
0.0
 10
507.726293
 20
26.765115
 30
0.0
  0
SPLINE
  5
1af
100
AcDbEntity
  8
Calque_1
 62
2
100
AcDbSpline
 70
8
 71
3
 72
8
 73
4
 74
0
 40
0
 40
0
 40
0
 40
0
 40
1
 40
1
 40
1
 40
1
 10
507.726293
 20
26.765115
 30
0.0
 10
507.388724
 20
25.882745
 30
0.0
 10
507.219939
 20
24.920165
 30
0.0
 10
507.219939
 20
23.877376
 30
0.0
  0
SPLINE
  5
1b0
100
AcDbEntity
  8
Calque_1
 62
2
100
AcDbSpline
 70
8
 71
3
 72
8
 73
4
 74
0
 40
0
 40
0
 40
0
 40
0
 40
1
 40
1
 40
1
 40
1
 10
507.219939
 20
23.877376
 30
0.0
 10
507.219939
 20
21.952217
 30
0.0
 10
507.943309
 20
20.200856
 30
0.0
 10
509.390050
 20
18.623293
 30
0.0
  0
SPLINE
  5
1b1
100
AcDbEntity
  8
Calque_1
 62
2
100
AcDbSpline
 70
8
 71
3
 72
8
 73
4
 74
0
 40
0
 40
0
 40
0
 40
0
 40
1
 40
1
 40
1
 40
1
 10
509.390050
 20
18.623293
 30
0.0
 10
510.836791
 20
17.045730
 30
0.0
 10
512.898397
 20
16.256949
 30
0.0
 10
515.574869
 20
16.256949
 30
0.0
  0
LINE
  5
1b2
100
AcDbEntity
  8
Calque_1
 62
2
100
AcDbLine
 10
515.574869
 20
16.256949
 30
0.0
 11
515.574869
 21
16.256929
 31
0.0
  0
LINE
  5
1b3
100
AcDbEntity
  8
Calque_1
 62
2
100
AcDbLine
 10
543.858648
 20
54.038183
 30
0.0
 11
547.330826
 21
54.038183
 31
0.0
  0
SPLINE
  5
1b4
100
AcDbEntity
  8
Calque_1
 62
2
100
AcDbSpline
 70
8
 71
3
 72
8
 73
4
 74
0
 40
0
 40
0
 40
0
 40
0
 40
1
 40
1
 40
1
 40
1
 10
547.330826
 20
54.038183
 30
0.0
 10
547.788962
 20
52.273450
 30
0.0
 10
548.018030
 20
50.481981
 30
0.0
 10
548.018030
 20
48.663775
 30
0.0
  0
LINE
  5
1b5
100
AcDbEntity
  8
Calque_1
 62
2
100
AcDbLine
 10
548.018030
 20
48.663775
 30
0.0
 11
548.018030
 21
43.610237
 31
0.0
  0
SPLINE
  5
1b6
100
AcDbEntity
  8
Calque_1
 62
2
100
AcDbSpline
 70
8
 71
3
 72
8
 73
4
 74
0
 40
0
 40
0
 40
0
 40
0
 40
1
 40
1
 40
1
 40
1
 10
548.018030
 20
43.610237
 30
0.0
 10
548.572616
 20
45.669086
 30
0.0
 10
549.862627
 20
47.808152
 30
0.0
 10
551.888064
 20
50.027434
 30
0.0
  0
SPLINE
  5
1b7
100
AcDbEntity
  8
Calque_1
 62
2
100
AcDbSpline
 70
8
 71
3
 72
8
 73
4
 74
0
 40
0
 40
0
 40
0
 40
0
 40
1
 40
1
 40
1
 40
1
 10
551.888064
 20
50.027434
 30
0.0
 10
553.913501
 20
52.246710
 30
0.0
 10
555.950994
 20
53.797533
 30
0.0
 10
558.000542
 20
54.679902
 30
0.0
  0
LINE
  5
1b8
100
AcDbEntity
  8
Calque_1
 62
2
100
AcDbLine
 10
558.000542
 20
54.679902
 30
0.0
 11
561.617394
 21
51.832269
 31
0.0
  0
SPLINE
  5
1b9
100
AcDbEntity
  8
Calque_1
 62
2
100
AcDbSpline
 70
8
 71
3
 72
8
 73
4
 74
0
 40
0
 40
0
 40
0
 40
0
 40
1
 40
1
 40
1
 40
1
 10
561.617394
 20
51.832269
 30
0.0
 10
559.495507
 20
51.832269
 30
0.0
 10
557.373621
 20
51.003379
 30
0.0
 10
555.251734
 20
49.345600
 30
0.0
  0
SPLINE
  5
1ba
100
AcDbEntity
  8
Calque_1
 62
2
100
AcDbSpline
 70
8
 71
3
 72
8
 73
4
 74
0
 40
0
 40
0
 40
0
 40
0
 40
1
 40
1
 40
1
 40
1
 10
555.251734
 20
49.345600
 30
0.0
 10
553.153959
 20
47.687827
 30
0.0
 10
551.417870
 20
45.481916
 30
0.0
 10
550.043467
 20
42.727867
 30
0.0
  0
SPLINE
  5
1bb
100
AcDbEntity
  8
Calque_1
 62
2
100
AcDbSpline
 70
8
 71
3
 72
8
 73
4
 74
0
 40
0
 40
0
 40
0
 40
0
 40
1
 40
1
 40
1
 40
1
 10
550.043467
 20
42.727867
 30
0.0
 10
548.693176
 20
40.000562
 30
0.0
 10
548.018030
 20
37.179668
 30
0.0
 10
548.018030
 20
34.265186
 30
0.0
  0
LINE
  5
1bc
100
AcDbEntity
  8
Calque_1
 62
2
100
AcDbLine
 10
548.018030
 20
34.265186
 30
0.0
 11
548.018030
 21
13.369190
 31
0.0
  0
LINE
  5
1bd
100
AcDbEntity
  8
Calque_1
 62
2
100
AcDbLine
 10
548.018030
 20
13.369190
 30
0.0
 11
544.762859
 21
13.369190
 31
0.0
  0
LINE
  5
1be
100
AcDbEntity
  8
Calque_1
 62
2
100
AcDbLine
 10
544.762859
 20
13.369190
 30
0.0
 11
544.762859
 21
48.663775
 31
0.0
  0
SPLINE
  5
1bf
100
AcDbEntity
  8
Calque_1
 62
2
100
AcDbSpline
 70
8
 71
3
 72
8
 73
4
 74
0
 40
0
 40
0
 40
0
 40
0
 40
1
 40
1
 40
1
 40
1
 10
544.762859
 20
48.663775
 30
0.0
 10
544.762859
 20
50.963274
 30
0.0
 10
544.461455
 20
52.754743
 30
0.0
 10
543.858648
 20
54.038183
 30
0.0
  0
LINE
  5
1c0
100
AcDbEntity
  8
Calque_1
 62
2
100
AcDbLine
 10
543.858648
 20
54.038183
 30
0.0
 11
543.858648
 21
54.038183
 31
0.0
  0
LINE
  5
1c1
100
AcDbEntity
  8
Calque_1
 62
2
100
AcDbLine
 10
600.968744
 20
13.369190
 30
0.0
 11
597.496567
 21
13.369190
 31
0.0
  0
SPLINE
  5
1c2
100
AcDbEntity
  8
Calque_1
 62
2
100
AcDbSpline
 70
8
 71
3
 72
8
 73
4
 74
0
 40
0
 40
0
 40
0
 40
0
 40
1
 40
1
 40
1
 40
1
 10
597.496567
 20
13.369190
 30
0.0
 10
597.086658
 20
14.946753
 30
0.0
 10
596.881704
 20
16.738222
 30
0.0
 10
596.881704
 20
18.743598
 30
0.0
  0
LINE
  5
1c3
100
AcDbEntity
  8
Calque_1
 62
2
100
AcDbLine
 10
596.881704
 20
18.743598
 30
0.0
 11
596.881704
 21
23.797135
 31
0.0
  0
SPLINE
  5
1c4
100
AcDbEntity
  8
Calque_1
 62
2
100
AcDbSpline
 70
8
 71
3
 72
8
 73
4
 74
0
 40
0
 40
0
 40
0
 40
0
 40
1
 40
1
 40
1
 40
1
 10
596.881704
 20
23.797135
 30
0.0
 10
595.965432
 20
21.016350
 30
0.0
 10
594.144949
 20
18.476211
 30
0.0
 10
591.420255
 20
16.176719
 30
0.0
  0
SPLINE
  5
1c5
100
AcDbEntity
  8
Calque_1
 62
2
100
AcDbSpline
 70
8
 71
3
 72
8
 73
4
 74
0
 40
0
 40
0
 40
0
 40
0
 40
1
 40
1
 40
1
 40
1
 10
591.420255
 20
16.176719
 30
0.0
 10
588.719672
 20
13.903956
 30
0.0
 10
586.007034
 20
12.767575
 30
0.0
 10
583.282340
 20
12.767575
 30
0.0
  0
SPLINE
  5
1c6
100
AcDbEntity
  8
Calque_1
 62
2
100
AcDbSpline
 70
8
 71
3
 72
8
 73
4
 74
0
 40
0
 40
0
 40
0
 40
0
 40
1
 40
1
 40
1
 40
1
 10
583.282340
 20
12.767575
 30
0.0
 10
580.220071
 20
12.767575
 30
0.0
 10
577.398924
 20
13.716786
 30
0.0
 10
574.818902
 20
15.615209
 30
0.0
  0
SPLINE
  5
1c7
100
AcDbEntity
  8
Calque_1
 62
2
100
AcDbSpline
 70
8
 71
3
 72
8
 73
4
 74
0
 40
0
 40
0
 40
0
 40
0
 40
1
 40
1
 40
1
 40
1
 10
574.818902
 20
15.615209
 30
0.0
 10
572.262996
 20
17.513631
 30
0.0
 10
570.249614
 20
20.067142
 30
0.0
 10
568.778756
 20
23.275741
 30
0.0
  0
SPLINE
  5
1c8
100
AcDbEntity
  8
Calque_1
 62
2
100
AcDbSpline
 70
8
 71
3
 72
8
 73
4
 74
0
 40
0
 40
0
 40
0
 40
0
 40
1
 40
1
 40
1
 40
1
 10
568.778756
 20
23.275741
 30
0.0
 10
567.332016
 20
26.511076
 30
0.0
 10
566.608645
 20
30.000426
 30
0.0
 10
566.608645
 20
33.743791
 30
0.0
  0
SPLINE
  5
1c9
100
AcDbEntity
  8
Calque_1
 62
2
100
AcDbSpline
 70
8
 71
3
 72
8
 73
4
 74
0
 40
0
 40
0
 40
0
 40
0
 40
1
 40
1
 40
1
 40
1
 10
566.608645
 20
33.743791
 30
0.0
 10
566.608645
 20
37.487156
 30
0.0
 10
567.332016
 20
40.949770
 30
0.0
 10
568.778756
 20
44.131632
 30
0.0
  0
SPLINE
  5
1ca
100
AcDbEntity
  8
Calque_1
 62
2
100
AcDbSpline
 70
8
 71
3
 72
8
 73
4
 74
0
 40
0
 40
0
 40
0
 40
0
 40
1
 40
1
 40
1
 40
1
 10
568.778756
 20
44.131632
 30
0.0
 10
570.249614
 20
47.340231
 30
0.0
 10
572.262996
 20
49.893741
 30
0.0
 10
574.818902
 20
51.792164
 30
0.0
  0
SPLINE
  5
1cb
100
AcDbEntity
  8
Calque_1
 62
2
100
AcDbSpline
 70
8
 71
3
 72
8
 73
4
 74
0
 40
0
 40
0
 40
0
 40
0
 40
1
 40
1
 40
1
 40
1
 10
574.818902
 20
51.792164
 30
0.0
 10
577.398924
 20
53.717323
 30
0.0
 10
580.220071
 20
54.679902
 30
0.0
 10
583.282340
 20
54.679902
 30
0.0
  0
SPLINE
  5
1cc
100
AcDbEntity
  8
Calque_1
 62
2
100
AcDbSpline
 70
8
 71
3
 72
8
 73
4
 74
0
 40
0
 40
0
 40
0
 40
0
 40
1
 40
1
 40
1
 40
1
 10
583.282340
 20
54.679902
 30
0.0
 10
586.055255
 20
54.679902
 30
0.0
 10
588.792005
 20
53.556893
 30
0.0
 10
591.492587
 20
51.310874
 30
0.0
  0
SPLINE
  5
1cd
100
AcDbEntity
  8
Calque_1
 62
2
100
AcDbSpline
 70
8
 71
3
 72
8
 73
4
 74
0
 40
0
 40
0
 40
0
 40
0
 40
1
 40
1
 40
1
 40
1
 10
591.492587
 20
51.310874
 30
0.0
 10
594.193170
 20
49.091591
 30
0.0
 10
595.989542
 20
46.524713
 30
0.0
 10
596.881704
 20
43.610237
 30
0.0
  0
LINE
  5
1ce
100
AcDbEntity
  8
Calque_1
 62
2
100
AcDbLine
 10
596.881704
 20
43.610237
 30
0.0
 11
596.881704
 21
73.249659
 31
0.0
  0
LINE
  5
1cf
100
AcDbEntity
  8
Calque_1
 62
2
100
AcDbLine
 10
596.881704
 20
73.249659
 30
0.0
 11
600.100700
 21
73.249659
 31
0.0
  0
LINE
  5
1d0
100
AcDbEntity
  8
Calque_1
 62
2
100
AcDbLine
 10
600.100700
 20
73.249659
 30
0.0
 11
600.100700
 21
18.743598
 31
0.0
  0
SPLINE
  5
1d1
100
AcDbEntity
  8
Calque_1
 62
2
100
AcDbSpline
 70
8
 71
3
 72
8
 73
4
 74
0
 40
0
 40
0
 40
0
 40
0
 40
1
 40
1
 40
1
 40
1
 10
600.100700
 20
18.743598
 30
0.0
 10
600.100700
 20
16.444099
 30
0.0
 10
600.390048
 20
14.652629
 30
0.0
 10
600.968744
 20
13.369190
 30
0.0
  0
LINE
  5
1d2
100
AcDbEntity
  8
Calque_1
 62
2
100
AcDbLine
 10
600.968744
 20
13.369190
 30
0.0
 11
600.968744
 21
13.369190
 31
0.0
  0
SPLINE
  5
1d3
100
AcDbEntity
  8
Calque_1
 62
2
100
AcDbSpline
 70
8
 71
3
 72
8
 73
4
 74
0
 40
0
 40
0
 40
0
 40
0
 40
1
 40
1
 40
1
 40
1
 10
592.830830
 20
21.430791
 30
0.0
 10
595.531413
 20
24.826560
 30
0.0
 10
596.881704
 20
28.930893
 30
0.0
 10
596.881704
 20
33.743791
 30
0.0
  0
SPLINE
  5
1d4
100
AcDbEntity
  8
Calque_1
 62
2
100
AcDbSpline
 70
8
 71
3
 72
8
 73
4
 74
0
 40
0
 40
0
 40
0
 40
0
 40
1
 40
1
 40
1
 40
1
 10
596.881704
 20
33.743791
 30
0.0
 10
596.881704
 20
38.556689
 30
0.0
 10
595.543468
 20
42.647654
 30
0.0
 10
592.866996
 20
46.016686
 30
0.0
  0
SPLINE
  5
1d5
100
AcDbEntity
  8
Calque_1
 62
2
100
AcDbSpline
 70
8
 71
3
 72
8
 73
4
 74
0
 40
0
 40
0
 40
0
 40
0
 40
1
 40
1
 40
1
 40
1
 10
592.866996
 20
46.016686
 30
0.0
 10
590.190524
 20
49.385711
 30
0.0
 10
586.995639
 20
51.070224
 30
0.0
 10
583.282340
 20
51.070224
 30
0.0
  0
SPLINE
  5
1d6
100
AcDbEntity
  8
Calque_1
 62
2
100
AcDbSpline
 70
8
 71
3
 72
8
 73
4
 74
0
 40
0
 40
0
 40
0
 40
0
 40
1
 40
1
 40
1
 40
1
 10
583.282340
 20
51.070224
 30
0.0
 10
579.593146
 20
51.070224
 30
0.0
 10
576.398258
 20
49.385711
 30
0.0
 10
573.697675
 20
46.016686
 30
0.0
  0
SPLINE
  5
1d7
100
AcDbEntity
  8
Calque_1
 62
2
100
AcDbSpline
 70
8
 71
3
 72
8
 73
4
 74
0
 40
0
 40
0
 40
0
 40
0
 40
1
 40
1
 40
1
 40
1
 10
573.697675
 20
46.016686
 30
0.0
 10
570.997092
 20
42.647654
 30
0.0
 10
569.646801
 20
38.556689
 30
0.0
 10
569.646801
 20
33.743791
 30
0.0
  0
SPLINE
  5
1d8
100
AcDbEntity
  8
Calque_1
 62
2
100
AcDbSpline
 70
8
 71
3
 72
8
 73
4
 74
0
 40
0
 40
0
 40
0
 40
0
 40
1
 40
1
 40
1
 40
1
 10
569.646801
 20
33.743791
 30
0.0
 10
569.646801
 20
28.957630
 30
0.0
 10
570.997092
 20
24.853297
 30
0.0
 10
573.697675
 20
21.430791
 30
0.0
  0
SPLINE
  5
1d9
100
AcDbEntity
  8
Calque_1
 62
2
100
AcDbSpline
 70
8
 71
3
 72
8
 73
4
 74
0
 40
0
 40
0
 40
0
 40
0
 40
1
 40
1
 40
1
 40
1
 10
573.697675
 20
21.430791
 30
0.0
 10
576.398258
 20
18.035030
 30
0.0
 10
579.593146
 20
16.337149
 30
0.0
 10
583.282340
 20
16.337149
 30
0.0
  0
SPLINE
  5
1da
100
AcDbEntity
  8
Calque_1
 62
2
100
AcDbSpline
 70
8
 71
3
 72
8
 73
4
 74
0
 40
0
 40
0
 40
0
 40
0
 40
1
 40
1
 40
1
 40
1
 10
583.282340
 20
16.337149
 30
0.0
 10
586.971528
 20
16.337149
 30
0.0
 10
590.154358
 20
18.035030
 30
0.0
 10
592.830830
 20
21.430791
 30
0.0
  0
LINE
  5
1db
100
AcDbEntity
  8
Calque_1
 62
2
100
AcDbLine
 10
592.830830
 20
21.430791
 30
0.0
 11
592.830830
 21
21.430791
 31
0.0
  0
SPLINE
  5
1dc
100
AcDbEntity
  8
Calque_1
 62
7
100
AcDbSpline
 70
8
 71
3
 72
8
 73
4
 74
0
 40
0
 40
0
 40
0
 40
0
 40
1
 40
1
 40
1
 40
1
 10
430.377197
 20
314.508826
 30
0.0
 10
371.047171
 20
314.508826
 30
0.0
 10
322.585410
 20
266.047037
 30
0.0
 10
322.585382
 20
206.717011
 30
0.0
  0
SPLINE
  5
1dd
100
AcDbEntity
  8
Calque_1
 62
7
100
AcDbSpline
 70
8
 71
3
 72
8
 73
4
 74
0
 40
0
 40
0
 40
0
 40
0
 40
1
 40
1
 40
1
 40
1
 10
322.585382
 20
206.717011
 30
0.0
 10
322.585382
 20
147.387014
 30
0.0
 10
371.047171
 20
98.921576
 30
0.0
 10
430.377197
 20
98.921576
 30
0.0
  0
SPLINE
  5
1de
100
AcDbEntity
  8
Calque_1
 62
7
100
AcDbSpline
 70
8
 71
3
 72
8
 73
4
 74
0
 40
0
 40
0
 40
0
 40
0
 40
1
 40
1
 40
1
 40
1
 10
430.377197
 20
98.921576
 30
0.0
 10
489.707194
 20
98.921576
 30
0.0
 10
538.168983
 20
147.387014
 30
0.0
 10
538.168983
 20
206.717011
 30
0.0
  0
SPLINE
  5
1df
100
AcDbEntity
  8
Calque_1
 62
7
100
AcDbSpline
 70
8
 71
3
 72
8
 73
4
 74
0
 40
0
 40
0
 40
0
 40
0
 40
1
 40
1
 40
1
 40
1
 10
538.168983
 20
206.717011
 30
0.0
 10
538.168983
 20
266.047037
 30
0.0
 10
489.707194
 20
314.508826
 30
0.0
 10
430.377197
 20
314.508826
 30
0.0
  0
LINE
  5
1e0
100
AcDbEntity
  8
Calque_1
 62
7
100
AcDbLine
 10
430.377197
 20
314.508826
 30
0.0
 11
430.377197
 21
314.508826
 31
0.0
  0
SPLINE
  5
1e1
100
AcDbEntity
  8
Calque_1
 62
7
100
AcDbSpline
 70
8
 71
3
 72
8
 73
4
 74
0
 40
0
 40
0
 40
0
 40
0
 40
1
 40
1
 40
1
 40
1
 10
430.377197
 20
280.347716
 30
0.0
 10
471.245768
 20
280.347716
 30
0.0
 10
504.011514
 20
247.585583
 30
0.0
 10
504.011514
 20
206.717011
 30
0.0
  0
SPLINE
  5
1e2
100
AcDbEntity
  8
Calque_1
 62
7
100
AcDbSpline
 70
8
 71
3
 72
8
 73
4
 74
0
 40
0
 40
0
 40
0
 40
0
 40
1
 40
1
 40
1
 40
1
 10
504.011514
 20
206.717011
 30
0.0
 10
504.011514
 20
165.848439
 30
0.0
 10
471.245768
 20
133.082722
 30
0.0
 10
430.377197
 20
133.082722
 30
0.0
  0
SPLINE
  5
1e3
100
AcDbEntity
  8
Calque_1
 62
7
100
AcDbSpline
 70
8
 71
3
 72
8
 73
4
 74
0
 40
0
 40
0
 40
0
 40
0
 40
1
 40
1
 40
1
 40
1
 10
430.377197
 20
133.082722
 30
0.0
 10
389.508625
 20
133.082722
 30
0.0
 10
356.742879
 20
165.848439
 30
0.0
 10
356.742879
 20
206.717011
 30
0.0
  0
SPLINE
  5
1e4
100
AcDbEntity
  8
Calque_1
 62
7
100
AcDbSpline
 70
8
 71
3
 72
8
 73
4
 74
0
 40
0
 40
0
 40
0
 40
0
 40
1
 40
1
 40
1
 40
1
 10
356.742879
 20
206.717011
 30
0.0
 10
356.742879
 20
247.585583
 30
0.0
 10
389.508625
 20
280.347716
 30
0.0
 10
430.377197
 20
280.347716
 30
0.0
  0
LINE
  5
1e5
100
AcDbEntity
  8
Calque_1
 62
7
100
AcDbLine
 10
430.377197
 20
280.347716
 30
0.0
 11
430.377197
 21
280.347716
 31
0.0
  0
SPLINE
  5
1e6
100
AcDbEntity
  8
Calque_1
 62
7
100
AcDbSpline
 70
8
 71
3
 72
8
 73
4
 74
0
 40
0
 40
0
 40
0
 40
0
 40
1
 40
1
 40
1
 40
1
 10
430.377197
 20
275.647559
 30
0.0
 10
392.436398
 20
275.647559
 30
0.0
 10
361.446620
 20
244.657753
 30
0.0
 10
361.446620
 20
206.716983
 30
0.0
  0
SPLINE
  5
1e7
100
AcDbEntity
  8
Calque_1
 62
7
100
AcDbSpline
 70
8
 71
3
 72
8
 73
4
 74
0
 40
0
 40
0
 40
0
 40
0
 40
1
 40
1
 40
1
 40
1
 10
361.446620
 20
206.716983
 30
0.0
 10
361.446620
 20
168.776241
 30
0.0
 10
392.436398
 20
137.782822
 30
0.0
 10
430.377197
 20
137.782822
 30
0.0
  0
SPLINE
  5
1e8
100
AcDbEntity
  8
Calque_1
 62
7
100
AcDbSpline
 70
8
 71
3
 72
8
 73
4
 74
0
 40
0
 40
0
 40
0
 40
0
 40
1
 40
1
 40
1
 40
1
 10
430.377197
 20
137.782822
 30
0.0
 10
468.317939
 20
137.782822
 30
0.0
 10
499.307745
 20
168.776241
 30
0.0
 10
499.307745
 20
206.716983
 30
0.0
  0
SPLINE
  5
1e9
100
AcDbEntity
  8
Calque_1
 62
7
100
AcDbSpline
 70
8
 71
3
 72
8
 73
4
 74
0
 40
0
 40
0
 40
0
 40
0
 40
1
 40
1
 40
1
 40
1
 10
499.307745
 20
206.716983
 30
0.0
 10
499.307745
 20
244.657753
 30
0.0
 10
468.317939
 20
275.647559
 30
0.0
 10
430.377197
 20
275.647559
 30
0.0
  0
LINE
  5
1ea
100
AcDbEntity
  8
Calque_1
 62
7
100
AcDbLine
 10
430.377197
 20
275.647559
 30
0.0
 11
430.377197
 21
275.647559
 31
0.0
  0
LINE
  5
1eb
100
AcDbEntity
  8
Calque_1
 62
1
100
AcDbLine
 10
375.242798
 20
225.277547
 30
0.0
 11
382.038252
 21
220.961528
 31
0.0
  0
LINE
  5
1ec
100
AcDbEntity
  8
Calque_1
 62
1
100
AcDbLine
 10
382.038252
 20
220.961528
 30
0.0
 11
381.132419
 21
219.535319
 31
0.0
  0
SPLINE
  5
1ed
100
AcDbEntity
  8
Calque_1
 62
1
100
AcDbSpline
 70
8
 71
3
 72
8
 73
4
 74
0
 40
0
 40
0
 40
0
 40
0
 40
1
 40
1
 40
1
 40
1
 10
381.132419
 20
219.535319
 30
0.0
 10
378.805675
 20
215.871925
 30
0.0
 10
378.140949
 20
211.859349
 30
0.0
 10
379.138241
 20
207.497592
 30
0.0
  0
SPLINE
  5
1ee
100
AcDbEntity
  8
Calque_1
 62
1
100
AcDbSpline
 70
8
 71
3
 72
8
 73
4
 74
0
 40
0
 40
0
 40
0
 40
0
 40
1
 40
1
 40
1
 40
1
 10
379.138241
 20
207.497592
 30
0.0
 10
380.181271
 20
203.146031
 30
0.0
 10
382.576426
 20
199.780239
 30
0.0
 10
386.323705
 20
197.400217
 30
0.0
  0
SPLINE
  5
1ef
100
AcDbEntity
  8
Calque_1
 62
1
100
AcDbSpline
 70
8
 71
3
 72
8
 73
4
 74
0
 40
0
 40
0
 40
0
 40
0
 40
1
 40
1
 40
1
 40
1
 10
386.323705
 20
197.400217
 30
0.0
 10
390.070999
 20
195.020186
 30
0.0
 10
394.121745
 20
194.291971
 30
0.0
 10
398.475944
 20
195.215572
 30
0.0
  0
SPLINE
  5
1f0
100
AcDbEntity
  8
Calque_1
 62
1
100
AcDbSpline
 70
8
 71
3
 72
8
 73
4
 74
0
 40
0
 40
0
 40
0
 40
0
 40
1
 40
1
 40
1
 40
1
 10
398.475944
 20
195.215572
 30
0.0
 10
402.875867
 20
196.149378
 30
0.0
 10
406.239201
 20
198.447978
 30
0.0
 10
408.565945
 20
202.111373
 30
0.0
  0
SPLINE
  5
1f1
100
AcDbEntity
  8
Calque_1
 62
1
100
AcDbSpline
 70
8
 71
3
 72
8
 73
4
 74
0
 40
0
 40
0
 40
0
 40
0
 40
1
 40
1
 40
1
 40
1
 10
408.565945
 20
202.111373
 30
0.0
 10
410.892690
 20
205.774769
 30
0.0
 10
411.525673
 20
209.768260
 30
0.0
 10
410.464895
 20
214.091847
 30
0.0
  0
SPLINE
  5
1f2
100
AcDbEntity
  8
Calque_1
 62
1
100
AcDbSpline
 70
8
 71
3
 72
8
 73
4
 74
0
 40
0
 40
0
 40
0
 40
0
 40
1
 40
1
 40
1
 40
1
 10
410.464895
 20
214.091847
 30
0.0
 10
409.449842
 20
218.425639
 30
0.0
 10
407.068669
 20
221.782551
 30
0.0
 10
403.321375
 20
224.162582
 30
0.0
  0
LINE
  5
1f3
100
AcDbEntity
  8
Calque_1
 62
1
100
AcDbLine
 10
403.321375
 20
224.162582
 30
0.0
 11
401.811284
 21
225.121691
 31
0.0
  0
LINE
  5
1f4
100
AcDbEntity
  8
Calque_1
 62
1
100
AcDbLine
 10
401.811284
 20
225.121691
 30
0.0
 11
405.914169
 21
231.581571
 31
0.0
  0
LINE
  5
1f5
100
AcDbEntity
  8
Calque_1
 62
1
100
AcDbLine
 10
405.914169
 20
231.581571
 30
0.0
 11
407.424260
 21
230.622462
 31
0.0
  0
SPLINE
  5
1f6
100
AcDbEntity
  8
Calque_1
 62
1
100
AcDbSpline
 70
8
 71
3
 72
8
 73
4
 74
0
 40
0
 40
0
 40
0
 40
0
 40
1
 40
1
 40
1
 40
1
 10
407.424260
 20
230.622462
 30
0.0
 10
410.108886
 20
228.917367
 30
0.0
 10
412.871364
 20
228.261705
 30
0.0
 10
415.711694
 20
228.655477
 30
0.0
  0
SPLINE
  5
1f7
100
AcDbEntity
  8
Calque_1
 62
1
100
AcDbSpline
 70
8
 71
3
 72
8
 73
4
 74
0
 40
0
 40
0
 40
0
 40
0
 40
1
 40
1
 40
1
 40
1
 10
415.711694
 20
228.655477
 30
0.0
 10
418.569772
 20
229.077224
 30
0.0
 10
420.780312
 20
230.518551
 30
0.0
 10
422.343316
 20
232.979458
 30
0.0
  0
SPLINE
  5
1f8
100
AcDbEntity
  8
Calque_1
 62
1
100
AcDbSpline
 70
8
 71
3
 72
8
 73
4
 74
0
 40
0
 40
0
 40
0
 40
0
 40
1
 40
1
 40
1
 40
1
 10
422.343316
 20
232.979458
 30
0.0
 10
423.977366
 20
235.552224
 30
0.0
 10
424.439918
 20
238.319608
 30
0.0
 10
423.730971
 20
241.281609
 30
0.0
  0
SPLINE
  5
1f9
100
AcDbEntity
  8
Calque_1
 62
1
100
AcDbSpline
 70
8
 71
3
 72
8
 73
4
 74
0
 40
0
 40
0
 40
0
 40
0
 40
1
 40
1
 40
1
 40
1
 10
423.730971
 20
241.281609
 30
0.0
 10
423.022010
 20
244.243620
 30
0.0
 10
421.325217
 20
246.577173
 30
0.0
 10
418.640591
 20
248.282268
 30
0.0
  0
SPLINE
  5
1fa
100
AcDbEntity
  8
Calque_1
 62
1
100
AcDbSpline
 70
8
 71
3
 72
8
 73
4
 74
0
 40
0
 40
0
 40
0
 40
0
 40
1
 40
1
 40
1
 40
1
 10
418.640591
 20
248.282268
 30
0.0
 10
415.955965
 20
249.987363
 30
0.0
 10
413.122449
 20
250.531161
 30
0.0
 10
410.140042
 20
249.913661
 30
0.0
  0
SPLINE
  5
1fb
100
AcDbEntity
  8
Calque_1
 62
1
100
AcDbSpline
 70
8
 71
3
 72
8
 73
4
 74
0
 40
0
 40
0
 40
0
 40
0
 40
1
 40
1
 40
1
 40
1
 10
410.140042
 20
249.913661
 30
0.0
 10
407.157635
 20
249.296162
 30
0.0
 10
404.849407
 20
247.701028
 30
0.0
 10
403.215357
 20
245.128262
 30
0.0
  0
LINE
  5
1fc
100
AcDbEntity
  8
Calque_1
 62
1
100
AcDbLine
 10
403.215357
 20
245.128262
 30
0.0
 11
402.362809
 21
243.785949
 31
0.0
  0
LINE
  5
1fd
100
AcDbEntity
  8
Calque_1
 62
1
100
AcDbLine
 10
402.362809
 20
243.785949
 30
0.0
 11
395.693189
 21
248.022047
 31
0.0
  0
LINE
  5
1fe
100
AcDbEntity
  8
Calque_1
 62
1
100
AcDbLine
 10
395.693189
 20
248.022047
 30
0.0
 11
396.545737
 21
249.364360
 31
0.0
  0
SPLINE
  5
1ff
100
AcDbEntity
  8
Calque_1
 62
1
100
AcDbSpline
 70
8
 71
3
 72
8
 73
4
 74
0
 40
0
 40
0
 40
0
 40
0
 40
1
 40
1
 40
1
 40
1
 10
396.545737
 20
249.364360
 30
0.0
 10
399.316517
 20
253.726877
 30
0.0
 10
403.249917
 20
256.428701
 30
0.0
 10
408.345937
 20
257.469831
 30
0.0
  0
SPLINE
  5
200
100
AcDbEntity
  8
Calque_1
 62
1
100
AcDbSpline
 70
8
 71
3
 72
8
 73
4
 74
0
 40
0
 40
0
 40
0
 40
0
 40
1
 40
1
 40
1
 40
1
 10
408.345937
 20
257.469831
 30
0.0
 10
413.469920
 20
258.493201
 30
0.0
 10
418.269100
 20
257.583974
 30
0.0
 10
422.743476
 20
254.742148
 30
0.0
  0
SPLINE
  5
201
100
AcDbEntity
  8
Calque_1
 62
1
100
AcDbSpline
 70
8
 71
3
 72
8
 73
4
 74
0
 40
0
 40
0
 40
0
 40
0
 40
1
 40
1
 40
1
 40
1
 10
422.743476
 20
254.742148
 30
0.0
 10
427.217853
 20
251.900322
 30
0.0
 10
430.053076
 20
247.960686
 30
0.0
 10
431.249146
 20
242.923240
 30
0.0
  0
SPLINE
  5
202
100
AcDbEntity
  8
Calque_1
 62
1
100
AcDbSpline
 70
8
 71
3
 72
8
 73
4
 74
0
 40
0
 40
0
 40
0
 40
0
 40
1
 40
1
 40
1
 40
1
 10
431.249146
 20
242.923240
 30
0.0
 10
432.473179
 20
237.868033
 30
0.0
 10
431.699806
 20
233.159171
 30
0.0
 10
428.929026
 20
228.796654
 30
0.0
  0
SPLINE
  5
203
100
AcDbEntity
  8
Calque_1
 62
1
100
AcDbSpline
 70
8
 71
3
 72
8
 73
4
 74
0
 40
0
 40
0
 40
0
 40
0
 40
1
 40
1
 40
1
 40
1
 10
428.929026
 20
228.796654
 30
0.0
 10
426.016155
 20
224.210418
 30
0.0
 10
421.746045
 20
221.565466
 30
0.0
 10
416.118697
 20
220.861798
 30
0.0
  0
SPLINE
  5
204
100
AcDbEntity
  8
Calque_1
 62
1
100
AcDbSpline
 70
8
 71
3
 72
8
 73
4
 74
0
 40
0
 40
0
 40
0
 40
0
 40
1
 40
1
 40
1
 40
1
 10
416.118697
 20
220.861798
 30
0.0
 10
417.908074
 20
217.252826
 30
0.0
 10
418.733421
 20
213.392736
 30
0.0
 10
418.594737
 20
209.281526
 30
0.0
  0
SPLINE
  5
205
100
AcDbEntity
  8
Calque_1
 62
1
100
AcDbSpline
 70
8
 71
3
 72
8
 73
4
 74
0
 40
0
 40
0
 40
0
 40
0
 40
1
 40
1
 40
1
 40
1
 10
418.594737
 20
209.281526
 30
0.0
 10
418.456053
 20
205.170317
 30
0.0
 10
417.294385
 20
201.394873
 30
0.0
 10
415.109731
 20
197.955196
 30
0.0
  0
SPLINE
  5
206
100
AcDbEntity
  8
Calque_1
 62
1
100
AcDbSpline
 70
8
 71
3
 72
8
 73
4
 74
0
 40
0
 40
0
 40
0
 40
0
 40
1
 40
1
 40
1
 40
1
 10
415.109731
 20
197.955196
 30
0.0
 10
412.818510
 20
194.347731
 30
0.0
 10
409.796045
 20
191.597159
 30
0.0
 10
406.042338
 20
189.703481
 30
0.0
  0
SPLINE
  5
207
100
AcDbEntity
  8
Calque_1
 62
1
100
AcDbSpline
 70
8
 71
3
 72
8
 73
4
 74
0
 40
0
 40
0
 40
0
 40
0
 40
1
 40
1
 40
1
 40
1
 10
406.042338
 20
189.703481
 30
0.0
 10
402.306378
 20
187.837776
 30
0.0
 10
398.312882
 20
187.018670
 30
0.0
 10
394.061849
 20
187.246162
 30
0.0
  0
SPLINE
  5
208
100
AcDbEntity
  8
Calque_1
 62
1
100
AcDbSpline
 70
8
 71
3
 72
8
 73
4
 74
0
 40
0
 40
0
 40
0
 40
0
 40
1
 40
1
 40
1
 40
1
 10
394.061849
 20
187.246162
 30
0.0
 10
389.810816
 20
187.473653
 30
0.0
 10
385.853605
 20
188.750770
 30
0.0
 10
382.190215
 20
191.077511
 30
0.0
  0
SPLINE
  5
209
100
AcDbEntity
  8
Calque_1
 62
1
100
AcDbSpline
 70
8
 71
3
 72
8
 73
4
 74
0
 40
0
 40
0
 40
0
 40
0
 40
1
 40
1
 40
1
 40
1
 10
382.190215
 20
191.077511
 30
0.0
 10
376.541318
 20
194.665314
 30
0.0
 10
372.942919
 20
199.658731
 30
0.0
 10
371.395019
 20
206.057765
 30
0.0
  0
SPLINE
  5
20a
100
AcDbEntity
  8
Calque_1
 62
1
100
AcDbSpline
 70
8
 71
3
 72
8
 73
4
 74
0
 40
0
 40
0
 40
0
 40
0
 40
1
 40
1
 40
1
 40
1
 10
371.395019
 20
206.057765
 30
0.0
 10
369.875080
 20
212.439036
 30
0.0
 10
370.855729
 20
218.370227
 30
0.0
 10
374.336965
 20
223.851338
 30
0.0
  0
LINE
  5
20b
100
AcDbEntity
  8
Calque_1
 62
1
100
AcDbLine
 10
374.336965
 20
223.851338
 30
0.0
 11
375.242798
 21
225.277547
 31
0.0
  0
LINE
  5
20c
100
AcDbEntity
  8
Calque_1
 62
1
100
AcDbLine
 10
375.242798
 20
225.277547
 30
0.0
 11
375.242798
 21
225.277547
 31
0.0
  0
SPLINE
  5
20d
100
AcDbEntity
  8
Calque_1
 62
1
100
AcDbSpline
 70
8
 71
3
 72
8
 73
4
 74
0
 40
0
 40
0
 40
0
 40
0
 40
1
 40
1
 40
1
 40
1
 10
456.681712
 20
199.455152
 30
0.0
 10
453.885219
 20
201.231298
 30
0.0
 10
450.764308
 20
202.094990
 30
0.0
 10
447.318978
 20
202.046228
 30
0.0
  0
SPLINE
  5
20e
100
AcDbEntity
  8
Calque_1
 62
1
100
AcDbSpline
 70
8
 71
3
 72
8
 73
4
 74
0
 40
0
 40
0
 40
0
 40
0
 40
1
 40
1
 40
1
 40
1
 10
447.318978
 20
202.046228
 30
0.0
 10
443.901596
 20
201.979714
 30
0.0
 10
440.431691
 20
200.965417
 30
0.0
 10
436.909263
 20
199.003339
 30
0.0
  0
LINE
  5
20f
100
AcDbEntity
  8
Calque_1
 62
1
100
AcDbLine
 10
436.909263
 20
199.003339
 30
0.0
 11
430.323532
 21
203.186156
 31
0.0
  0
LINE
  5
210
100
AcDbEntity
  8
Calque_1
 62
1
100
AcDbLine
 10
430.323532
 20
203.186156
 30
0.0
 11
453.983428
 21
234.135323
 31
0.0
  0
LINE
  5
211
100
AcDbEntity
  8
Calque_1
 62
1
100
AcDbLine
 10
453.983428
 20
234.135323
 30
0.0
 11
488.128518
 21
212.448639
 31
0.0
  0
LINE
  5
212
100
AcDbEntity
  8
Calque_1
 62
1
100
AcDbLine
 10
488.128518
 20
212.448639
 30
0.0
 11
481.886329
 21
207.347499
 31
0.0
  0
LINE
  5
213
100
AcDbEntity
  8
Calque_1
 62
1
100
AcDbLine
 10
481.886329
 20
207.347499
 30
0.0
 11
456.046805
 21
223.759042
 31
0.0
  0
LINE
  5
214
100
AcDbEntity
  8
Calque_1
 62
1
100
AcDbLine
 10
456.046805
 20
223.759042
 30
0.0
 11
445.181918
 21
209.525878
 31
0.0
  0
SPLINE
  5
215
100
AcDbEntity
  8
Calque_1
 62
1
100
AcDbSpline
 70
8
 71
3
 72
8
 73
4
 74
0
 40
0
 40
0
 40
0
 40
0
 40
1
 40
1
 40
1
 40
1
 10
445.181918
 20
209.525878
 30
0.0
 10
450.779041
 20
209.934776
 30
0.0
 10
455.926649
 20
208.647266
 30
0.0
 10
460.624744
 20
205.663349
 30
0.0
  0
SPLINE
  5
216
100
AcDbEntity
  8
Calque_1
 62
1
100
AcDbSpline
 70
8
 71
3
 72
8
 73
4
 74
0
 40
0
 40
0
 40
0
 40
0
 40
1
 40
1
 40
1
 40
1
 10
460.624744
 20
205.663349
 30
0.0
 10
464.707609
 20
203.070186
 30
0.0
 10
467.788843
 20
199.641477
 30
0.0
 10
469.868446
 20
195.377223
 30
0.0
  0
SPLINE
  5
217
100
AcDbEntity
  8
Calque_1
 62
1
100
AcDbSpline
 70
8
 71
3
 72
8
 73
4
 74
0
 40
0
 40
0
 40
0
 40
0
 40
1
 40
1
 40
1
 40
1
 10
469.868446
 20
195.377223
 30
0.0
 10
471.965825
 20
191.140926
 30
0.0
 10
472.860328
 20
186.648225
 30
0.0
 10
472.551956
 20
181.899122
 30
0.0
  0
SPLINE
  5
218
100
AcDbEntity
  8
Calque_1
 62
1
100
AcDbSpline
 70
8
 71
3
 72
8
 73
4
 74
0
 40
0
 40
0
 40
0
 40
0
 40
1
 40
1
 40
1
 40
1
 10
472.551956
 20
181.899122
 30
0.0
 10
472.243599
 20
177.150010
 30
0.0
 10
470.775076
 20
172.706055
 30
0.0
 10
468.146387
 20
168.567257
 30
0.0
  0
SPLINE
  5
219
100
AcDbEntity
  8
Calque_1
 62
1
100
AcDbSpline
 70
8
 71
3
 72
8
 73
4
 74
0
 40
0
 40
0
 40
0
 40
0
 40
1
 40
1
 40
1
 40
1
 10
468.146387
 20
168.567257
 30
0.0
 10
465.517699
 20
164.428459
 30
0.0
 10
462.119595
 20
161.210044
 30
0.0
 10
457.952077
 20
158.912013
 30
0.0
  0
SPLINE
  5
21a
100
AcDbEntity
  8
Calque_1
 62
1
100
AcDbSpline
 70
8
 71
3
 72
8
 73
4
 74
0
 40
0
 40
0
 40
0
 40
0
 40
1
 40
1
 40
1
 40
1
 10
457.952077
 20
158.912013
 30
0.0
 10
453.784574
 20
156.613973
 30
0.0
 10
449.328908
 20
155.499721
 30
0.0
 10
444.585079
 20
155.569256
 30
0.0
  0
SPLINE
  5
21b
100
AcDbEntity
  8
Calque_1
 62
1
100
AcDbSpline
 70
8
 71
3
 72
8
 73
4
 74
0
 40
0
 40
0
 40
0
 40
0
 40
1
 40
1
 40
1
 40
1
 10
444.585079
 20
155.569256
 30
0.0
 10
439.859026
 20
155.666745
 30
0.0
 10
435.454567
 20
157.012072
 30
0.0
 10
431.371702
 20
159.605236
 30
0.0
  0
SPLINE
  5
21c
100
AcDbEntity
  8
Calque_1
 62
1
100
AcDbSpline
 70
8
 71
3
 72
8
 73
4
 74
0
 40
0
 40
0
 40
0
 40
0
 40
1
 40
1
 40
1
 40
1
 10
431.371702
 20
159.605236
 30
0.0
 10
425.862621
 20
163.104237
 30
0.0
 10
422.242681
 20
168.032845
 30
0.0
 10
420.511882
 20
174.391060
 30
0.0
  0
SPLINE
  5
21d
100
AcDbEntity
  8
Calque_1
 62
1
100
AcDbSpline
 70
8
 71
3
 72
8
 73
4
 74
0
 40
0
 40
0
 40
0
 40
0
 40
1
 40
1
 40
1
 40
1
 10
420.511882
 20
174.391060
 30
0.0
 10
418.798845
 20
180.777239
 30
0.0
 10
419.309194
 20
186.987511
 30
0.0
 10
422.042929
 20
193.021875
 30
0.0
  0
LINE
  5
21e
100
AcDbEntity
  8
Calque_1
 62
1
100
AcDbLine
 10
422.042929
 20
193.021875
 30
0.0
 11
422.841622
 21
194.928209
 31
0.0
  0
LINE
  5
21f
100
AcDbEntity
  8
Calque_1
 62
1
100
AcDbLine
 10
422.841622
 20
194.928209
 30
0.0
 11
429.511242
 21
190.692111
 31
0.0
  0
LINE
  5
220
100
AcDbEntity
  8
Calque_1
 62
1
100
AcDbLine
 10
429.511242
 20
190.692111
 30
0.0
 11
428.921810
 21
189.300424
 31
0.0
  0
SPLINE
  5
221
100
AcDbEntity
  8
Calque_1
 62
1
100
AcDbSpline
 70
8
 71
3
 72
8
 73
4
 74
0
 40
0
 40
0
 40
0
 40
0
 40
1
 40
1
 40
1
 40
1
 10
428.921810
 20
189.300424
 30
0.0
 10
427.144534
 20
184.895585
 30
0.0
 10
426.851099
 20
180.509830
 30
0.0
 10
428.041504
 20
176.143158
 30
0.0
  0
SPLINE
  5
222
100
AcDbEntity
  8
Calque_1
 62
1
100
AcDbSpline
 70
8
 71
3
 72
8
 73
4
 74
0
 40
0
 40
0
 40
0
 40
0
 40
1
 40
1
 40
1
 40
1
 10
428.041504
 20
176.143158
 30
0.0
 10
429.277620
 20
171.786699
 30
0.0
 10
431.755343
 20
168.427334
 30
0.0
 10
435.474674
 20
166.065063
 30
0.0
  0
SPLINE
  5
223
100
AcDbEntity
  8
Calque_1
 62
1
100
AcDbSpline
 70
8
 71
3
 72
8
 73
4
 74
0
 40
0
 40
0
 40
0
 40
0
 40
1
 40
1
 40
1
 40
1
 10
435.474674
 20
166.065063
 30
0.0
 10
439.697369
 20
163.383089
 30
0.0
 10
444.354077
 20
162.682087
 30
0.0
 10
449.444800
 20
163.962058
 30
0.0
  0
SPLINE
  5
224
100
AcDbEntity
  8
Calque_1
 62
1
100
AcDbSpline
 70
8
 71
3
 72
8
 73
4
 74
0
 40
0
 40
0
 40
0
 40
0
 40
1
 40
1
 40
1
 40
1
 10
449.444800
 20
163.962058
 30
0.0
 10
454.563498
 20
165.224258
 30
0.0
 10
458.605926
 20
168.190423
 30
0.0
 10
461.572081
 20
172.860554
 30
0.0
  0
SPLINE
  5
225
100
AcDbEntity
  8
Calque_1
 62
1
100
AcDbSpline
 70
8
 71
3
 72
8
 73
4
 74
0
 40
0
 40
0
 40
0
 40
0
 40
1
 40
1
 40
1
 40
1
 10
461.572081
 20
172.860554
 30
0.0
 10
464.555998
 20
177.558649
 30
0.0
 10
465.531169
 20
182.492554
 30
0.0
 10
464.497594
 20
187.662270
 30
0.0
  0
SPLINE
  5
226
100
AcDbEntity
  8
Calque_1
 62
1
100
AcDbSpline
 70
8
 71
3
 72
8
 73
4
 74
0
 40
0
 40
0
 40
0
 40
0
 40
1
 40
1
 40
1
 40
1
 10
464.497594
 20
187.662270
 30
0.0
 10
463.509758
 20
192.842181
 30
0.0
 10
460.904492
 20
196.773123
 30
0.0
 10
456.681797
 20
199.455097
 30
0.0
  0
LINE
  5
227
100
AcDbEntity
  8
Calque_1
 62
1
100
AcDbLine
 10
456.681797
 20
199.455097
 30
0.0
 11
456.681712
 21
199.455152
 31
0.0
  0
LINE
  5
228
100
AcDbEntity
  8
Calque_1
 62
7
100
AcDbLine
 10
643.321512
 20
204.506082
 30
0.0
 11
586.261089
 21
232.017358
 31
0.0
  0
LINE
  5
229
100
AcDbEntity
  8
Calque_1
 62
7
100
AcDbLine
 10
586.261089
 20
232.017358
 30
0.0
 11
586.261089
 21
216.053938
 31
0.0
  0
LINE
  5
22a
100
AcDbEntity
  8
Calque_1
 62
7
100
AcDbLine
 10
586.261089
 20
216.053938
 30
0.0
 11
558.410130
 21
205.694774
 31
0.0
  0
LINE
  5
22b
100
AcDbEntity
  8
Calque_1
 62
7
100
AcDbLine
 10
558.410130
 20
205.694774
 30
0.0
 11
586.091248
 21
193.807235
 31
0.0
  0
LINE
  5
22c
100
AcDbEntity
  8
Calque_1
 62
7
100
AcDbLine
 10
586.091248
 20
193.807235
 30
0.0
 11
586.091248
 21
179.711844
 31
0.0
  0
LINE
  5
22d
100
AcDbEntity
  8
Calque_1
 62
7
100
AcDbLine
 10
586.091248
 20
179.711844
 30
0.0
 11
643.321512
 21
204.506082
 31
0.0
  0
SPLINE
  5
22e
100
AcDbEntity
  8
Calque_1
 62
7
100
AcDbSpline
 70
8
 71
3
 72
8
 73
4
 74
0
 40
0
 40
0
 40
0
 40
0
 40
1
 40
1
 40
1
 40
1
 10
647.652014
 20
179.100551
 30
0.0
 10
645.422543
 20
179.100554
 30
0.0
 10
643.284387
 20
179.986211
 30
0.0
 10
641.707916
 20
181.562687
 30
0.0
  0
SPLINE
  5
22f
100
AcDbEntity
  8
Calque_1
 62
7
100
AcDbSpline
 70
8
 71
3
 72
8
 73
4
 74
0
 40
0
 40
0
 40
0
 40
0
 40
1
 40
1
 40
1
 40
1
 10
641.707916
 20
181.562687
 30
0.0
 10
640.131445
 20
183.139164
 30
0.0
 10
639.245795
 20
185.277323
 30
0.0
 10
639.245799
 20
187.506794
 30
0.0
  0
SPLINE
  5
230
100
AcDbEntity
  8
Calque_1
 62
7
100
AcDbSpline
 70
8
 71
3
 72
8
 73
4
 74
0
 40
0
 40
0
 40
0
 40
0
 40
1
 40
1
 40
1
 40
1
 10
639.245799
 20
187.506794
 30
0.0
 10
639.245806
 20
192.149415
 30
0.0
 10
643.009393
 20
195.913002
 30
0.0
 10
647.652014
 20
195.913008
 30
0.0
  0
SPLINE
  5
231
100
AcDbEntity
  8
Calque_1
 62
7
100
AcDbSpline
 70
8
 71
3
 72
8
 73
4
 74
0
 40
0
 40
0
 40
0
 40
0
 40
1
 40
1
 40
1
 40
1
 10
647.652014
 20
195.913008
 30
0.0
 10
652.294636
 20
195.913002
 30
0.0
 10
656.058222
 20
192.149415
 30
0.0
 10
656.058229
 20
187.506794
 30
0.0
  0
SPLINE
  5
232
100
AcDbEntity
  8
Calque_1
 62
7
100
AcDbSpline
 70
8
 71
3
 72
8
 73
4
 74
0
 40
0
 40
0
 40
0
 40
0
 40
1
 40
1
 40
1
 40
1
 10
656.058229
 20
187.506794
 30
0.0
 10
656.058233
 20
185.277323
 30
0.0
 10
655.172583
 20
183.139164
 30
0.0
 10
653.596112
 20
181.562687
 30
0.0
  0
SPLINE
  5
233
100
AcDbEntity
  8
Calque_1
 62
7
100
AcDbSpline
 70
8
 71
3
 72
8
 73
4
 74
0
 40
0
 40
0
 40
0
 40
0
 40
1
 40
1
 40
1
 40
1
 10
653.596112
 20
181.562687
 30
0.0
 10
652.019641
 20
179.986211
 30
0.0
 10
649.881485
 20
179.100554
 30
0.0
 10
647.652014
 20
179.100551
 30
0.0
  0
LINE
  5
234
100
AcDbEntity
  8
Calque_1
 62
7
100
AcDbLine
 10
647.652014
 20
179.100551
 30
0.0
 11
647.652014
 21
179.100551
 31
0.0
  0
SPLINE
  5
235
100
AcDbEntity
  8
Calque_1
 62
7
100
AcDbSpline
 70
8
 71
3
 72
8
 73
4
 74
0
 40
0
 40
0
 40
0
 40
0
 40
1
 40
1
 40
1
 40
1
 10
647.652014
 20
213.336731
 30
0.0
 10
645.422519
 20
213.336734
 30
0.0
 10
643.284341
 20
214.222410
 30
0.0
 10
641.707866
 20
215.798917
 30
0.0
  0
SPLINE
  5
236
100
AcDbEntity
  8
Calque_1
 62
7
100
AcDbSpline
 70
8
 71
3
 72
8
 73
4
 74
0
 40
0
 40
0
 40
0
 40
0
 40
1
 40
1
 40
1
 40
1
 10
641.707866
 20
215.798917
 30
0.0
 10
640.131391
 20
217.375424
 30
0.0
 10
639.245758
 20
219.513620
 30
0.0
 10
639.245799
 20
221.743115
 30
0.0
  0
SPLINE
  5
237
100
AcDbEntity
  8
Calque_1
 62
7
100
AcDbSpline
 70
8
 71
3
 72
8
 73
4
 74
0
 40
0
 40
0
 40
0
 40
0
 40
1
 40
1
 40
1
 40
1
 10
639.245799
 20
221.743115
 30
0.0
 10
639.245899
 20
226.385670
 30
0.0
 10
643.009459
 20
230.149154
 30
0.0
 10
647.652014
 20
230.149160
 30
0.0
  0
SPLINE
  5
238
100
AcDbEntity
  8
Calque_1
 62
7
100
AcDbSpline
 70
8
 71
3
 72
8
 73
4
 74
0
 40
0
 40
0
 40
0
 40
0
 40
1
 40
1
 40
1
 40
1
 10
647.652014
 20
230.149160
 30
0.0
 10
652.294569
 20
230.149154
 30
0.0
 10
656.058129
 20
226.385670
 30
0.0
 10
656.058229
 20
221.743115
 30
0.0
  0
SPLINE
  5
239
100
AcDbEntity
  8
Calque_1
 62
7
100
AcDbSpline
 70
8
 71
3
 72
8
 73
4
 74
0
 40
0
 40
0
 40
0
 40
0
 40
1
 40
1
 40
1
 40
1
 10
656.058229
 20
221.743115
 30
0.0
 10
656.058271
 20
219.513620
 30
0.0
 10
655.172637
 20
217.375424
 30
0.0
 10
653.596162
 20
215.798917
 30
0.0
  0
SPLINE
  5
23a
100
AcDbEntity
  8
Calque_1
 62
7
100
AcDbSpline
 70
8
 71
3
 72
8
 73
4
 74
0
 40
0
 40
0
 40
0
 40
0
 40
1
 40
1
 40
1
 40
1
 10
653.596162
 20
215.798917
 30
0.0
 10
652.019687
 20
214.222410
 30
0.0
 10
649.881509
 20
213.336734
 30
0.0
 10
647.652014
 20
213.336731
 30
0.0
  0
LINE
  5
23b
100
AcDbEntity
  8
Calque_1
 62
7
100
AcDbLine
 10
647.652014
 20
213.336731
 30
0.0
 11
647.652014
 21
213.336731
 31
0.0
  0
SPLINE
  5
23c
100
AcDbEntity
  8
Calque_1
 62
7
100
AcDbSpline
 70
8
 71
3
 72
8
 73
4
 74
0
 40
0
 40
0
 40
0
 40
0
 40
1
 40
1
 40
1
 40
1
 10
664.634285
 20
196.354460
 30
0.0
 10
659.991663
 20
196.354467
 30
0.0
 10
656.228076
 20
200.118053
 30
0.0
 10
656.228070
 20
204.760675
 30
0.0
  0
SPLINE
  5
23d
100
AcDbEntity
  8
Calque_1
 62
7
100
AcDbSpline
 70
8
 71
3
 72
8
 73
4
 74
0
 40
0
 40
0
 40
0
 40
0
 40
1
 40
1
 40
1
 40
1
 10
656.228070
 20
204.760675
 30
0.0
 10
656.228028
 20
206.990170
 30
0.0
 10
657.113662
 20
209.128365
 30
0.0
 10
658.690137
 20
210.704872
 30
0.0
  0
SPLINE
  5
23e
100
AcDbEntity
  8
Calque_1
 62
7
100
AcDbSpline
 70
8
 71
3
 72
8
 73
4
 74
0
 40
0
 40
0
 40
0
 40
0
 40
1
 40
1
 40
1
 40
1
 10
658.690137
 20
210.704872
 30
0.0
 10
660.266612
 20
212.281379
 30
0.0
 10
662.404790
 20
213.167056
 30
0.0
 10
664.634285
 20
213.167059
 30
0.0
  0
SPLINE
  5
23f
100
AcDbEntity
  8
Calque_1
 62
7
100
AcDbSpline
 70
8
 71
3
 72
8
 73
4
 74
0
 40
0
 40
0
 40
0
 40
0
 40
1
 40
1
 40
1
 40
1
 10
664.634285
 20
213.167059
 30
0.0
 10
666.863780
 20
213.167056
 30
0.0
 10
669.001957
 20
212.281379
 30
0.0
 10
670.578433
 20
210.704872
 30
0.0
  0
SPLINE
  5
240
100
AcDbEntity
  8
Calque_1
 62
7
100
AcDbSpline
 70
8
 71
3
 72
8
 73
4
 74
0
 40
0
 40
0
 40
0
 40
0
 40
1
 40
1
 40
1
 40
1
 10
670.578433
 20
210.704872
 30
0.0
 10
672.154908
 20
209.128365
 30
0.0
 10
673.040541
 20
206.990170
 30
0.0
 10
673.040499
 20
204.760675
 30
0.0
  0
SPLINE
  5
241
100
AcDbEntity
  8
Calque_1
 62
7
100
AcDbSpline
 70
8
 71
3
 72
8
 73
4
 74
0
 40
0
 40
0
 40
0
 40
0
 40
1
 40
1
 40
1
 40
1
 10
673.040499
 20
204.760675
 30
0.0
 10
673.040493
 20
200.118053
 30
0.0
 10
669.276906
 20
196.354467
 30
0.0
 10
664.634285
 20
196.354460
 30
0.0
  0
LINE
  5
242
100
AcDbEntity
  8
Calque_1
 62
7
100
AcDbLine
 10
664.634285
 20
196.354460
 30
0.0
 11
664.634285
 21
196.354460
 31
0.0
  0
LINE
  5
243
100
AcDbEntity
  8
Calque_1
 62
7
100
AcDbLine
 10
258.797882
 20
226.716378
 30
0.0
 11
245.227086
 21
233.259475
 31
0.0
  0
LINE
  5
244
100
AcDbEntity
  8
Calque_1
 62
7
100
AcDbLine
 10
245.227086
 20
233.259475
 30
0.0
 11
245.227086
 21
229.462852
 31
0.0
  0
LINE
  5
245
100
AcDbEntity
  8
Calque_1
 62
7
100
AcDbLine
 10
245.227086
 20
229.462852
 30
0.0
 11
238.603217
 21
226.999109
 31
0.0
  0
LINE
  5
246
100
AcDbEntity
  8
Calque_1
 62
7
100
AcDbLine
 10
238.603217
 20
226.999109
 30
0.0
 11
245.186672
 21
224.171863
 31
0.0
  0
LINE
  5
247
100
AcDbEntity
  8
Calque_1
 62
7
100
AcDbLine
 10
245.186672
 20
224.171863
 30
0.0
 11
245.186672
 21
220.819543
 31
0.0
  0
LINE
  5
248
100
AcDbEntity
  8
Calque_1
 62
7
100
AcDbLine
 10
245.186672
 20
220.819543
 30
0.0
 11
258.797882
 21
226.716378
 31
0.0
  0
SPLINE
  5
249
100
AcDbEntity
  8
Calque_1
 62
7
100
AcDbSpline
 70
8
 71
3
 72
8
 73
4
 74
0
 40
0
 40
0
 40
0
 40
0
 40
1
 40
1
 40
1
 40
1
 10
259.827796
 20
220.674142
 30
0.0
 10
258.723636
 20
220.674147
 30
0.0
 10
257.828539
 20
221.569244
 30
0.0
 10
257.828534
 20
222.673404
 30
0.0
  0
SPLINE
  5
24a
100
AcDbEntity
  8
Calque_1
 62
7
100
AcDbSpline
 70
8
 71
3
 72
8
 73
4
 74
0
 40
0
 40
0
 40
0
 40
0
 40
1
 40
1
 40
1
 40
1
 10
257.828534
 20
222.673404
 30
0.0
 10
257.828529
 20
223.203646
 30
0.0
 10
258.039162
 20
223.712172
 30
0.0
 10
258.414097
 20
224.087112
 30
0.0
  0
SPLINE
  5
24b
100
AcDbEntity
  8
Calque_1
 62
7
100
AcDbSpline
 70
8
 71
3
 72
8
 73
4
 74
0
 40
0
 40
0
 40
0
 40
0
 40
1
 40
1
 40
1
 40
1
 10
258.414097
 20
224.087112
 30
0.0
 10
258.789031
 20
224.462052
 30
0.0
 10
259.297555
 20
224.672692
 30
0.0
 10
259.827796
 20
224.672694
 30
0.0
  0
SPLINE
  5
24c
100
AcDbEntity
  8
Calque_1
 62
7
100
AcDbSpline
 70
8
 71
3
 72
8
 73
4
 74
0
 40
0
 40
0
 40
0
 40
0
 40
1
 40
1
 40
1
 40
1
 10
259.827796
 20
224.672694
 30
0.0
 10
260.358042
 20
224.672700
 30
0.0
 10
260.866573
 20
224.462062
 30
0.0
 10
261.241514
 20
224.087122
 30
0.0
  0
SPLINE
  5
24d
100
AcDbEntity
  8
Calque_1
 62
7
100
AcDbSpline
 70
8
 71
3
 72
8
 73
4
 74
0
 40
0
 40
0
 40
0
 40
0
 40
1
 40
1
 40
1
 40
1
 10
261.241514
 20
224.087122
 30
0.0
 10
261.616454
 20
223.712181
 30
0.0
 10
261.827092
 20
223.203650
 30
0.0
 10
261.827086
 20
222.673404
 30
0.0
  0
SPLINE
  5
24e
100
AcDbEntity
  8
Calque_1
 62
7
100
AcDbSpline
 70
8
 71
3
 72
8
 73
4
 74
0
 40
0
 40
0
 40
0
 40
0
 40
1
 40
1
 40
1
 40
1
 10
261.827086
 20
222.673404
 30
0.0
 10
261.827084
 20
222.143163
 30
0.0
 10
261.616444
 20
221.634639
 30
0.0
 10
261.241504
 20
221.259705
 30
0.0
  0
SPLINE
  5
24f
100
AcDbEntity
  8
Calque_1
 62
7
100
AcDbSpline
 70
8
 71
3
 72
8
 73
4
 74
0
 40
0
 40
0
 40
0
 40
0
 40
1
 40
1
 40
1
 40
1
 10
261.241504
 20
221.259705
 30
0.0
 10
260.866564
 20
220.884770
 30
0.0
 10
260.358038
 20
220.674137
 30
0.0
 10
259.827796
 20
220.674142
 30
0.0
  0
LINE
  5
250
100
AcDbEntity
  8
Calque_1
 62
7
100
AcDbLine
 10
259.827796
 20
220.674142
 30
0.0
 11
259.827796
 21
220.674142
 31
0.0
  0
SPLINE
  5
251
100
AcDbEntity
  8
Calque_1
 62
7
100
AcDbSpline
 70
8
 71
3
 72
8
 73
4
 74
0
 40
0
 40
0
 40
0
 40
0
 40
1
 40
1
 40
1
 40
1
 10
259.827796
 20
228.816620
 30
0.0
 10
259.297555
 20
228.816622
 30
0.0
 10
258.789031
 20
229.027263
 30
0.0
 10
258.414097
 20
229.402203
 30
0.0
  0
SPLINE
  5
252
100
AcDbEntity
  8
Calque_1
 62
7
100
AcDbSpline
 70
8
 71
3
 72
8
 73
4
 74
0
 40
0
 40
0
 40
0
 40
0
 40
1
 40
1
 40
1
 40
1
 10
258.414097
 20
229.402203
 30
0.0
 10
258.039162
 20
229.777143
 30
0.0
 10
257.828529
 20
230.285669
 30
0.0
 10
257.828534
 20
230.815910
 30
0.0
  0
SPLINE
  5
253
100
AcDbEntity
  8
Calque_1
 62
7
100
AcDbSpline
 70
8
 71
3
 72
8
 73
4
 74
0
 40
0
 40
0
 40
0
 40
0
 40
1
 40
1
 40
1
 40
1
 10
257.828534
 20
230.815910
 30
0.0
 10
257.828539
 20
231.920070
 30
0.0
 10
258.723636
 20
232.815168
 30
0.0
 10
259.827796
 20
232.815172
 30
0.0
  0
SPLINE
  5
254
100
AcDbEntity
  8
Calque_1
 62
7
100
AcDbSpline
 70
8
 71
3
 72
8
 73
4
 74
0
 40
0
 40
0
 40
0
 40
0
 40
1
 40
1
 40
1
 40
1
 10
259.827796
 20
232.815172
 30
0.0
 10
260.358038
 20
232.815178
 30
0.0
 10
260.866564
 20
232.604544
 30
0.0
 10
261.241504
 20
232.229610
 30
0.0
  0
SPLINE
  5
255
100
AcDbEntity
  8
Calque_1
 62
7
100
AcDbSpline
 70
8
 71
3
 72
8
 73
4
 74
0
 40
0
 40
0
 40
0
 40
0
 40
1
 40
1
 40
1
 40
1
 10
261.241504
 20
232.229610
 30
0.0
 10
261.616444
 20
231.854675
 30
0.0
 10
261.827084
 20
231.346152
 30
0.0
 10
261.827086
 20
230.815910
 30
0.0
  0
SPLINE
  5
256
100
AcDbEntity
  8
Calque_1
 62
7
100
AcDbSpline
 70
8
 71
3
 72
8
 73
4
 74
0
 40
0
 40
0
 40
0
 40
0
 40
1
 40
1
 40
1
 40
1
 10
261.827086
 20
230.815910
 30
0.0
 10
261.827092
 20
230.285664
 30
0.0
 10
261.616454
 20
229.777134
 30
0.0
 10
261.241514
 20
229.402193
 30
0.0
  0
SPLINE
  5
257
100
AcDbEntity
  8
Calque_1
 62
7
100
AcDbSpline
 70
8
 71
3
 72
8
 73
4
 74
0
 40
0
 40
0
 40
0
 40
0
 40
1
 40
1
 40
1
 40
1
 10
261.241514
 20
229.402193
 30
0.0
 10
260.866573
 20
229.027252
 30
0.0
 10
260.358042
 20
228.816615
 30
0.0
 10
259.827796
 20
228.816620
 30
0.0
  0
LINE
  5
258
100
AcDbEntity
  8
Calque_1
 62
7
100
AcDbLine
 10
259.827796
 20
228.816620
 30
0.0
 11
259.827796
 21
228.816620
 31
0.0
  0
SPLINE
  5
259
100
AcDbEntity
  8
Calque_1
 62
7
100
AcDbSpline
 70
8
 71
3
 72
8
 73
4
 74
0
 40
0
 40
0
 40
0
 40
0
 40
1
 40
1
 40
1
 40
1
 10
263.866735
 20
224.777681
 30
0.0
 10
263.336488
 20
224.777676
 30
0.0
 10
262.827958
 20
224.988313
 30
0.0
 10
262.453017
 20
225.363254
 30
0.0
  0
SPLINE
  5
25a
100
AcDbEntity
  8
Calque_1
 62
7
100
AcDbSpline
 70
8
 71
3
 72
8
 73
4
 74
0
 40
0
 40
0
 40
0
 40
0
 40
1
 40
1
 40
1
 40
1
 10
262.453017
 20
225.363254
 30
0.0
 10
262.078076
 20
225.738195
 30
0.0
 10
261.867439
 20
226.246725
 30
0.0
 10
261.867444
 20
226.776972
 30
0.0
  0
SPLINE
  5
25b
100
AcDbEntity
  8
Calque_1
 62
7
100
AcDbSpline
 70
8
 71
3
 72
8
 73
4
 74
0
 40
0
 40
0
 40
0
 40
0
 40
1
 40
1
 40
1
 40
1
 10
261.867444
 20
226.776972
 30
0.0
 10
261.867447
 20
227.307213
 30
0.0
 10
262.078087
 20
227.815736
 30
0.0
 10
262.453027
 20
228.190671
 30
0.0
  0
SPLINE
  5
25c
100
AcDbEntity
  8
Calque_1
 62
7
100
AcDbSpline
 70
8
 71
3
 72
8
 73
4
 74
0
 40
0
 40
0
 40
0
 40
0
 40
1
 40
1
 40
1
 40
1
 10
262.453027
 20
228.190671
 30
0.0
 10
262.827967
 20
228.565606
 30
0.0
 10
263.336493
 20
228.776239
 30
0.0
 10
263.866735
 20
228.776234
 30
0.0
  0
SPLINE
  5
25d
100
AcDbEntity
  8
Calque_1
 62
7
100
AcDbSpline
 70
8
 71
3
 72
8
 73
4
 74
0
 40
0
 40
0
 40
0
 40
0
 40
1
 40
1
 40
1
 40
1
 10
263.866735
 20
228.776234
 30
0.0
 10
264.396976
 20
228.776239
 30
0.0
 10
264.905502
 20
228.565606
 30
0.0
 10
265.280442
 20
228.190671
 30
0.0
  0
SPLINE
  5
25e
100
AcDbEntity
  8
Calque_1
 62
7
100
AcDbSpline
 70
8
 71
3
 72
8
 73
4
 74
0
 40
0
 40
0
 40
0
 40
0
 40
1
 40
1
 40
1
 40
1
 10
265.280442
 20
228.190671
 30
0.0
 10
265.655382
 20
227.815736
 30
0.0
 10
265.866023
 20
227.307213
 30
0.0
 10
265.866025
 20
226.776972
 30
0.0
  0
SPLINE
  5
25f
100
AcDbEntity
  8
Calque_1
 62
7
100
AcDbSpline
 70
8
 71
3
 72
8
 73
4
 74
0
 40
0
 40
0
 40
0
 40
0
 40
1
 40
1
 40
1
 40
1
 10
265.866025
 20
226.776972
 30
0.0
 10
265.866030
 20
226.246725
 30
0.0
 10
265.655393
 20
225.738195
 30
0.0
 10
265.280452
 20
225.363254
 30
0.0
  0
SPLINE
  5
260
100
AcDbEntity
  8
Calque_1
 62
7
100
AcDbSpline
 70
8
 71
3
 72
8
 73
4
 74
0
 40
0
 40
0
 40
0
 40
0
 40
1
 40
1
 40
1
 40
1
 10
265.280452
 20
225.363254
 30
0.0
 10
264.905511
 20
224.988313
 30
0.0
 10
264.396981
 20
224.777676
 30
0.0
 10
263.866735
 20
224.777681
 30
0.0
  0
LINE
  5
261
100
AcDbEntity
  8
Calque_1
 62
7
100
AcDbLine
 10
263.866735
 20
224.777681
 30
0.0
 11
263.866735
 21
224.777681
 31
0.0
  0
LINE
  5
262
100
AcDbEntity
  8
Calque_1
 62
7
100
AcDbLine
 10
258.797882
 20
184.115301
 30
0.0
 11
245.227086
 21
190.658369
 31
0.0
  0
LINE
  5
263
100
AcDbEntity
  8
Calque_1
 62
7
100
AcDbLine
 10
245.227086
 20
190.658369
 30
0.0
 11
245.227086
 21
186.861775
 31
0.0
  0
LINE
  5
264
100
AcDbEntity
  8
Calque_1
 62
7
100
AcDbLine
 10
245.227086
 20
186.861775
 30
0.0
 11
238.603217
 21
184.398031
 31
0.0
  0
LINE
  5
265
100
AcDbEntity
  8
Calque_1
 62
7
100
AcDbLine
 10
238.603217
 20
184.398031
 30
0.0
 11
245.186672
 21
181.570785
 31
0.0
  0
LINE
  5
266
100
AcDbEntity
  8
Calque_1
 62
7
100
AcDbLine
 10
245.186672
 20
181.570785
 30
0.0
 11
245.186672
 21
178.218465
 31
0.0
  0
LINE
  5
267
100
AcDbEntity
  8
Calque_1
 62
7
100
AcDbLine
 10
245.186672
 20
178.218465
 30
0.0
 11
258.797882
 21
184.115301
 31
0.0
  0
SPLINE
  5
268
100
AcDbEntity
  8
Calque_1
 62
7
100
AcDbSpline
 70
8
 71
3
 72
8
 73
4
 74
0
 40
0
 40
0
 40
0
 40
0
 40
1
 40
1
 40
1
 40
1
 10
259.827796
 20
178.073064
 30
0.0
 10
258.723636
 20
178.073069
 30
0.0
 10
257.828539
 20
178.968166
 30
0.0
 10
257.828534
 20
180.072326
 30
0.0
  0
SPLINE
  5
269
100
AcDbEntity
  8
Calque_1
 62
7
100
AcDbSpline
 70
8
 71
3
 72
8
 73
4
 74
0
 40
0
 40
0
 40
0
 40
0
 40
1
 40
1
 40
1
 40
1
 10
257.828534
 20
180.072326
 30
0.0
 10
257.828529
 20
180.602568
 30
0.0
 10
258.039162
 20
181.111094
 30
0.0
 10
258.414097
 20
181.486034
 30
0.0
  0
SPLINE
  5
26a
100
AcDbEntity
  8
Calque_1
 62
7
100
AcDbSpline
 70
8
 71
3
 72
8
 73
4
 74
0
 40
0
 40
0
 40
0
 40
0
 40
1
 40
1
 40
1
 40
1
 10
258.414097
 20
181.486034
 30
0.0
 10
258.789031
 20
181.860974
 30
0.0
 10
259.297555
 20
182.071615
 30
0.0
 10
259.827796
 20
182.071617
 30
0.0
  0
SPLINE
  5
26b
100
AcDbEntity
  8
Calque_1
 62
7
100
AcDbSpline
 70
8
 71
3
 72
8
 73
4
 74
0
 40
0
 40
0
 40
0
 40
0
 40
1
 40
1
 40
1
 40
1
 10
259.827796
 20
182.071617
 30
0.0
 10
260.358042
 20
182.071622
 30
0.0
 10
260.866573
 20
181.860985
 30
0.0
 10
261.241514
 20
181.486044
 30
0.0
  0
SPLINE
  5
26c
100
AcDbEntity
  8
Calque_1
 62
7
100
AcDbSpline
 70
8
 71
3
 72
8
 73
4
 74
0
 40
0
 40
0
 40
0
 40
0
 40
1
 40
1
 40
1
 40
1
 10
261.241514
 20
181.486044
 30
0.0
 10
261.616454
 20
181.111103
 30
0.0
 10
261.827092
 20
180.602573
 30
0.0
 10
261.827086
 20
180.072326
 30
0.0
  0
SPLINE
  5
26d
100
AcDbEntity
  8
Calque_1
 62
7
100
AcDbSpline
 70
8
 71
3
 72
8
 73
4
 74
0
 40
0
 40
0
 40
0
 40
0
 40
1
 40
1
 40
1
 40
1
 10
261.827086
 20
180.072326
 30
0.0
 10
261.827084
 20
179.542085
 30
0.0
 10
261.616444
 20
179.033562
 30
0.0
 10
261.241504
 20
178.658627
 30
0.0
  0
SPLINE
  5
26e
100
AcDbEntity
  8
Calque_1
 62
7
100
AcDbSpline
 70
8
 71
3
 72
8
 73
4
 74
0
 40
0
 40
0
 40
0
 40
0
 40
1
 40
1
 40
1
 40
1
 10
261.241504
 20
178.658627
 30
0.0
 10
260.866564
 20
178.283692
 30
0.0
 10
260.358038
 20
178.073059
 30
0.0
 10
259.827796
 20
178.073064
 30
0.0
  0
LINE
  5
26f
100
AcDbEntity
  8
Calque_1
 62
7
100
AcDbLine
 10
259.827796
 20
178.073064
 30
0.0
 11
259.827796
 21
178.073064
 31
0.0
  0
SPLINE
  5
270
100
AcDbEntity
  8
Calque_1
 62
7
100
AcDbSpline
 70
8
 71
3
 72
8
 73
4
 74
0
 40
0
 40
0
 40
0
 40
0
 40
1
 40
1
 40
1
 40
1
 10
259.827796
 20
186.215542
 30
0.0
 10
259.297555
 20
186.215545
 30
0.0
 10
258.789031
 20
186.426185
 30
0.0
 10
258.414097
 20
186.801125
 30
0.0
  0
SPLINE
  5
271
100
AcDbEntity
  8
Calque_1
 62
7
100
AcDbSpline
 70
8
 71
3
 72
8
 73
4
 74
0
 40
0
 40
0
 40
0
 40
0
 40
1
 40
1
 40
1
 40
1
 10
258.414097
 20
186.801125
 30
0.0
 10
258.039162
 20
187.176065
 30
0.0
 10
257.828529
 20
187.684591
 30
0.0
 10
257.828534
 20
188.214833
 30
0.0
  0
SPLINE
  5
272
100
AcDbEntity
  8
Calque_1
 62
7
100
AcDbSpline
 70
8
 71
3
 72
8
 73
4
 74
0
 40
0
 40
0
 40
0
 40
0
 40
1
 40
1
 40
1
 40
1
 10
257.828534
 20
188.214833
 30
0.0
 10
257.828539
 20
189.318993
 30
0.0
 10
258.723636
 20
190.214090
 30
0.0
 10
259.827796
 20
190.214095
 30
0.0
  0
SPLINE
  5
273
100
AcDbEntity
  8
Calque_1
 62
7
100
AcDbSpline
 70
8
 71
3
 72
8
 73
4
 74
0
 40
0
 40
0
 40
0
 40
0
 40
1
 40
1
 40
1
 40
1
 10
259.827796
 20
190.214095
 30
0.0
 10
260.358038
 20
190.214100
 30
0.0
 10
260.866564
 20
190.003467
 30
0.0
 10
261.241504
 20
189.628532
 30
0.0
  0
SPLINE
  5
274
100
AcDbEntity
  8
Calque_1
 62
7
100
AcDbSpline
 70
8
 71
3
 72
8
 73
4
 74
0
 40
0
 40
0
 40
0
 40
0
 40
1
 40
1
 40
1
 40
1
 10
261.241504
 20
189.628532
 30
0.0
 10
261.616444
 20
189.253597
 30
0.0
 10
261.827084
 20
188.745074
 30
0.0
 10
261.827086
 20
188.214833
 30
0.0
  0
SPLINE
  5
275
100
AcDbEntity
  8
Calque_1
 62
7
100
AcDbSpline
 70
8
 71
3
 72
8
 73
4
 74
0
 40
0
 40
0
 40
0
 40
0
 40
1
 40
1
 40
1
 40
1
 10
261.827086
 20
188.214833
 30
0.0
 10
261.827092
 20
187.684586
 30
0.0
 10
261.616454
 20
187.176056
 30
0.0
 10
261.241514
 20
186.801115
 30
0.0
  0
SPLINE
  5
276
100
AcDbEntity
  8
Calque_1
 62
7
100
AcDbSpline
 70
8
 71
3
 72
8
 73
4
 74
0
 40
0
 40
0
 40
0
 40
0
 40
1
 40
1
 40
1
 40
1
 10
261.241514
 20
186.801115
 30
0.0
 10
260.866573
 20
186.426174
 30
0.0
 10
260.358042
 20
186.215537
 30
0.0
 10
259.827796
 20
186.215542
 30
0.0
  0
LINE
  5
277
100
AcDbEntity
  8
Calque_1
 62
7
100
AcDbLine
 10
259.827796
 20
186.215542
 30
0.0
 11
259.827796
 21
186.215542
 31
0.0
  0
SPLINE
  5
278
100
AcDbEntity
  8
Calque_1
 62
7
100
AcDbSpline
 70
8
 71
3
 72
8
 73
4
 74
0
 40
0
 40
0
 40
0
 40
0
 40
1
 40
1
 40
1
 40
1
 10
263.866735
 20
182.176604
 30
0.0
 10
263.336488
 20
182.176598
 30
0.0
 10
262.827958
 20
182.387236
 30
0.0
 10
262.453017
 20
182.762177
 30
0.0
  0
SPLINE
  5
279
100
AcDbEntity
  8
Calque_1
 62
7
100
AcDbSpline
 70
8
 71
3
 72
8
 73
4
 74
0
 40
0
 40
0
 40
0
 40
0
 40
1
 40
1
 40
1
 40
1
 10
262.453017
 20
182.762177
 30
0.0
 10
262.078076
 20
183.137117
 30
0.0
 10
261.867439
 20
183.645648
 30
0.0
 10
261.867444
 20
184.175894
 30
0.0
  0
SPLINE
  5
27a
100
AcDbEntity
  8
Calque_1
 62
7
100
AcDbSpline
 70
8
 71
3
 72
8
 73
4
 74
0
 40
0
 40
0
 40
0
 40
0
 40
1
 40
1
 40
1
 40
1
 10
261.867444
 20
184.175894
 30
0.0
 10
261.867447
 20
184.706136
 30
0.0
 10
262.078087
 20
185.214659
 30
0.0
 10
262.453027
 20
185.589593
 30
0.0
  0
SPLINE
  5
27b
100
AcDbEntity
  8
Calque_1
 62
7
100
AcDbSpline
 70
8
 71
3
 72
8
 73
4
 74
0
 40
0
 40
0
 40
0
 40
0
 40
1
 40
1
 40
1
 40
1
 10
262.453027
 20
185.589593
 30
0.0
 10
262.827967
 20
185.964528
 30
0.0
 10
263.336493
 20
186.175161
 30
0.0
 10
263.866735
 20
186.175156
 30
0.0
  0
SPLINE
  5
27c
100
AcDbEntity
  8
Calque_1
 62
7
100
AcDbSpline
 70
8
 71
3
 72
8
 73
4
 74
0
 40
0
 40
0
 40
0
 40
0
 40
1
 40
1
 40
1
 40
1
 10
263.866735
 20
186.175156
 30
0.0
 10
264.396976
 20
186.175161
 30
0.0
 10
264.905502
 20
185.964528
 30
0.0
 10
265.280442
 20
185.589593
 30
0.0
  0
SPLINE
  5
27d
100
AcDbEntity
  8
Calque_1
 62
7
100
AcDbSpline
 70
8
 71
3
 72
8
 73
4
 74
0
 40
0
 40
0
 40
0
 40
0
 40
1
 40
1
 40
1
 40
1
 10
265.280442
 20
185.589593
 30
0.0
 10
265.655382
 20
185.214659
 30
0.0
 10
265.866023
 20
184.706136
 30
0.0
 10
265.866025
 20
184.175894
 30
0.0
  0
SPLINE
  5
27e
100
AcDbEntity
  8
Calque_1
 62
7
100
AcDbSpline
 70
8
 71
3
 72
8
 73
4
 74
0
 40
0
 40
0
 40
0
 40
0
 40
1
 40
1
 40
1
 40
1
 10
265.866025
 20
184.175894
 30
0.0
 10
265.866030
 20
183.645648
 30
0.0
 10
265.655393
 20
183.137117
 30
0.0
 10
265.280452
 20
182.762177
 30
0.0
  0
SPLINE
  5
27f
100
AcDbEntity
  8
Calque_1
 62
7
100
AcDbSpline
 70
8
 71
3
 72
8
 73
4
 74
0
 40
0
 40
0
 40
0
 40
0
 40
1
 40
1
 40
1
 40
1
 10
265.280452
 20
182.762177
 30
0.0
 10
264.905511
 20
182.387236
 30
0.0
 10
264.396981
 20
182.176598
 30
0.0
 10
263.866735
 20
182.176604
 30
0.0
  0
LINE
  5
280
100
AcDbEntity
  8
Calque_1
 62
7
100
AcDbLine
 10
263.866735
 20
182.176604
 30
0.0
 11
263.866735
 21
182.176604
 31
0.0
  0
LINE
  5
281
100
AcDbEntity
  8
Calque_1
 62
7
100
AcDbLine
 10
268.894298
 20
205.415854
 30
0.0
 11
255.323501
 21
211.958922
 31
0.0
  0
LINE
  5
282
100
AcDbEntity
  8
Calque_1
 62
7
100
AcDbLine
 10
255.323501
 20
211.958922
 30
0.0
 11
255.323501
 21
208.162328
 31
0.0
  0
LINE
  5
283
100
AcDbEntity
  8
Calque_1
 62
7
100
AcDbLine
 10
255.323501
 20
208.162328
 30
0.0
 11
248.699633
 21
205.698556
 31
0.0
  0
LINE
  5
284
100
AcDbEntity
  8
Calque_1
 62
7
100
AcDbLine
 10
248.699633
 20
205.698556
 30
0.0
 11
255.283087
 21
202.871310
 31
0.0
  0
LINE
  5
285
100
AcDbEntity
  8
Calque_1
 62
7
100
AcDbLine
 10
255.283087
 20
202.871310
 30
0.0
 11
255.283087
 21
199.518990
 31
0.0
  0
LINE
  5
286
100
AcDbEntity
  8
Calque_1
 62
7
100
AcDbLine
 10
255.283087
 20
199.518990
 30
0.0
 11
268.894298
 21
205.415854
 31
0.0
  0
SPLINE
  5
287
100
AcDbEntity
  8
Calque_1
 62
7
100
AcDbSpline
 70
8
 71
3
 72
8
 73
4
 74
0
 40
0
 40
0
 40
0
 40
0
 40
1
 40
1
 40
1
 40
1
 10
269.924211
 20
199.373617
 30
0.0
 10
268.820051
 20
199.373622
 30
0.0
 10
267.924954
 20
200.268719
 30
0.0
 10
267.924949
 20
201.372879
 30
0.0
  0
SPLINE
  5
288
100
AcDbEntity
  8
Calque_1
 62
7
100
AcDbSpline
 70
8
 71
3
 72
8
 73
4
 74
0
 40
0
 40
0
 40
0
 40
0
 40
1
 40
1
 40
1
 40
1
 10
267.924949
 20
201.372879
 30
0.0
 10
267.924954
 20
202.477039
 30
0.0
 10
268.820051
 20
203.372137
 30
0.0
 10
269.924211
 20
203.372142
 30
0.0
  0
SPLINE
  5
289
100
AcDbEntity
  8
Calque_1
 62
7
100
AcDbSpline
 70
8
 71
3
 72
8
 73
4
 74
0
 40
0
 40
0
 40
0
 40
0
 40
1
 40
1
 40
1
 40
1
 10
269.924211
 20
203.372142
 30
0.0
 10
270.454453
 20
203.372147
 30
0.0
 10
270.962979
 20
203.161513
 30
0.0
 10
271.337919
 20
202.786579
 30
0.0
  0
SPLINE
  5
28a
100
AcDbEntity
  8
Calque_1
 62
7
100
AcDbSpline
 70
8
 71
3
 72
8
 73
4
 74
0
 40
0
 40
0
 40
0
 40
0
 40
1
 40
1
 40
1
 40
1
 10
271.337919
 20
202.786579
 30
0.0
 10
271.712859
 20
202.411644
 30
0.0
 10
271.923500
 20
201.903121
 30
0.0
 10
271.923502
 20
201.372879
 30
0.0
  0
SPLINE
  5
28b
100
AcDbEntity
  8
Calque_1
 62
7
100
AcDbSpline
 70
8
 71
3
 72
8
 73
4
 74
0
 40
0
 40
0
 40
0
 40
0
 40
1
 40
1
 40
1
 40
1
 10
271.923502
 20
201.372879
 30
0.0
 10
271.923500
 20
200.842638
 30
0.0
 10
271.712859
 20
200.334115
 30
0.0
 10
271.337919
 20
199.959180
 30
0.0
  0
SPLINE
  5
28c
100
AcDbEntity
  8
Calque_1
 62
7
100
AcDbSpline
 70
8
 71
3
 72
8
 73
4
 74
0
 40
0
 40
0
 40
0
 40
0
 40
1
 40
1
 40
1
 40
1
 10
271.337919
 20
199.959180
 30
0.0
 10
270.962979
 20
199.584245
 30
0.0
 10
270.454453
 20
199.373612
 30
0.0
 10
269.924211
 20
199.373617
 30
0.0
  0
LINE
  5
28d
100
AcDbEntity
  8
Calque_1
 62
7
100
AcDbLine
 10
269.924211
 20
199.373617
 30
0.0
 11
269.924211
 21
199.373617
 31
0.0
  0
SPLINE
  5
28e
100
AcDbEntity
  8
Calque_1
 62
7
100
AcDbSpline
 70
8
 71
3
 72
8
 73
4
 74
0
 40
0
 40
0
 40
0
 40
0
 40
1
 40
1
 40
1
 40
1
 10
269.924211
 20
207.516095
 30
0.0
 10
268.820051
 20
207.516100
 30
0.0
 10
267.924954
 20
208.411197
 30
0.0
 10
267.924949
 20
209.515357
 30
0.0
  0
SPLINE
  5
28f
100
AcDbEntity
  8
Calque_1
 62
7
100
AcDbSpline
 70
8
 71
3
 72
8
 73
4
 74
0
 40
0
 40
0
 40
0
 40
0
 40
1
 40
1
 40
1
 40
1
 10
267.924949
 20
209.515357
 30
0.0
 10
267.924954
 20
210.619517
 30
0.0
 10
268.820051
 20
211.514615
 30
0.0
 10
269.924211
 20
211.514620
 30
0.0
  0
SPLINE
  5
290
100
AcDbEntity
  8
Calque_1
 62
7
100
AcDbSpline
 70
8
 71
3
 72
8
 73
4
 74
0
 40
0
 40
0
 40
0
 40
0
 40
1
 40
1
 40
1
 40
1
 10
269.924211
 20
211.514620
 30
0.0
 10
270.454453
 20
211.514625
 30
0.0
 10
270.962979
 20
211.303991
 30
0.0
 10
271.337919
 20
210.929057
 30
0.0
  0
SPLINE
  5
291
100
AcDbEntity
  8
Calque_1
 62
7
100
AcDbSpline
 70
8
 71
3
 72
8
 73
4
 74
0
 40
0
 40
0
 40
0
 40
0
 40
1
 40
1
 40
1
 40
1
 10
271.337919
 20
210.929057
 30
0.0
 10
271.712859
 20
210.554122
 30
0.0
 10
271.923500
 20
210.045599
 30
0.0
 10
271.923502
 20
209.515357
 30
0.0
  0
SPLINE
  5
292
100
AcDbEntity
  8
Calque_1
 62
7
100
AcDbSpline
 70
8
 71
3
 72
8
 73
4
 74
0
 40
0
 40
0
 40
0
 40
0
 40
1
 40
1
 40
1
 40
1
 10
271.923502
 20
209.515357
 30
0.0
 10
271.923500
 20
208.985116
 30
0.0
 10
271.712859
 20
208.476593
 30
0.0
 10
271.337919
 20
208.101658
 30
0.0
  0
SPLINE
  5
293
100
AcDbEntity
  8
Calque_1
 62
7
100
AcDbSpline
 70
8
 71
3
 72
8
 73
4
 74
0
 40
0
 40
0
 40
0
 40
0
 40
1
 40
1
 40
1
 40
1
 10
271.337919
 20
208.101658
 30
0.0
 10
270.962979
 20
207.726723
 30
0.0
 10
270.454453
 20
207.516090
 30
0.0
 10
269.924211
 20
207.516095
 30
0.0
  0
LINE
  5
294
100
AcDbEntity
  8
Calque_1
 62
7
100
AcDbLine
 10
269.924211
 20
207.516095
 30
0.0
 11
269.924211
 21
207.516095
 31
0.0
  0
SPLINE
  5
295
100
AcDbEntity
  8
Calque_1
 62
7
100
AcDbSpline
 70
8
 71
3
 72
8
 73
4
 74
0
 40
0
 40
0
 40
0
 40
0
 40
1
 40
1
 40
1
 40
1
 10
273.963159
 20
203.477156
 30
0.0
 10
272.858995
 20
203.477157
 30
0.0
 10
271.963893
 20
204.372255
 30
0.0
 10
271.963888
 20
205.476419
 30
0.0
  0
SPLINE
  5
296
100
AcDbEntity
  8
Calque_1
 62
7
100
AcDbSpline
 70
8
 71
3
 72
8
 73
4
 74
0
 40
0
 40
0
 40
0
 40
0
 40
1
 40
1
 40
1
 40
1
 10
271.963888
 20
205.476419
 30
0.0
 10
271.963883
 20
206.006662
 30
0.0
 10
272.174517
 20
206.515189
 30
0.0
 10
272.549454
 20
206.890129
 30
0.0
  0
SPLINE
  5
297
100
AcDbEntity
  8
Calque_1
 62
7
100
AcDbSpline
 70
8
 71
3
 72
8
 73
4
 74
0
 40
0
 40
0
 40
0
 40
0
 40
1
 40
1
 40
1
 40
1
 10
272.549454
 20
206.890129
 30
0.0
 10
272.924390
 20
207.265070
 30
0.0
 10
273.432916
 20
207.475709
 30
0.0
 10
273.963159
 20
207.475709
 30
0.0
  0
SPLINE
  5
298
100
AcDbEntity
  8
Calque_1
 62
7
100
AcDbSpline
 70
8
 71
3
 72
8
 73
4
 74
0
 40
0
 40
0
 40
0
 40
0
 40
1
 40
1
 40
1
 40
1
 10
273.963159
 20
207.475709
 30
0.0
 10
274.493402
 20
207.475711
 30
0.0
 10
275.001929
 20
207.265072
 30
0.0
 10
275.376867
 20
206.890131
 30
0.0
  0
SPLINE
  5
299
100
AcDbEntity
  8
Calque_1
 62
7
100
AcDbSpline
 70
8
 71
3
 72
8
 73
4
 74
0
 40
0
 40
0
 40
0
 40
0
 40
1
 40
1
 40
1
 40
1
 10
275.376867
 20
206.890131
 30
0.0
 10
275.751805
 20
206.515191
 30
0.0
 10
275.962440
 20
206.006663
 30
0.0
 10
275.962435
 20
205.476419
 30
0.0
  0
SPLINE
  5
29a
100
AcDbEntity
  8
Calque_1
 62
7
100
AcDbSpline
 70
8
 71
3
 72
8
 73
4
 74
0
 40
0
 40
0
 40
0
 40
0
 40
1
 40
1
 40
1
 40
1
 10
275.962435
 20
205.476419
 30
0.0
 10
275.962430
 20
204.372253
 30
0.0
 10
275.067324
 20
203.477154
 30
0.0
 10
273.963159
 20
203.477156
 30
0.0
  0
LINE
  5
29b
100
AcDbEntity
  8
Calque_1
 62
7
100
AcDbLine
 10
273.963159
 20
203.477156
 30
0.0
 11
273.963159
 21
203.477156
 31
0.0
  0
ENDSEC
  0
SECTION
  2
OBJECTS
  0
DICTIONARY
  5
C
330
0
100
AcDbDictionary
  3
ACAD_GROUP
350
D
  3
ACAD_MLINESTYLE
350
17
  0
DICTIONARY
  5
D
330
C
100
AcDbDictionary
  0
DICTIONARY
  5
1A
330
C
100
AcDbDictionary
  0
DICTIONARY
  5
17
330
C
100
AcDbDictionary
  3
STANDARD
350
18
  0
DICTIONARY
  5
19
330
C
100
AcDbDictionary
  0
ENDSEC
  0
EOF
