<?xml version="1.0" encoding="UTF-8" standalone="no"?>
<!-- Created with Inkscape (http://www.inkscape.org/) -->

<svg
   xmlns:dc="http://purl.org/dc/elements/1.1/"
   xmlns:cc="http://creativecommons.org/ns#"
   xmlns:rdf="http://www.w3.org/1999/02/22-rdf-syntax-ns#"
   xmlns:svg="http://www.w3.org/2000/svg"
   xmlns="http://www.w3.org/2000/svg"
   xmlns:sodipodi="http://sodipodi.sourceforge.net/DTD/sodipodi-0.dtd"
   xmlns:inkscape="http://www.inkscape.org/namespaces/inkscape"
   width="897.44324mm"
   height="324.50882mm"
   viewBox="0 0 3179.917 1149.8344"
   id="svg2"
   version="1.1"
   inkscape:version="0.91 r13725"
   sodipodi:docname="decoupe.svg">
  <defs
     id="defs4" />
  <sodipodi:namedview
     id="base"
     pagecolor="#ffffff"
     bordercolor="#666666"
     borderopacity="1.0"
     inkscape:pageopacity="0.0"
     inkscape:pageshadow="2"
     inkscape:zoom="0.175"
     inkscape:cx="553.10798"
     inkscape:cy="-406.00059"
     inkscape:document-units="mm"
     inkscape:current-layer="layer1"
     showgrid="false"
     inkscape:window-width="1879"
     inkscape:window-height="1056"
     inkscape:window-x="41"
     inkscape:window-y="24"
     inkscape:window-maximized="1"
     showborder="false"
     fit-margin-top="10"
     fit-margin-left="10"
     fit-margin-right="10"
     fit-margin-bottom="10" />
  <metadata
     id="metadata7">
    <rdf:RDF>
      <cc:Work
         rdf:about="">
        <dc:format>image/svg+xml</dc:format>
        <dc:type
           rdf:resource="http://purl.org/dc/dcmitype/StillImage" />
        <dc:title></dc:title>
      </cc:Work>
    </rdf:RDF>
  </metadata>
  <g
     inkscape:label="Calque 1"
     inkscape:groupmode="layer"
     id="layer1"
     transform="translate(35.433471,62.039151)">
    <g
       transform="matrix(3.2807981,0,0,3.6380961,426.37673,2190.9207)"
       style="font-style:normal;font-variant:normal;font-weight:normal;font-stretch:normal;font-size:40px;line-height:125%;font-family:'WenQuanYi Micro Hei Mono';-inkscape-font-specification:'WenQuanYi Micro Hei Mono';letter-spacing:0px;word-spacing:0px;fill:#ffd42a;fill-opacity:1;stroke:#ffdd55;stroke-width:5.23469782;stroke-linecap:butt;stroke-linejoin:miter;stroke-miterlimit:4;stroke-dasharray:none;stroke-opacity:1"
       id="g4368">
      <path
         d="m 153.76172,-351.8609 0,3.51562 -27.96875,0 0,28.59375 30.23437,0 0,3.51563 -33.75,0 0,-58.32031 33.90625,0 0,3.51562 -30.39062,0 0,19.17969 27.96875,0 z"
         style="font-style:normal;font-variant:normal;font-weight:normal;font-stretch:normal;font-size:80px;font-family:Sawasdee;-inkscape-font-specification:Sawasdee;fill:#ffd42a;stroke:#ffdd55;stroke-width:5.23469782;stroke-miterlimit:4;stroke-dasharray:none;stroke-opacity:1"
         id="path4370"
         inkscape:connector-curvature="0" />
      <path
         d="m 196.57422,-351.8609 0,3.51562 -27.96875,0 0,28.59375 30.23437,0 0,3.51563 -33.75,0 0,-58.32031 33.90625,0 0,3.51562 -30.39062,0 0,19.17969 27.96875,0 z"
         style="font-style:normal;font-variant:normal;font-weight:normal;font-stretch:normal;font-size:80px;font-family:Sawasdee;-inkscape-font-specification:Sawasdee;fill:#ffd42a;stroke:#ffdd55;stroke-width:5.23469782;stroke-miterlimit:4;stroke-dasharray:none;stroke-opacity:1"
         id="path4372"
         inkscape:connector-curvature="0" />
      <path
         d="m 239.03516,-364.24371 -3.32032,1.13281 q -1.36718,-4.17969 -4.53125,-6.32813 -3.125,-2.14843 -6.83593,-2.14843 -4.49219,0 -7.34375,2.89062 -2.8125,2.89063 -2.8125,7.07031 0,2.14844 0.97656,3.90625 0.97656,1.75782 2.61719,3.00782 1.64062,1.25 3.75,2.34375 2.14843,1.05468 4.49218,2.03125 2.38282,0.97656 4.72657,2.07031 2.38281,1.05469 4.49218,2.46094 2.14844,1.40625 3.78907,3.125 1.64062,1.71875 2.61718,4.21875 0.97657,2.5 0.97657,5.54687 0,5.07813 -2.61719,9.10156 -2.61719,4.02344 -6.79688,6.13282 -4.17968,2.10937 -9.02343,2.10937 -3.16407,0 -6.05469,-1.01562 -2.89063,-1.01563 -5.39063,-3.00782 -2.5,-2.03125 -4.25781,-5.39062 -1.75781,-3.35938 -2.30469,-7.69531 l 3.47657,-0.42969 q 0.97656,7.03125 5,10.50781 4.0625,3.4375 9.53125,3.4375 3.86718,0 7.22656,-1.60156 3.35937,-1.64063 5.50781,-4.84375 2.1875,-3.24219 2.1875,-7.42188 0,-2.61718 -0.97656,-4.72656 -0.97656,-2.10937 -2.61719,-3.55469 -1.64062,-1.44531 -3.78906,-2.65625 -2.10938,-1.21093 -4.49219,-2.1875 -2.34375,-1.01562 -4.72656,-2.03125 -2.34375,-1.01562 -4.49219,-2.26562 -2.10937,-1.25 -3.75,-2.73438 -1.64062,-1.48437 -2.61719,-3.63281 -0.97656,-2.1875 -0.97656,-4.88281 0,-5.625 3.82813,-9.57031 3.82812,-3.98438 9.84375,-3.98438 4.6875,0 8.78906,2.92969 4.14062,2.89062 5.89844,8.08594 z"
         style="font-style:normal;font-variant:normal;font-weight:normal;font-stretch:normal;font-size:80px;font-family:Sawasdee;-inkscape-font-specification:Sawasdee;fill:#ffd42a;stroke:#ffdd55;stroke-width:5.23469782;stroke-miterlimit:4;stroke-dasharray:none;stroke-opacity:1"
         id="path4374"
         inkscape:connector-curvature="0" />
      <path
         d="m 261.53516,-337.83746 23.51562,0 -11.79687,-28.32032 -11.71875,28.32032 z m 24.92187,3.51562 -26.60156,0 -7.42188,18.08594 -3.75,0 24.45313,-59.02344 24.53125,59.02344 -3.75,0 -7.46094,-18.08594 z"
         style="font-style:normal;font-variant:normal;font-weight:normal;font-stretch:normal;font-size:80px;font-family:Sawasdee;-inkscape-font-specification:Sawasdee;fill:#ffd42a;stroke:#ffdd55;stroke-width:5.23469782;stroke-miterlimit:4;stroke-dasharray:none;stroke-opacity:1"
         id="path4376"
         inkscape:connector-curvature="0" />
      <path
         d="m 309.07422,-319.75153 16.95312,0 q 6.44532,0 10.85938,-3.98437 4.41406,-4.02344 4.41406,-9.60938 0,-5.58593 -4.41406,-9.57031 -4.41406,-4.02344 -10.85938,-4.02344 l -16.95312,0 0,27.1875 z m 27.77344,-40.89843 q 0,-4.21875 -3.35938,-7.30469 -3.32031,-3.08594 -8.20312,-3.08594 l -16.21094,0 0,20.625 16.21094,0 q 4.92187,0 8.24218,-2.96875 3.32032,-3.00781 3.32032,-7.26562 z m -31.28907,-13.90625 20.03907,0 q 6.09375,0 10.50781,4.14062 4.41406,4.10156 4.41406,9.84375 0,3.59375 -1.91406,6.64063 -1.875,3.04687 -5.07813,4.92187 5.07813,1.95313 8.16407,6.17188 3.125,4.21875 3.125,9.49218 0,4.64844 -2.53907,8.59375 -2.53906,3.94532 -6.875,6.25 -4.29687,2.26563 -9.375,2.26563 l -20.46875,0 0,-58.32031 z"
         style="font-style:normal;font-variant:normal;font-weight:normal;font-stretch:normal;font-size:80px;font-family:Sawasdee;-inkscape-font-specification:Sawasdee;fill:#ffd42a;stroke:#ffdd55;stroke-width:5.23469782;stroke-miterlimit:4;stroke-dasharray:none;stroke-opacity:1"
         id="path4378"
         inkscape:connector-curvature="0" />
      <path
         d="m 374.58203,-356.47028 q 4.10156,0 7.85156,1.60157 3.75,1.60156 6.48438,4.33593 2.73437,2.73438 4.33594,6.52344 1.60156,3.78906 1.60156,7.92969 0,4.17969 -1.60156,7.96875 -1.60157,3.78906 -4.33594,6.52344 -2.73438,2.69531 -6.48438,4.33593 -3.75,1.60157 -7.85156,1.60157 -8.39844,0 -14.33594,-5.97657 -5.9375,-5.97656 -5.9375,-14.45312 0,-5.54688 2.69532,-10.23438 2.73437,-4.72656 7.38281,-7.42187 4.6875,-2.73438 10.19531,-2.73438 z m -16.79687,20.39063 q 0,6.99219 4.92187,11.99219 4.96094,4.96093 11.95313,4.96093 6.99218,0 11.91406,-4.96093 4.96094,-5 4.96094,-11.99219 0,-6.95313 -4.96094,-11.91406 -4.92188,-4.96094 -11.91406,-4.96094 -6.99219,0 -11.95313,4.96094 -4.92187,4.96093 -4.92187,11.91406 z"
         style="font-style:normal;font-variant:normal;font-weight:normal;font-stretch:normal;font-size:80px;font-family:Sawasdee;-inkscape-font-specification:Sawasdee;fill:#ffd42a;stroke:#ffdd55;stroke-width:5.23469782;stroke-miterlimit:4;stroke-dasharray:none;stroke-opacity:1"
         id="path4380"
         inkscape:connector-curvature="0" />
      <path
         d="m 435.55859,-316.2359 -3.75,0 q -0.70312,-2.22656 -0.70312,-5.23438 l 0,-3.08593 q -2.8125,3.90625 -6.75781,6.44531 -3.90625,2.53906 -8.28125,2.53906 -3.16407,0 -5.66407,-0.97656 -2.46093,-1.01563 -3.90625,-2.65625 -1.44531,-1.64063 -2.1875,-3.47656 -0.74218,-1.875 -0.74218,-3.78907 0,-1.99218 0.58593,-3.67187 0.625,-1.67969 1.5625,-2.85156 0.97657,-1.21094 2.53907,-2.14844 1.60156,-0.97656 3.04687,-1.5625 1.48438,-0.625 3.67188,-1.05469 2.1875,-0.46875 3.78906,-0.66406 1.60156,-0.23438 3.98437,-0.35156 2.38282,-0.11719 3.75,-0.11719 1.40625,-0.0391 3.55469,-0.0391 l 1.05469,0 q -0.19531,-6.44532 -3.82813,-10.27344 -3.59375,-3.82813 -8.32031,-3.82813 -2.77344,0 -5.42969,1.44532 -2.61718,1.44531 -4.57031,4.21875 l -2.77344,-1.83594 q 2.38282,-3.67188 5.74219,-5.50781 3.35938,-1.83594 7.03125,-1.83594 2.96875,0 5.70313,1.21094 2.77343,1.17187 4.96093,3.35937 2.1875,2.14844 3.51563,5.54688 1.36719,3.39843 1.44531,7.5 l 0,17.46093 q 0,3.39844 0.97656,5.23438 z m -19.49218,-2.8125 q 4.49218,0 8.71093,-3.00781 4.21875,-3.00782 6.32813,-6.875 l 0,-7.5 q -1.83594,0.0391 -3.08594,0.0781 -1.21094,0.0391 -3.35937,0.19531 -2.10938,0.11719 -3.59375,0.3125 -1.48438,0.15625 -3.47657,0.54688 -1.95312,0.39062 -3.32031,0.89844 -1.36719,0.46875 -2.85156,1.25 -1.44531,0.74218 -2.34375,1.67968 -0.89844,0.89844 -1.48438,2.1875 -0.54687,1.28907 -0.54687,2.8125 0,2.8125 2.34375,5.11719 2.34375,2.30469 6.67969,2.30469 z"
         style="font-style:normal;font-variant:normal;font-weight:normal;font-stretch:normal;font-size:80px;font-family:Sawasdee;-inkscape-font-specification:Sawasdee;fill:#ffd42a;stroke:#ffdd55;stroke-width:5.23469782;stroke-miterlimit:4;stroke-dasharray:none;stroke-opacity:1"
         id="path4382"
         inkscape:connector-curvature="0" />
      <path
         d="m 446.61328,-355.84528 3.75,0 q 0.74219,2.57813 0.74219,5.23438 l 0,4.92187 q 0.89844,-3.00781 4.17969,-6.25 3.28125,-3.24218 6.60156,-4.53125 l 3.90625,2.77344 q -3.4375,0 -6.875,2.42188 -3.39844,2.42187 -5.625,6.44531 -2.1875,3.98437 -2.1875,8.24219 l 0,20.35156 -3.51563,0 0,-34.375 q 0,-3.35938 -0.97656,-5.23438 z"
         style="font-style:normal;font-variant:normal;font-weight:normal;font-stretch:normal;font-size:80px;font-family:Sawasdee;-inkscape-font-specification:Sawasdee;fill:#ffd42a;stroke:#ffdd55;stroke-width:5.23469782;stroke-miterlimit:4;stroke-dasharray:none;stroke-opacity:1"
         id="path4384"
         inkscape:connector-curvature="0" />
      <path
         d="m 508.29297,-316.2359 -3.75,0 q -0.66406,-2.30469 -0.66406,-5.23438 l 0,-4.92187 q -1.48438,4.0625 -5.89844,7.42187 -4.375,3.32032 -8.78906,3.32032 -4.96094,0 -9.14063,-2.77344 -4.14062,-2.77344 -6.52344,-7.46094 -2.34375,-4.72656 -2.34375,-10.19531 0,-5.46875 2.34375,-10.11719 2.38282,-4.6875 6.52344,-7.46094 4.17969,-2.8125 9.14063,-2.8125 4.49218,0 8.86718,3.28125 4.375,3.24219 5.82032,7.5 l 0,-28.86718 3.47656,0 0,53.08593 q 0,3.35938 0.9375,5.23438 z m -8.78906,-7.85156 q 4.375,-4.96094 4.375,-11.99219 0,-7.03125 -4.33594,-11.95313 -4.33594,-4.92187 -10.35156,-4.92187 -5.97657,0 -10.35157,4.92187 -4.375,4.92188 -4.375,11.95313 0,6.99219 4.375,11.99219 4.375,4.96093 10.35157,4.96093 5.97656,0 10.3125,-4.96093 z"
         style="font-style:normal;font-variant:normal;font-weight:normal;font-stretch:normal;font-size:80px;font-family:Sawasdee;-inkscape-font-specification:Sawasdee;fill:#ffd42a;stroke:#ffdd55;stroke-width:5.23469782;stroke-miterlimit:4;stroke-dasharray:none;stroke-opacity:1"
         id="path4386"
         inkscape:connector-curvature="0" />
    </g>
    <g
       transform="translate(-2498.7959,1737.2642)"
       id="g4394">
      <path
         sodipodi:nodetypes="ssssssssss"
         inkscape:connector-curvature="0"
         id="path4396"
         d="m 3988.321,-1763.8703 c -210.2245,0 -381.9394,171.715 -381.9395,381.9395 0,210.2244 171.715,381.95233 381.9395,381.95233 210.2244,0 381.9394,-171.72793 381.9394,-381.95233 0,-210.2245 -171.715,-381.9395 -381.9394,-381.9395 z m 0,121.0433 c 144.8099,0 260.909,116.0863 260.909,260.8962 0,144.8099 -116.0991,260.9089 -260.909,260.9089 -144.8099,0 -260.909,-116.099 -260.909,-260.9089 0,-144.8099 116.0991,-260.8962 260.909,-260.8962 z"
         style="color:#000000;font-style:normal;font-variant:normal;font-weight:normal;font-stretch:normal;font-size:medium;line-height:normal;font-family:sans-serif;text-indent:0;text-align:start;text-decoration:none;text-decoration-line:none;text-decoration-style:solid;text-decoration-color:#000000;letter-spacing:normal;word-spacing:normal;text-transform:none;direction:ltr;block-progression:tb;writing-mode:lr-tb;baseline-shift:baseline;text-anchor:start;white-space:normal;clip-rule:nonzero;display:inline;overflow:visible;visibility:visible;opacity:1;isolation:auto;mix-blend-mode:normal;color-interpolation:sRGB;color-interpolation-filters:linearRGB;solid-color:#000000;solid-opacity:1;fill:#000000;fill-opacity:1;fill-rule:nonzero;stroke:none;stroke-width:18.4251976;stroke-linecap:round;stroke-linejoin:round;stroke-miterlimit:4;stroke-dasharray:none;stroke-dashoffset:0;stroke-opacity:1;color-rendering:auto;image-rendering:auto;shape-rendering:auto;text-rendering:auto;enable-background:accumulate" />
      <path
         sodipodi:nodetypes="sssss"
         inkscape:connector-curvature="0"
         id="path4398"
         d="m 3988.321,-1626.1729 c -134.4359,0 -244.2422,109.8064 -244.2422,244.2422 0,134.4357 109.8063,244.2549 244.2422,244.2549 134.4357,0 244.2421,-109.8192 244.2421,-244.2549 0,-134.4358 -109.8064,-244.2422 -244.2421,-244.2422 z"
         style="color:#000000;font-style:normal;font-variant:normal;font-weight:normal;font-stretch:normal;font-size:medium;line-height:normal;font-family:sans-serif;text-indent:0;text-align:start;text-decoration:none;text-decoration-line:none;text-decoration-style:solid;text-decoration-color:#000000;letter-spacing:normal;word-spacing:normal;text-transform:none;direction:ltr;block-progression:tb;writing-mode:lr-tb;baseline-shift:baseline;text-anchor:start;white-space:normal;clip-rule:nonzero;display:inline;overflow:visible;visibility:visible;opacity:1;isolation:auto;mix-blend-mode:normal;color-interpolation:sRGB;color-interpolation-filters:linearRGB;solid-color:#000000;solid-opacity:1;fill:#000000;fill-opacity:1;fill-rule:nonzero;stroke:none;stroke-width:11.78266811;stroke-linecap:round;stroke-linejoin:round;stroke-miterlimit:4;stroke-dasharray:none;stroke-dashoffset:0;stroke-opacity:1;color-rendering:auto;image-rendering:auto;shape-rendering:auto;text-rendering:auto;enable-background:accumulate" />
      <g
         transform="matrix(7.6099631,4.8333411,-4.8333411,7.6099631,1059.5128,-2505.4494)"
         style="font-style:normal;font-variant:normal;font-weight:bold;font-stretch:normal;font-size:40px;line-height:125%;font-family:Sawasdee;-inkscape-font-specification:'Sawasdee Bold';letter-spacing:0px;word-spacing:0px;fill:#ffffff;fill-opacity:1;stroke:#ffffff;stroke-width:2.12598419;stroke-linecap:butt;stroke-linejoin:miter;stroke-miterlimit:4;stroke-dasharray:none;stroke-opacity:1"
         id="g4400">
        <path
           inkscape:connector-curvature="0"
           d="m 318.85156,-63.517447 3.16406,0 0,0.664063 q 0,2.558593 1.875,4.414062 1.89454,1.835938 4.51172,1.835938 2.61719,0 4.49219,-1.835938 1.89453,-1.855469 1.89453,-4.414062 0,-2.558594 -1.89453,-4.375 -1.875,-1.835938 -4.49219,-1.835938 l -0.70312,0 0,-3.007812 0.70312,0 q 1.875,0 3.16407,-1.09375 1.28906,-1.113282 1.28906,-2.832032 0,-1.796875 -1.28906,-3.046875 -1.28907,-1.25 -3.16407,-1.25 -1.875,0 -3.16406,1.25 -1.28906,1.25 -1.28906,3.046875 l 0,0.625 -3.10547,0 0,-0.625 q 0,-3.046875 2.20703,-5.175781 2.22656,-2.128906 5.35156,-2.128906 3.125,0 5.3125,2.128906 2.20703,2.128906 2.20703,5.175781 0,3.203125 -2.57812,5.332032 2.03125,1.230468 3.26172,3.320312 1.23047,2.089844 1.23047,4.492188 0,2.519531 -1.26953,4.648437 -1.26954,2.109375 -3.45704,3.339844 -2.1875,1.230469 -4.74609,1.230469 -3.94531,0 -6.73828,-2.695313 -2.77344,-2.695312 -2.77344,-6.523437 l 0,-0.664063 z"
           style="font-style:normal;font-variant:normal;font-weight:bold;font-stretch:normal;font-family:Sawasdee;-inkscape-font-specification:'Sawasdee Bold';fill:#ffffff;stroke:#ffffff;stroke-width:2.12598419;stroke-miterlimit:4;stroke-dasharray:none"
           id="path4402" />
        <path
           inkscape:connector-curvature="0"
           d="m 351.3125,-72.111197 q -1.95313,0 -3.65234,1.113281 -1.67969,1.113282 -2.8125,3.203125 l -3.06641,0 1.32812,-15.253906 15.89844,0 -0.99609,3.007813 -12.03125,0 -0.60547,7.011718 q 2.65625,-1.972656 5.9375,-1.972656 2.85156,0 5.23437,1.464844 2.38282,1.445312 3.73047,3.90625 1.34766,2.460937 1.34766,5.351562 0,2.890625 -1.34766,5.351563 -1.34765,2.460937 -3.73047,3.925781 -2.38281,1.445313 -5.23437,1.445313 -3.84766,0 -6.71875,-2.617188 -2.87109,-2.636719 -3.41797,-6.503906 l -0.13672,-0.800781 3.10547,0 0.0977,0.585937 q 0.50781,2.753906 2.48047,4.550781 1.99218,1.777344 4.58984,1.777344 2.94922,0 5.07812,-2.246094 2.14844,-2.246093 2.14844,-5.507812 0,-3.28125 -2.14844,-5.527344 -2.1289,-2.265625 -5.07812,-2.265625 z"
           style="font-style:normal;font-variant:normal;font-weight:bold;font-stretch:normal;font-family:Sawasdee;-inkscape-font-specification:'Sawasdee Bold';fill:#ffffff;stroke:#ffffff;stroke-width:2.12598419;stroke-miterlimit:4;stroke-dasharray:none"
           id="path4404" />
      </g>
    </g>
    <path
       id="path4406"
       style="fill:#ffffff;fill-rule:evenodd;stroke:#000000;stroke-width:3.36971116px;stroke-linecap:butt;stroke-linejoin:miter;stroke-opacity:1"
       d="m 2244.0522,363.1674 -202.1826,-97.4809 0,56.5633 -98.6845,36.7057 98.0827,42.1212 0,49.9443 z m 15.3443,90.0196 a 29.785841,29.785841 0 0 1 -29.7858,-29.7859 29.785841,29.785841 0 0 1 29.7858,-29.7858 29.785841,29.785841 0 0 1 29.7858,29.7858 29.785841,29.785841 0 0 1 -29.7858,29.7859 z m 0,-121.3093 a 29.785841,29.785841 0 0 1 -29.7858,-29.7864 29.785841,29.785841 0 0 1 29.7858,-29.7852 29.785841,29.785841 0 0 1 29.7858,29.7852 29.785841,29.785841 0 0 1 -29.7858,29.7864 z m 60.1734,60.1734 a 29.785841,29.785841 0 0 1 -29.7858,-29.7858 29.785841,29.785841 0 0 1 29.7858,-29.7864 29.785841,29.785841 0 0 1 29.7858,29.7864 29.785841,29.785841 0 0 1 -29.7858,29.7858 z"
       inkscape:connector-curvature="0" />
    <path
       inkscape:connector-curvature="0"
       d="m 881.5669,284.4695 -48.0855,-23.1842 0,13.4526 -23.4704,8.7298 23.3272,10.0178 0,11.8783 z m 3.6493,21.4095 a 7.0840309,7.0840309 0 0 1 -7.084,-7.084 7.0840309,7.0840309 0 0 1 7.084,-7.0841 7.0840309,7.0840309 0 0 1 7.0841,7.0841 7.0840309,7.0840309 0 0 1 -7.0841,7.084 z m 0,-28.8513 a 7.0840309,7.0840309 0 0 1 -7.084,-7.0841 7.0840309,7.0840309 0 0 1 7.084,-7.084 7.0840309,7.0840309 0 0 1 7.0841,7.084 7.0840309,7.0840309 0 0 1 -7.0841,7.0841 z m 14.3112,14.3112 a 7.0840309,7.0840309 0 0 1 -7.0841,-7.0841 7.0840309,7.0840309 0 0 1 7.0841,-7.084 7.0840309,7.0840309 0 0 1 7.0841,7.084 7.0840309,7.0840309 0 0 1 -7.0841,7.0841 z"
       style="fill:#ffffff;fill-rule:evenodd;stroke:#000000;stroke-width:0.80142576px;stroke-linecap:butt;stroke-linejoin:miter;stroke-opacity:1"
       id="path4408" />
    <path
       id="path4410"
       style="fill:#ffffff;fill-rule:evenodd;stroke:#000000;stroke-width:0.80142576px;stroke-linecap:butt;stroke-linejoin:miter;stroke-opacity:1"
       d="m 881.5669,435.4182 -48.0855,-23.1841 0,13.4525 -23.4704,8.7298 23.3272,10.0178 0,11.8783 z m 3.6493,21.4095 a 7.0840309,7.0840309 0 0 1 -7.084,-7.084 7.0840309,7.0840309 0 0 1 7.084,-7.0841 7.0840309,7.0840309 0 0 1 7.0841,7.0841 7.0840309,7.0840309 0 0 1 -7.0841,7.084 z m 0,-28.8513 a 7.0840309,7.0840309 0 0 1 -7.084,-7.0841 7.0840309,7.0840309 0 0 1 7.084,-7.084 7.0840309,7.0840309 0 0 1 7.0841,7.084 7.0840309,7.0840309 0 0 1 -7.0841,7.0841 z m 14.3112,14.3112 a 7.0840309,7.0840309 0 0 1 -7.0841,-7.0841 7.0840309,7.0840309 0 0 1 7.0841,-7.084 7.0840309,7.0840309 0 0 1 7.0841,7.084 7.0840309,7.0840309 0 0 1 -7.0841,7.0841 z"
       inkscape:connector-curvature="0" />
    <path
       inkscape:connector-curvature="0"
       d="m 917.3416,359.9438 -48.0855,-23.1841 0,13.4525 -23.4704,8.7299 23.3272,10.0178 0,11.8783 z m 3.6493,21.4095 a 7.0840309,7.0840309 0 0 1 -7.084,-7.084 7.0840309,7.0840309 0 0 1 7.084,-7.084 7.0840309,7.0840309 0 0 1 7.0841,7.084 7.0840309,7.0840309 0 0 1 -7.0841,7.084 z m 0,-28.8513 a 7.0840309,7.0840309 0 0 1 -7.084,-7.084 7.0840309,7.0840309 0 0 1 7.084,-7.084 7.0840309,7.0840309 0 0 1 7.0841,7.084 7.0840309,7.0840309 0 0 1 -7.0841,7.084 z m 14.31123,14.3112 a 7.0840309,7.0840309 0 0 1 -7.08403,-7.084 7.0840309,7.0840309 0 0 1 7.08403,-7.0841 7.0840309,7.0840309 0 0 1 7.08405,7.0841 7.0840309,7.0840309 0 0 1 -7.08405,7.084 z"
       style="fill:#ffffff;fill-rule:evenodd;stroke:#000000;stroke-width:0.80142576px;stroke-linecap:butt;stroke-linejoin:miter;stroke-opacity:1"
       id="path4412" />
  </g>
</svg>
